Rubik-Regular.ufo
<glyph name="exclam" format="1">
  <advance width="243"/>
  <unicode hex="0021"/>
  <outline>
    <contour>
      <point x="167" y="673" type="line" name="hr00" smooth="yes"/>
      <point x="167" y="688"/>
      <point x="155" y="700"/>
      <point x="140" y="700" type="curve" smooth="yes"/>
      <point x="103" y="700" type="line" smooth="yes"/>
      <point x="88" y="700"/>
      <point x="76" y="688"/>
      <point x="76" y="673" type="curve" smooth="yes"/>
      <point x="76" y="198" type="line" smooth="yes"/>
      <point x="76" y="183"/>
      <point x="88" y="171"/>
      <point x="103" y="171" type="curve" smooth="yes"/>
      <point x="140" y="171" type="line" smooth="yes"/>
      <point x="155" y="171"/>
      <point x="167" y="183"/>
      <point x="167" y="198" type="curve" smooth="yes"/>
    </contour>
    <contour>
      <point x="177" y="84" type="line" smooth="yes"/>
      <point x="177" y="99"/>
      <point x="165" y="111"/>
      <point x="150" y="111" type="curve" smooth="yes"/>
      <point x="93" y="111" type="line" smooth="yes"/>
      <point x="78" y="111"/>
      <point x="66" y="99"/>
      <point x="66" y="84" type="curve" smooth="yes"/>
      <point x="66" y="27" type="line" smooth="yes"/>
      <point x="66" y="12"/>
      <point x="78" y="0"/>
      <point x="93" y="0" type="curve" smooth="yes"/>
      <point x="150" y="0" type="line" smooth="yes"/>
      <point x="165" y="0"/>
      <point x="177" y="12"/>
      <point x="177" y="27" type="curve" smooth="yes"/>
    </contour>
  </outline>
</glyph>
<glyph name="quotedbl" format="1">
  <advance width="374"/>
  <unicode hex="0022"/>
  <outline>
    <contour>
      <point x="162" y="674" type="line" name="hr00" smooth="yes"/>
      <point x="164" y="694"/>
      <point x="156" y="710"/>
      <point x="135" y="710" type="curve" smooth="yes"/>
      <point x="81" y="710" type="line" smooth="yes"/>
      <point x="60" y="710"/>
      <point x="52" y="694"/>
      <point x="54" y="674" type="curve" smooth="yes"/>
      <point x="72" y="516" type="line" smooth="yes"/>
      <point x="74" y="498"/>
      <point x="86" y="488"/>
      <point x="100" y="488" type="curve" smooth="yes"/>
      <point x="116" y="488" type="line" smooth="yes"/>
      <point x="130" y="488"/>
      <point x="142" y="498"/>
      <point x="144" y="516" type="curve" smooth="yes"/>
    </contour>
    <contour>
      <point x="320" y="674" type="line" smooth="yes"/>
      <point x="322" y="694"/>
      <point x="314" y="710"/>
      <point x="293" y="710" type="curve" smooth="yes"/>
      <point x="239" y="710" type="line" smooth="yes"/>
      <point x="218" y="710"/>
      <point x="210" y="694"/>
      <point x="212" y="674" type="curve" smooth="yes"/>
      <point x="230" y="516" type="line" smooth="yes"/>
      <point x="232" y="498"/>
      <point x="244" y="488"/>
      <point x="258" y="488" type="curve" smooth="yes"/>
      <point x="274" y="488" type="line" smooth="yes"/>
      <point x="288" y="488"/>
      <point x="300" y="498"/>
      <point x="302" y="516" type="curve" smooth="yes"/>
    </contour>
  </outline>
</glyph>
<glyph name="numbersign" format="1">
  <advance width="689"/>
  <unicode hex="0023"/>
  <outline>
    <contour>
      <point x="546" y="630" type="line"/>
      <point x="546" y="633" type="line"/>
      <point x="546" y="645"/>
      <point x="536" y="655"/>
      <point x="524" y="655" type="curve"/>
      <point x="481" y="655" type="line"/>
      <point x="468" y="655"/>
      <point x="459" y="645"/>
      <point x="457" y="634" type="curve"/>
      <point x="439" y="517" type="line" name="hr01"/>
      <point x="302" y="517" type="line"/>
      <point x="319" y="630" type="line"/>
      <point x="319" y="633" type="line"/>
      <point x="319" y="645"/>
      <point x="309" y="655"/>
      <point x="297" y="655" type="curve" name="hr02"/>
      <point x="254" y="655" type="line"/>
      <point x="241" y="655"/>
      <point x="232" y="645"/>
      <point x="230" y="634" type="curve"/>
      <point x="212" y="517" type="line" name="hr03"/>
      <point x="99" y="517" type="line"/>
      <point x="84" y="517"/>
      <point x="72" y="505"/>
      <point x="72" y="490" type="curve"/>
      <point x="72" y="458" type="line"/>
      <point x="72" y="443"/>
      <point x="84" y="431"/>
      <point x="99" y="431" type="curve"/>
      <point x="199" y="431" type="line"/>
      <point x="174" y="263" type="line"/>
      <point x="73" y="263" type="line"/>
      <point x="58" y="263"/>
      <point x="46" y="251"/>
      <point x="46" y="236" type="curve"/>
      <point x="46" y="204" type="line"/>
      <point x="46" y="189"/>
      <point x="58" y="177"/>
      <point x="73" y="177" type="curve" name="hr04"/>
      <point x="161" y="177" type="line"/>
      <point x="144" y="63" type="line"/>
      <point x="144" y="61" type="line"/>
      <point x="144" y="49"/>
      <point x="154" y="39"/>
      <point x="166" y="39" type="curve" name="hr05"/>
      <point x="209" y="39" type="line"/>
      <point x="222" y="39"/>
      <point x="232" y="48"/>
      <point x="234" y="60" type="curve"/>
      <point x="251" y="177" type="line" name="hr06"/>
      <point x="388" y="177" type="line"/>
      <point x="371" y="63" type="line"/>
      <point x="371" y="61" type="line"/>
      <point x="371" y="49"/>
      <point x="381" y="39"/>
      <point x="393" y="39" type="curve" name="hr07"/>
      <point x="436" y="39" type="line"/>
      <point x="449" y="39"/>
      <point x="459" y="48"/>
      <point x="461" y="60" type="curve"/>
      <point x="478" y="177" type="line" name="hr08"/>
      <point x="590" y="177" type="line"/>
      <point x="605" y="177"/>
      <point x="617" y="189"/>
      <point x="617" y="204" type="curve"/>
      <point x="617" y="236" type="line"/>
      <point x="617" y="251"/>
      <point x="605" y="263"/>
      <point x="590" y="263" type="curve"/>
      <point x="491" y="263" type="line"/>
      <point x="516" y="431" type="line"/>
      <point x="616" y="431" type="line"/>
      <point x="631" y="431"/>
      <point x="643" y="443"/>
      <point x="643" y="458" type="curve"/>
      <point x="643" y="490" type="line"/>
      <point x="643" y="505"/>
      <point x="631" y="517"/>
      <point x="616" y="517" type="curve"/>
      <point x="529" y="517" type="line"/>
    </contour>
    <contour>
      <point x="289" y="431" type="line"/>
      <point x="426" y="431" type="line"/>
      <point x="401" y="263" type="line"/>
      <point x="264" y="263" type="line"/>
    </contour>
  </outline>
</glyph>
<glyph name="dollar" format="1">
  <advance width="612"/>
  <unicode hex="0024"/>
  <outline>
    <contour>
      <point x="347" y="773" type="line" name="hr00"/>
      <point x="347" y="788"/>
      <point x="335" y="800"/>
      <point x="320" y="800" type="curve"/>
      <point x="279" y="800" type="line"/>
      <point x="264" y="800"/>
      <point x="252" y="788"/>
      <point x="252" y="773" type="curve"/>
      <point x="252" y="707" type="line"/>
      <point x="124" y="691"/>
      <point x="61" y="605"/>
      <point x="61" y="516" type="curve" smooth="yes"/>
      <point x="61" y="426"/>
      <point x="110" y="361"/>
      <point x="244" y="326" type="curve" smooth="yes"/>
      <point x="390" y="288"/>
      <point x="478" y="264"/>
      <point x="478" y="194" type="curve" smooth="yes"/>
      <point x="478" y="124"/>
      <point x="398" y="80"/>
      <point x="304" y="80" type="curve" smooth="yes"/>
      <point x="195" y="80"/>
      <point x="146" y="140"/>
      <point x="130" y="176" type="curve" smooth="yes"/>
      <point x="122" y="194"/>
      <point x="112" y="198"/>
      <point x="99" y="198" type="curve"/>
      <point x="58" y="198" type="line"/>
      <point x="46" y="198"/>
      <point x="36" y="188"/>
      <point x="36" y="176" type="curve" smooth="yes"/>
      <point x="38" y="101"/>
      <point x="125" y="13"/>
      <point x="252" y="-6" type="curve"/>
      <point x="252" y="-73" type="line"/>
      <point x="252" y="-88"/>
      <point x="264" y="-100"/>
      <point x="279" y="-100" type="curve"/>
      <point x="320" y="-100" type="line"/>
      <point x="335" y="-100"/>
      <point x="347" y="-88"/>
      <point x="347" y="-73" type="curve"/>
      <point x="347" y="-8" type="line"/>
      <point x="484" y="5"/>
      <point x="573" y="85"/>
      <point x="573" y="194" type="curve" smooth="yes"/>
      <point x="573" y="294"/>
      <point x="515" y="346"/>
      <point x="364" y="386" type="curve" smooth="yes"/>
      <point x="216" y="425"/>
      <point x="156" y="446"/>
      <point x="156" y="516" type="curve" smooth="yes"/>
      <point x="156" y="586"/>
      <point x="225" y="620"/>
      <point x="299" y="620" type="curve" smooth="yes"/>
      <point x="398" y="620"/>
      <point x="446" y="555"/>
      <point x="459" y="529" type="curve" smooth="yes"/>
      <point x="468" y="511"/>
      <point x="475" y="507"/>
      <point x="490" y="507" type="curve"/>
      <point x="531" y="507" type="line"/>
      <point x="543" y="507"/>
      <point x="554" y="517"/>
      <point x="553" y="529" type="curve" smooth="yes"/>
      <point x="550" y="589"/>
      <point x="478" y="687"/>
      <point x="347" y="706" type="curve"/>
    </contour>
  </outline>
</glyph>
<glyph name="quotesingle" format="1">
  <advance width="216"/>
  <unicode hex="0027"/>
  <outline>
    <contour>
      <point x="162" y="674" type="line" name="hr00" smooth="yes"/>
      <point x="164" y="694"/>
      <point x="156" y="710"/>
      <point x="135" y="710" type="curve" smooth="yes"/>
      <point x="81" y="710" type="line" smooth="yes"/>
      <point x="60" y="710"/>
      <point x="52" y="694"/>
      <point x="54" y="674" type="curve" smooth="yes"/>
      <point x="72" y="516" type="line" smooth="yes"/>
      <point x="74" y="498"/>
      <point x="86" y="488"/>
      <point x="100" y="488" type="curve" smooth="yes"/>
      <point x="116" y="488" type="line" smooth="yes"/>
      <point x="130" y="488"/>
      <point x="142" y="498"/>
      <point x="144" y="516" type="curve" smooth="yes"/>
    </contour>
  </outline>
</glyph>
<glyph name="parenleft" format="1">
  <advance width="342"/>
  <unicode hex="0028"/>
  <outline>
    <contour>
      <point x="290" y="-159" type="curve" name="hr00" smooth="yes"/>
      <point x="305" y="-159"/>
      <point x="317" y="-147"/>
      <point x="317" y="-132" type="curve" smooth="yes"/>
      <point x="317" y="-100" type="line" smooth="yes"/>
      <point x="317" y="-85"/>
      <point x="305" y="-73"/>
      <point x="290" y="-73" type="curve" smooth="yes"/>
      <point x="163" y="-73"/>
      <point x="148" y="58"/>
      <point x="148" y="309" type="curve" smooth="yes"/>
      <point x="148" y="560"/>
      <point x="163" y="690"/>
      <point x="290" y="690" type="curve" smooth="yes"/>
      <point x="305" y="690"/>
      <point x="317" y="702"/>
      <point x="317" y="717" type="curve" smooth="yes"/>
      <point x="317" y="749" type="line" smooth="yes"/>
      <point x="317" y="764"/>
      <point x="305" y="776"/>
      <point x="290" y="776" type="curve" smooth="yes"/>
      <point x="98" y="776"/>
      <point x="57" y="627"/>
      <point x="57" y="309" type="curve" smooth="yes"/>
      <point x="57" y="-9"/>
      <point x="98" y="-159"/>
    </contour>
  </outline>
</glyph>
<glyph name="parenright" format="1">
  <advance width="342"/>
  <unicode hex="0029"/>
  <outline>
    <contour>
      <point x="52" y="-159" type="curve" name="hr00" smooth="yes"/>
      <point x="244" y="-159"/>
      <point x="285" y="-9"/>
      <point x="285" y="309" type="curve" smooth="yes"/>
      <point x="285" y="627"/>
      <point x="244" y="776"/>
      <point x="52" y="776" type="curve" smooth="yes"/>
      <point x="37" y="776"/>
      <point x="25" y="764"/>
      <point x="25" y="749" type="curve" smooth="yes"/>
      <point x="25" y="717" type="line" smooth="yes"/>
      <point x="25" y="702"/>
      <point x="37" y="690"/>
      <point x="52" y="690" type="curve" smooth="yes"/>
      <point x="179" y="690"/>
      <point x="194" y="560"/>
      <point x="194" y="309" type="curve" smooth="yes"/>
      <point x="194" y="58"/>
      <point x="179" y="-73"/>
      <point x="52" y="-73" type="curve" smooth="yes"/>
      <point x="37" y="-73"/>
      <point x="25" y="-85"/>
      <point x="25" y="-100" type="curve" smooth="yes"/>
      <point x="25" y="-132" type="line" smooth="yes"/>
      <point x="25" y="-147"/>
      <point x="37" y="-159"/>
    </contour>
  </outline>
</glyph>
<glyph name="plus" format="1">
  <advance width="614"/>
  <unicode hex="002B"/>
  <outline>
    <contour>
      <point x="549" y="259" type="line" name="hr00" smooth="yes"/>
      <point x="564" y="259"/>
      <point x="576" y="271"/>
      <point x="576" y="286" type="curve" smooth="yes"/>
      <point x="576" y="317" type="line" smooth="yes"/>
      <point x="576" y="332"/>
      <point x="564" y="344"/>
      <point x="549" y="344" type="curve" smooth="yes"/>
      <point x="352" y="344" type="line"/>
      <point x="352" y="540" type="line" smooth="yes"/>
      <point x="352" y="555"/>
      <point x="340" y="567"/>
      <point x="325" y="567" type="curve" smooth="yes"/>
      <point x="288" y="567" type="line" smooth="yes"/>
      <point x="273" y="567"/>
      <point x="261" y="555"/>
      <point x="261" y="540" type="curve" smooth="yes"/>
      <point x="261" y="344" type="line"/>
      <point x="65" y="344" type="line" smooth="yes"/>
      <point x="50" y="344"/>
      <point x="38" y="332"/>
      <point x="38" y="317" type="curve" smooth="yes"/>
      <point x="38" y="286" type="line" smooth="yes"/>
      <point x="38" y="271"/>
      <point x="50" y="259"/>
      <point x="65" y="259" type="curve" smooth="yes"/>
      <point x="261" y="259" type="line"/>
      <point x="261" y="60" type="line" smooth="yes"/>
      <point x="261" y="45"/>
      <point x="273" y="33"/>
      <point x="288" y="33" type="curve" smooth="yes"/>
      <point x="325" y="33" type="line" smooth="yes"/>
      <point x="340" y="33"/>
      <point x="352" y="45"/>
      <point x="352" y="60" type="curve" smooth="yes"/>
      <point x="352" y="259" type="line"/>
    </contour>
  </outline>
</glyph>
<glyph name="comma" format="1">
  <advance width="250"/>
  <unicode hex="002C"/>
  <outline>
    <contour>
      <point x="47" y="-51" type="line" name="hr00" smooth="yes"/>
      <point x="47" y="-53"/>
      <point x="47" y="-51"/>
      <point x="47" y="-53" type="curve" smooth="yes"/>
      <point x="47" y="-65"/>
      <point x="57" y="-75"/>
      <point x="69" y="-75" type="curve" smooth="yes"/>
      <point x="94" y="-75" type="line" smooth="yes"/>
      <point x="120" y="-75"/>
      <point x="132" y="-56"/>
      <point x="137" y="-43" type="curve" smooth="yes"/>
      <point x="189" y="92" type="line" smooth="yes"/>
      <point x="190" y="95"/>
      <point x="190" y="97"/>
      <point x="190" y="99" type="curve" smooth="yes"/>
      <point x="190" y="111"/>
      <point x="180" y="121"/>
      <point x="168" y="121" type="curve" smooth="yes"/>
      <point x="110" y="121" type="line" smooth="yes"/>
      <point x="83" y="121"/>
      <point x="70" y="100"/>
      <point x="67" y="82" type="curve" smooth="yes"/>
    </contour>
  </outline>
</glyph>
<glyph name="period" format="1">
  <advance width="247"/>
  <unicode hex="002E"/>
  <outline>
    <contour>
      <point x="90" y="121" type="line" name="hr00" smooth="yes"/>
      <point x="75" y="121"/>
      <point x="63" y="109"/>
      <point x="63" y="94" type="curve" smooth="yes"/>
      <point x="63" y="27" type="line" smooth="yes"/>
      <point x="63" y="12"/>
      <point x="75" y="0"/>
      <point x="90" y="0" type="curve" smooth="yes"/>
      <point x="157" y="0" type="line" smooth="yes"/>
      <point x="172" y="0"/>
      <point x="184" y="12"/>
      <point x="184" y="27" type="curve" smooth="yes"/>
      <point x="184" y="94" type="line" smooth="yes"/>
      <point x="184" y="109"/>
      <point x="172" y="121"/>
      <point x="157" y="121" type="curve" smooth="yes"/>
    </contour>
  </outline>
</glyph>
<glyph name="slash" format="1">
  <advance width="486"/>
  <unicode hex="002F"/>
  <outline>
    <contour>
      <point x="27" y="-53" type="line" name="hr00" smooth="yes"/>
      <point x="25" y="-58"/>
      <point x="25" y="-60"/>
      <point x="25" y="-62" type="curve" smooth="yes"/>
      <point x="25" y="-74"/>
      <point x="35" y="-84"/>
      <point x="47" y="-84" type="curve" smooth="yes"/>
      <point x="77" y="-84" type="line" smooth="yes"/>
      <point x="104" y="-84"/>
      <point x="116" y="-67"/>
      <point x="121" y="-54" type="curve" smooth="yes"/>
      <point x="459" y="755" type="line" smooth="yes"/>
      <point x="461" y="760"/>
      <point x="461" y="762"/>
      <point x="461" y="764" type="curve" smooth="yes"/>
      <point x="461" y="776"/>
      <point x="451" y="786"/>
      <point x="439" y="786" type="curve" smooth="yes"/>
      <point x="406" y="786" type="line" smooth="yes"/>
      <point x="381" y="786"/>
      <point x="368" y="770"/>
      <point x="362" y="756" type="curve" smooth="yes"/>
    </contour>
  </outline>
</glyph>
<glyph name="zero" format="1">
  <advance width="634"/>
  <unicode hex="0030"/>
  <outline>
    <contour>
      <point x="572" y="434" type="curve" name="hr00" smooth="yes"/>
      <point x="569" y="589"/>
      <point x="493" y="710"/>
      <point x="317" y="710" type="curve" smooth="yes"/>
      <point x="141" y="710"/>
      <point x="65" y="589"/>
      <point x="62" y="434" type="curve" smooth="yes"/>
      <point x="61" y="374"/>
      <point x="61" y="325"/>
      <point x="62" y="265" type="curve" smooth="yes"/>
      <point x="65" y="110"/>
      <point x="141" y="-10"/>
      <point x="317" y="-10" type="curve" smooth="yes"/>
      <point x="493" y="-10"/>
      <point x="569" y="110"/>
      <point x="572" y="265" type="curve" smooth="yes"/>
      <point x="573" y="325"/>
      <point x="573" y="374"/>
    </contour>
    <contour>
      <point x="156" y="265" type="curve" smooth="yes"/>
      <point x="155" y="325"/>
      <point x="155" y="374"/>
      <point x="156" y="434" type="curve" smooth="yes"/>
      <point x="159" y="560"/>
      <point x="214" y="620"/>
      <point x="317" y="620" type="curve" smooth="yes"/>
      <point x="420" y="620"/>
      <point x="475" y="560"/>
      <point x="478" y="434" type="curve" smooth="yes"/>
      <point x="479" y="374"/>
      <point x="479" y="325"/>
      <point x="478" y="265" type="curve" smooth="yes"/>
      <point x="475" y="139"/>
      <point x="420" y="80"/>
      <point x="317" y="80" type="curve" smooth="yes"/>
      <point x="214" y="80"/>
      <point x="159" y="139"/>
    </contour>
  </outline>
</glyph>
<glyph name="two" format="1">
  <advance width="582"/>
  <unicode hex="0032"/>
  <outline>
    <contour>
      <point x="70" y="101" type="line" smooth="yes"/>
      <point x="54" y="86"/>
      <point x="48" y="78"/>
      <point x="48" y="63" type="curve" smooth="yes"/>
      <point x="48" y="27" type="line" smooth="yes"/>
      <point x="48" y="12"/>
      <point x="60" y="0"/>
      <point x="75" y="0" type="curve" smooth="yes"/>
      <point x="506" y="0" type="line" smooth="yes"/>
      <point x="521" y="0"/>
      <point x="533" y="12"/>
      <point x="533" y="27" type="curve" smooth="yes"/>
      <point x="533" y="63" type="line" smooth="yes"/>
      <point x="533" y="78"/>
      <point x="521" y="90"/>
      <point x="506" y="90" type="curve" smooth="yes"/>
      <point x="200" y="90" type="line"/>
      <point x="423" y="298" type="line"/>
      <point x="493" y="359"/>
      <point x="518" y="412"/>
      <point x="518" y="496" type="curve" smooth="yes"/>
      <point x="518" y="614"/>
      <point x="441" y="710"/>
      <point x="294" y="710" type="curve" smooth="yes"/>
      <point x="145" y="710"/>
      <point x="61" y="593"/>
      <point x="58" y="495" type="curve" smooth="yes"/>
      <point x="58" y="483"/>
      <point x="68" y="473"/>
      <point x="80" y="473" type="curve" smooth="yes"/>
      <point x="126" y="473" type="line" smooth="yes"/>
      <point x="137" y="473"/>
      <point x="148" y="481"/>
      <point x="152" y="496" type="curve" smooth="yes"/>
      <point x="168" y="561"/>
      <point x="200" y="620"/>
      <point x="294" y="620" type="curve" name="hr01" smooth="yes"/>
      <point x="384" y="620"/>
      <point x="423" y="567"/>
      <point x="423" y="496" type="curve" smooth="yes"/>
      <point x="423" y="436"/>
      <point x="403" y="404"/>
      <point x="363" y="368" type="curve" smooth="yes"/>
    </contour>
  </outline>
</glyph>
<glyph name="three" format="1">
  <advance width="595"/>
  <unicode hex="0033"/>
  <outline>
    <contour>
      <point x="135" y="169" type="curve" smooth="yes"/>
      <point x="132" y="179"/>
      <point x="123" y="190"/>
      <point x="109" y="190" type="curve" smooth="yes"/>
      <point x="63" y="190" type="line" smooth="yes"/>
      <point x="51" y="190"/>
      <point x="41" y="180"/>
      <point x="41" y="168" type="curve" smooth="yes"/>
      <point x="44" y="81"/>
      <point x="121" y="-10"/>
      <point x="300" y="-10" type="curve" smooth="yes"/>
      <point x="436" y="-10"/>
      <point x="549" y="71"/>
      <point x="549" y="207" type="curve" smooth="yes"/>
      <point x="549" y="333"/>
      <point x="457" y="409"/>
      <point x="324" y="412" type="curve"/>
      <point x="501" y="603" type="line" smooth="yes"/>
      <point x="511" y="614"/>
      <point x="519" y="625"/>
      <point x="519" y="637" type="curve" smooth="yes"/>
      <point x="519" y="673" type="line" smooth="yes"/>
      <point x="519" y="688"/>
      <point x="507" y="700"/>
      <point x="492" y="700" type="curve" smooth="yes"/>
      <point x="98" y="700" type="line" smooth="yes"/>
      <point x="83" y="700"/>
      <point x="71" y="688"/>
      <point x="71" y="673" type="curve" smooth="yes"/>
      <point x="71" y="637" type="line" smooth="yes"/>
      <point x="71" y="622"/>
      <point x="83" y="610"/>
      <point x="98" y="610" type="curve" smooth="yes"/>
      <point x="386" y="610" type="line"/>
      <point x="206" y="416" type="line" smooth="yes"/>
      <point x="199" y="408"/>
      <point x="190" y="398"/>
      <point x="190" y="386" type="curve" smooth="yes"/>
      <point x="190" y="350" type="line" smooth="yes"/>
      <point x="190" y="335"/>
      <point x="202" y="323"/>
      <point x="217" y="323" type="curve" smooth="yes"/>
      <point x="300" y="323" type="line" smooth="yes"/>
      <point x="387" y="323"/>
      <point x="454" y="293"/>
      <point x="454" y="207" type="curve" smooth="yes"/>
      <point x="454" y="120"/>
      <point x="383" y="80"/>
      <point x="300" y="80" type="curve" name="hr01" smooth="yes"/>
      <point x="176" y="80"/>
      <point x="149" y="126"/>
    </contour>
  </outline>
</glyph>
<glyph name="five" format="1">
  <advance width="594"/>
  <unicode hex="0035"/>
  <outline>
    <contour>
      <point x="137" y="182" type="curve" smooth="yes"/>
      <point x="133" y="196"/>
      <point x="122" y="204"/>
      <point x="111" y="204" type="curve" smooth="yes"/>
      <point x="65" y="204" type="line" smooth="yes"/>
      <point x="53" y="204"/>
      <point x="43" y="194"/>
      <point x="43" y="182" type="curve" smooth="yes"/>
      <point x="46" y="69"/>
      <point x="163" y="-10"/>
      <point x="296" y="-10" type="curve" smooth="yes"/>
      <point x="436" y="-10"/>
      <point x="550" y="78"/>
      <point x="550" y="225" type="curve" smooth="yes"/>
      <point x="550" y="372"/>
      <point x="436" y="460"/>
      <point x="296" y="460" type="curve" smooth="yes"/>
      <point x="238" y="460"/>
      <point x="198" y="447"/>
      <point x="176" y="437" type="curve"/>
      <point x="192" y="610" type="line"/>
      <point x="483" y="610" type="line" smooth="yes"/>
      <point x="498" y="610"/>
      <point x="510" y="622"/>
      <point x="510" y="637" type="curve" smooth="yes"/>
      <point x="510" y="673" type="line" smooth="yes"/>
      <point x="510" y="688"/>
      <point x="498" y="700"/>
      <point x="483" y="700" type="curve" smooth="yes"/>
      <point x="130" y="700" type="line" smooth="yes"/>
      <point x="115" y="700"/>
      <point x="103" y="688"/>
      <point x="103" y="673" type="curve"/>
      <point x="73" y="339" type="line"/>
      <point x="73" y="327"/>
      <point x="83" y="317"/>
      <point x="95" y="317" type="curve" smooth="yes"/>
      <point x="146" y="317" type="line" smooth="yes"/>
      <point x="187" y="317"/>
      <point x="195" y="370"/>
      <point x="296" y="370" type="curve" name="hr01" smooth="yes"/>
      <point x="384" y="370"/>
      <point x="455" y="322"/>
      <point x="455" y="225" type="curve" smooth="yes"/>
      <point x="455" y="128"/>
      <point x="384" y="80"/>
      <point x="296" y="80" type="curve" smooth="yes"/>
      <point x="219" y="80"/>
      <point x="154" y="120"/>
    </contour>
  </outline>
</glyph>
<glyph name="six" format="1">
  <advance width="598"/>
  <unicode hex="0036"/>
  <outline>
    <contour>
      <point x="403" y="665" type="line" name="hr00" smooth="yes"/>
      <point x="405" y="668"/>
      <point x="408" y="672"/>
      <point x="408" y="678" type="curve" smooth="yes"/>
      <point x="408" y="690"/>
      <point x="400" y="700"/>
      <point x="388" y="700" type="curve" smooth="yes"/>
      <point x="331" y="700" type="line" smooth="yes"/>
      <point x="313" y="700"/>
      <point x="306" y="687"/>
      <point x="300" y="680" type="curve"/>
      <point x="118" y="412" type="line" smooth="yes"/>
      <point x="84" y="363"/>
      <point x="45" y="309"/>
      <point x="45" y="231" type="curve" smooth="yes"/>
      <point x="45" y="95"/>
      <point x="154" y="-10"/>
      <point x="304" y="-10" type="curve" smooth="yes"/>
      <point x="454" y="-10"/>
      <point x="563" y="95"/>
      <point x="563" y="231" type="curve" smooth="yes"/>
      <point x="563" y="367"/>
      <point x="454" y="472"/>
      <point x="304" y="472" type="curve" smooth="yes"/>
      <point x="294" y="472"/>
      <point x="277" y="470"/>
      <point x="268" y="467" type="curve"/>
    </contour>
    <contour>
      <point x="140" y="231" type="curve" smooth="yes"/>
      <point x="140" y="310"/>
      <point x="202" y="382"/>
      <point x="304" y="382" type="curve" smooth="yes"/>
      <point x="406" y="382"/>
      <point x="468" y="310"/>
      <point x="468" y="231" type="curve" smooth="yes"/>
      <point x="468" y="152"/>
      <point x="406" y="80"/>
      <point x="304" y="80" type="curve" smooth="yes"/>
      <point x="202" y="80"/>
      <point x="140" y="152"/>
    </contour>
  </outline>
</glyph>
<glyph name="seven" format="1">
  <advance width="515"/>
  <unicode hex="0037"/>
  <outline>
    <contour>
      <point x="54" y="700" type="line" name="hr00" smooth="yes"/>
      <point x="39" y="700"/>
      <point x="27" y="688"/>
      <point x="27" y="673" type="curve" smooth="yes"/>
      <point x="27" y="637" type="line" smooth="yes"/>
      <point x="27" y="622"/>
      <point x="39" y="610"/>
      <point x="54" y="610" type="curve" smooth="yes"/>
      <point x="382" y="610" type="line"/>
      <point x="159" y="36" type="line" smooth="yes"/>
      <point x="156" y="29"/>
      <point x="156" y="26"/>
      <point x="156" y="24" type="curve" smooth="yes"/>
      <point x="156" y="11"/>
      <point x="167" y="0"/>
      <point x="180" y="0" type="curve" smooth="yes"/>
      <point x="226" y="0" type="line" smooth="yes"/>
      <point x="242" y="0"/>
      <point x="250" y="12"/>
      <point x="255" y="24" type="curve" smooth="yes"/>
      <point x="477" y="597" type="line" smooth="yes"/>
      <point x="483" y="611"/>
      <point x="488" y="625"/>
      <point x="488" y="637" type="curve" smooth="yes"/>
      <point x="488" y="673" type="line" smooth="yes"/>
      <point x="488" y="688"/>
      <point x="476" y="700"/>
      <point x="461" y="700" type="curve" smooth="yes"/>
    </contour>
  </outline>
</glyph>
<glyph name="eight" format="1">
  <advance width="610"/>
  <unicode hex="0038"/>
  <outline>
    <contour>
      <point x="54" y="199" type="curve"/>
      <point x="54" y="84"/>
      <point x="158" y="-10"/>
      <point x="305" y="-10" type="curve" smooth="yes"/>
      <point x="452" y="-10"/>
      <point x="556" y="84"/>
      <point x="556" y="199" type="curve" smooth="yes"/>
      <point x="556" y="267"/>
      <point x="519" y="327"/>
      <point x="459" y="366" type="curve"/>
      <point x="507" y="402"/>
      <point x="538" y="454"/>
      <point x="538" y="514" type="curve" name="hr01" smooth="yes"/>
      <point x="538" y="622"/>
      <point x="438" y="710"/>
      <point x="305" y="710" type="curve" smooth="yes"/>
      <point x="172" y="710"/>
      <point x="73" y="622"/>
      <point x="73" y="514" type="curve" smooth="yes"/>
      <point x="73" y="454"/>
      <point x="102" y="402"/>
      <point x="151" y="366" type="curve"/>
      <point x="90" y="327"/>
      <point x="54" y="267"/>
    </contour>
    <contour>
      <point x="149" y="199" type="curve" smooth="yes"/>
      <point x="149" y="265"/>
      <point x="213" y="318"/>
      <point x="305" y="318" type="curve" smooth="yes"/>
      <point x="397" y="318"/>
      <point x="461" y="265"/>
      <point x="461" y="199" type="curve" smooth="yes"/>
      <point x="461" y="133"/>
      <point x="397" y="80"/>
      <point x="305" y="80" type="curve" smooth="yes"/>
      <point x="213" y="80"/>
      <point x="149" y="133"/>
    </contour>
    <contour>
      <point x="168" y="514" type="curve" name="hr03" smooth="yes"/>
      <point x="168" y="573"/>
      <point x="227" y="620"/>
      <point x="305" y="620" type="curve" smooth="yes"/>
      <point x="383" y="620"/>
      <point x="443" y="573"/>
      <point x="443" y="514" type="curve" smooth="yes"/>
      <point x="443" y="455"/>
      <point x="383" y="408"/>
      <point x="305" y="408" type="curve" smooth="yes"/>
      <point x="227" y="408"/>
      <point x="168" y="455"/>
    </contour>
  </outline>
</glyph>
<glyph name="nine" format="1">
  <advance width="579"/>
  <unicode hex="0039"/>
  <outline>
    <contour>
      <point x="173" y="35" type="line" name="hr00" smooth="yes"/>
      <point x="171" y="32"/>
      <point x="168" y="28"/>
      <point x="168" y="22" type="curve" smooth="yes"/>
      <point x="168" y="10"/>
      <point x="176" y="0"/>
      <point x="188" y="0" type="curve" smooth="yes"/>
      <point x="245" y="0" type="line" smooth="yes"/>
      <point x="263" y="0"/>
      <point x="270" y="13"/>
      <point x="276" y="20" type="curve"/>
      <point x="458" y="288" type="line" smooth="yes"/>
      <point x="491" y="337"/>
      <point x="538" y="407"/>
      <point x="538" y="474" type="curve" smooth="yes"/>
      <point x="538" y="610"/>
      <point x="442" y="710"/>
      <point x="287" y="710" type="curve" smooth="yes"/>
      <point x="152" y="710"/>
      <point x="36" y="610"/>
      <point x="36" y="474" type="curve" smooth="yes"/>
      <point x="36" y="323"/>
      <point x="160" y="238"/>
      <point x="287" y="238" type="curve" smooth="yes"/>
      <point x="292" y="238"/>
      <point x="308" y="239"/>
      <point x="314" y="240" type="curve"/>
    </contour>
    <contour>
      <point x="443" y="474" type="curve" smooth="yes"/>
      <point x="443" y="390"/>
      <point x="379" y="328"/>
      <point x="287" y="328" type="curve" smooth="yes"/>
      <point x="195" y="328"/>
      <point x="131" y="390"/>
      <point x="131" y="474" type="curve" smooth="yes"/>
      <point x="131" y="558"/>
      <point x="195" y="620"/>
      <point x="287" y="620" type="curve" smooth="yes"/>
      <point x="379" y="620"/>
      <point x="443" y="558"/>
    </contour>
  </outline>
</glyph>
<glyph name="colon" format="1">
  <advance width="257"/>
  <unicode hex="003A"/>
  <outline>
    <contour>
      <point x="95" y="471" type="line" name="hr00" smooth="yes"/>
      <point x="80" y="471"/>
      <point x="68" y="459"/>
      <point x="68" y="444" type="curve" smooth="yes"/>
      <point x="68" y="377" type="line" smooth="yes"/>
      <point x="68" y="362"/>
      <point x="80" y="350"/>
      <point x="95" y="350" type="curve" smooth="yes"/>
      <point x="162" y="350" type="line" smooth="yes"/>
      <point x="177" y="350"/>
      <point x="189" y="362"/>
      <point x="189" y="377" type="curve" smooth="yes"/>
      <point x="189" y="444" type="line" smooth="yes"/>
      <point x="189" y="459"/>
      <point x="177" y="471"/>
      <point x="162" y="471" type="curve" smooth="yes"/>
    </contour>
    <contour>
      <point x="95" y="121" type="line" smooth="yes"/>
      <point x="80" y="121"/>
      <point x="68" y="109"/>
      <point x="68" y="94" type="curve" smooth="yes"/>
      <point x="68" y="27" type="line" smooth="yes"/>
      <point x="68" y="12"/>
      <point x="80" y="0"/>
      <point x="95" y="0" type="curve" smooth="yes"/>
      <point x="162" y="0" type="line" smooth="yes"/>
      <point x="177" y="0"/>
      <point x="189" y="12"/>
      <point x="189" y="27" type="curve" smooth="yes"/>
      <point x="189" y="94" type="line" smooth="yes"/>
      <point x="189" y="109"/>
      <point x="177" y="121"/>
      <point x="162" y="121" type="curve" smooth="yes"/>
    </contour>
  </outline>
</glyph>
<glyph name="semicolon" format="1">
  <advance width="280"/>
  <unicode hex="003B"/>
  <outline>
    <contour>
      <point x="113" y="471" type="line" name="hr00" smooth="yes"/>
      <point x="98" y="471"/>
      <point x="86" y="459"/>
      <point x="86" y="444" type="curve" smooth="yes"/>
      <point x="86" y="377" type="line" smooth="yes"/>
      <point x="86" y="362"/>
      <point x="98" y="350"/>
      <point x="113" y="350" type="curve" smooth="yes"/>
      <point x="180" y="350" type="line" smooth="yes"/>
      <point x="195" y="350"/>
      <point x="207" y="362"/>
      <point x="207" y="377" type="curve" smooth="yes"/>
      <point x="207" y="444" type="line" smooth="yes"/>
      <point x="207" y="459"/>
      <point x="195" y="471"/>
      <point x="180" y="471" type="curve" smooth="yes"/>
    </contour>
    <contour>
      <point x="64" y="-50" type="line" smooth="yes"/>
      <point x="64" y="-52"/>
      <point x="64" y="-50"/>
      <point x="64" y="-52" type="curve" smooth="yes"/>
      <point x="64" y="-64"/>
      <point x="74" y="-74"/>
      <point x="86" y="-74" type="curve" smooth="yes"/>
      <point x="111" y="-74" type="line" smooth="yes"/>
      <point x="137" y="-74"/>
      <point x="149" y="-55"/>
      <point x="154" y="-42" type="curve" smooth="yes"/>
      <point x="206" y="92" type="line" smooth="yes"/>
      <point x="207" y="95"/>
      <point x="207" y="97"/>
      <point x="207" y="99" type="curve" smooth="yes"/>
      <point x="207" y="111"/>
      <point x="197" y="121"/>
      <point x="185" y="121" type="curve" smooth="yes"/>
      <point x="127" y="121" type="line" smooth="yes"/>
      <point x="100" y="121"/>
      <point x="87" y="100"/>
      <point x="84" y="82" type="curve" smooth="yes"/>
    </contour>
  </outline>
</glyph>
<glyph name="equal" format="1">
  <advance width="569"/>
  <unicode hex="003D"/>
  <outline>
    <contour>
      <point x="472" y="382" type="line" name="hr00" smooth="yes"/>
      <point x="487" y="382"/>
      <point x="499" y="394"/>
      <point x="499" y="409" type="curve" smooth="yes"/>
      <point x="499" y="441" type="line" smooth="yes"/>
      <point x="499" y="456"/>
      <point x="487" y="468"/>
      <point x="472" y="468" type="curve" smooth="yes"/>
      <point x="97" y="468" type="line" smooth="yes"/>
      <point x="82" y="468"/>
      <point x="70" y="456"/>
      <point x="70" y="441" type="curve" smooth="yes"/>
      <point x="70" y="409" type="line" smooth="yes"/>
      <point x="70" y="394"/>
      <point x="82" y="382"/>
      <point x="97" y="382" type="curve" smooth="yes"/>
    </contour>
    <contour>
      <point x="472" y="132" type="line" smooth="yes"/>
      <point x="487" y="132"/>
      <point x="499" y="144"/>
      <point x="499" y="159" type="curve" smooth="yes"/>
      <point x="499" y="191" type="line" smooth="yes"/>
      <point x="499" y="206"/>
      <point x="487" y="218"/>
      <point x="472" y="218" type="curve" smooth="yes"/>
      <point x="97" y="218" type="line" smooth="yes"/>
      <point x="82" y="218"/>
      <point x="70" y="206"/>
      <point x="70" y="191" type="curve" smooth="yes"/>
      <point x="70" y="159" type="line" smooth="yes"/>
      <point x="70" y="144"/>
      <point x="82" y="132"/>
      <point x="97" y="132" type="curve" smooth="yes"/>
    </contour>
  </outline>
</glyph>
<glyph name="A" format="1">
  <advance width="680"/>
  <unicode hex="0041"/>
  <outline>
    <contour>
      <point x="565" y="25" type="line" name="hr00" smooth="yes"/>
      <point x="569" y="14"/>
      <point x="578" y="0"/>
      <point x="604" y="0" type="curve" smooth="yes"/>
      <point x="641" y="0" type="line" smooth="yes"/>
      <point x="653" y="0"/>
      <point x="663" y="10"/>
      <point x="663" y="22" type="curve" smooth="yes"/>
      <point x="663" y="24"/>
      <point x="662" y="29"/>
      <point x="659" y="36" type="curve" smooth="yes"/>
      <point x="415" y="667" type="line" smooth="yes"/>
      <point x="409" y="682"/>
      <point x="397" y="700"/>
      <point x="370" y="700" type="curve" smooth="yes"/>
      <point x="310" y="700" type="line" smooth="yes"/>
      <point x="283" y="700"/>
      <point x="271" y="682"/>
      <point x="265" y="667" type="curve" smooth="yes"/>
      <point x="20" y="36" type="line" smooth="yes"/>
      <point x="17" y="29"/>
      <point x="16" y="24"/>
      <point x="16" y="22" type="curve" smooth="yes"/>
      <point x="16" y="10"/>
      <point x="26" y="0"/>
      <point x="38" y="0" type="curve" smooth="yes"/>
      <point x="75" y="0" type="line" smooth="yes"/>
      <point x="101" y="0"/>
      <point x="110" y="14"/>
      <point x="114" y="25" type="curve" smooth="yes"/>
      <point x="166" y="158" type="line"/>
      <point x="513" y="158" type="line"/>
    </contour>
    <contour>
      <point x="340" y="605" type="line"/>
      <point x="478" y="248" type="line"/>
      <point x="201" y="248" type="line"/>
    </contour>
  </outline>
</glyph>
<glyph name="B" format="1">
  <advance width="667"/>
  <unicode hex="0042"/>
  <outline>
    <contour>
      <point x="385" y="318" type="line" smooth="yes"/>
      <point x="479" y="318"/>
      <point x="520" y="263"/>
      <point x="520" y="203" type="curve" smooth="yes"/>
      <point x="520" y="143"/>
      <point x="474" y="90"/>
      <point x="385" y="90" type="curve" smooth="yes"/>
      <point x="181" y="90" type="line"/>
      <point x="181" y="318" type="line"/>
    </contour>
    <contour>
      <point x="371" y="610" type="line" smooth="yes"/>
      <point x="460" y="610"/>
      <point x="505" y="574"/>
      <point x="505" y="509" type="curve" name="hr01" smooth="yes"/>
      <point x="505" y="444"/>
      <point x="460" y="408"/>
      <point x="371" y="408" type="curve" smooth="yes"/>
      <point x="181" y="408" type="line"/>
      <point x="181" y="610" type="line"/>
    </contour>
    <contour>
      <point x="113" y="0" type="curve"/>
      <point x="395" y="0" type="line" smooth="yes"/>
      <point x="540" y="0"/>
      <point x="615" y="103"/>
      <point x="615" y="203" type="curve" name="hr02" smooth="yes"/>
      <point x="615" y="278"/>
      <point x="571" y="337"/>
      <point x="520" y="371" type="curve"/>
      <point x="537" y="381"/>
      <point x="600" y="424"/>
      <point x="600" y="512" type="curve" name="hr03" smooth="yes"/>
      <point x="600" y="582"/>
      <point x="551" y="700"/>
      <point x="381" y="700" type="curve" smooth="yes"/>
      <point x="113" y="700" type="line" smooth="yes"/>
      <point x="98" y="700"/>
      <point x="86" y="688"/>
      <point x="86" y="673" type="curve" smooth="yes"/>
      <point x="86" y="27" type="line" smooth="yes"/>
      <point x="86" y="12"/>
      <point x="98" y="0"/>
    </contour>
  </outline>
</glyph>
<glyph name="G" format="1">
  <advance width="684"/>
  <unicode hex="0047"/>
  <outline>
    <contour>
      <point x="60" y="441" type="curve" smooth="yes"/>
      <point x="58" y="381"/>
      <point x="58" y="325"/>
      <point x="60" y="265" type="curve" smooth="yes"/>
      <point x="65" y="111"/>
      <point x="154" y="-10"/>
      <point x="346" y="-10" type="curve" smooth="yes"/>
      <point x="528" y="-10"/>
      <point x="632" y="105"/>
      <point x="632" y="265" type="curve" smooth="yes"/>
      <point x="632" y="360" type="line" smooth="yes"/>
      <point x="632" y="375"/>
      <point x="620" y="387"/>
      <point x="605" y="387" type="curve" smooth="yes"/>
      <point x="393" y="387" type="line" smooth="yes"/>
      <point x="378" y="387"/>
      <point x="366" y="375"/>
      <point x="366" y="360" type="curve" smooth="yes"/>
      <point x="366" y="324" type="line" smooth="yes"/>
      <point x="366" y="309"/>
      <point x="378" y="297"/>
      <point x="393" y="297" type="curve" smooth="yes"/>
      <point x="537" y="297" type="line"/>
      <point x="537" y="269" type="line" smooth="yes"/>
      <point x="537" y="131"/>
      <point x="454" y="80"/>
      <point x="346" y="80" type="curve" smooth="yes"/>
      <point x="237" y="80"/>
      <point x="159" y="141"/>
      <point x="155" y="270" type="curve" smooth="yes"/>
      <point x="153" y="330"/>
      <point x="153" y="376"/>
      <point x="155" y="436" type="curve" smooth="yes"/>
      <point x="159" y="558"/>
      <point x="237" y="620"/>
      <point x="346" y="620" type="curve" smooth="yes"/>
      <point x="454" y="620"/>
      <point x="497" y="570"/>
      <point x="530" y="506" type="curve" smooth="yes"/>
      <point x="534" y="498"/>
      <point x="544" y="495"/>
      <point x="559" y="495" type="curve" name="hr01" smooth="yes"/>
      <point x="600" y="495" type="line" smooth="yes"/>
      <point x="612" y="495"/>
      <point x="623" y="505"/>
      <point x="622" y="517" type="curve" smooth="yes"/>
      <point x="619" y="588"/>
      <point x="528" y="710"/>
      <point x="346" y="710" type="curve" smooth="yes"/>
      <point x="153" y="710"/>
      <point x="65" y="589"/>
    </contour>
  </outline>
</glyph>
<glyph name="H" format="1">
  <advance width="714"/>
  <unicode hex="0048"/>
  <outline>
    <contour>
      <point x="560" y="700" type="line" name="hr00" smooth="yes"/>
      <point x="545" y="700"/>
      <point x="533" y="688"/>
      <point x="533" y="673" type="curve" smooth="yes"/>
      <point x="533" y="399" type="line"/>
      <point x="181" y="399" type="line"/>
      <point x="181" y="673" type="line" smooth="yes"/>
      <point x="181" y="688"/>
      <point x="169" y="700"/>
      <point x="154" y="700" type="curve" smooth="yes"/>
      <point x="113" y="700" type="line" smooth="yes"/>
      <point x="98" y="700"/>
      <point x="86" y="688"/>
      <point x="86" y="673" type="curve" smooth="yes"/>
      <point x="86" y="27" type="line" smooth="yes"/>
      <point x="86" y="11"/>
      <point x="98" y="0"/>
      <point x="113" y="0" type="curve" smooth="yes"/>
      <point x="154" y="0" type="line" smooth="yes"/>
      <point x="169" y="0"/>
      <point x="181" y="12"/>
      <point x="181" y="27" type="curve" smooth="yes"/>
      <point x="181" y="309" type="line"/>
      <point x="533" y="309" type="line"/>
      <point x="533" y="27" type="line" smooth="yes"/>
      <point x="533" y="12"/>
      <point x="545" y="0"/>
      <point x="560" y="0" type="curve" smooth="yes"/>
      <point x="601" y="0" type="line" smooth="yes"/>
      <point x="616" y="0"/>
      <point x="628" y="12"/>
      <point x="628" y="27" type="curve" smooth="yes"/>
      <point x="628" y="673" type="line" smooth="yes"/>
      <point x="628" y="688"/>
      <point x="616" y="700"/>
      <point x="601" y="700" type="curve" smooth="yes"/>
    </contour>
  </outline>
</glyph>
<glyph name="I" format="1">
  <advance width="267"/>
  <unicode hex="0049"/>
  <outline>
    <contour>
      <point x="154" y="0" type="line" name="hr00" smooth="yes"/>
      <point x="169" y="0"/>
      <point x="181" y="12"/>
      <point x="181" y="27" type="curve" smooth="yes"/>
      <point x="181" y="673" type="line" smooth="yes"/>
      <point x="181" y="688"/>
      <point x="169" y="700"/>
      <point x="154" y="700" type="curve" smooth="yes"/>
      <point x="113" y="700" type="line" smooth="yes"/>
      <point x="98" y="700"/>
      <point x="86" y="688"/>
      <point x="86" y="673" type="curve" smooth="yes"/>
      <point x="86" y="27" type="line" smooth="yes"/>
      <point x="86" y="12"/>
      <point x="98" y="0"/>
      <point x="113" y="0" type="curve" smooth="yes"/>
    </contour>
  </outline>
</glyph>
<glyph name="K" format="1">
  <advance width="599"/>
  <unicode hex="004B"/>
  <outline>
    <contour>
      <point x="554" y="660" type="line" name="hr00" smooth="yes"/>
      <point x="562" y="668"/>
      <point x="564" y="674"/>
      <point x="564" y="678" type="curve" smooth="yes"/>
      <point x="564" y="690"/>
      <point x="554" y="700"/>
      <point x="542" y="700" type="curve" smooth="yes"/>
      <point x="484" y="700" type="line" smooth="yes"/>
      <point x="465" y="700"/>
      <point x="453" y="690"/>
      <point x="448" y="685" type="curve" smooth="yes"/>
      <point x="181" y="440" type="line"/>
      <point x="181" y="673" type="line" smooth="yes"/>
      <point x="181" y="688"/>
      <point x="169" y="700"/>
      <point x="154" y="700" type="curve" smooth="yes"/>
      <point x="113" y="700" type="line" smooth="yes"/>
      <point x="98" y="700"/>
      <point x="86" y="688"/>
      <point x="86" y="673" type="curve" smooth="yes"/>
      <point x="86" y="27" type="line" smooth="yes"/>
      <point x="86" y="12"/>
      <point x="98" y="0"/>
      <point x="113" y="0" type="curve" smooth="yes"/>
      <point x="154" y="0" type="line" smooth="yes"/>
      <point x="169" y="0"/>
      <point x="181" y="12"/>
      <point x="181" y="27" type="curve" smooth="yes"/>
      <point x="181" y="285" type="line"/>
      <point x="464" y="15" type="line" smooth="yes"/>
      <point x="469" y="10"/>
      <point x="481" y="0"/>
      <point x="500" y="0" type="curve" smooth="yes"/>
      <point x="562" y="0" type="line" smooth="yes"/>
      <point x="574" y="0"/>
      <point x="584" y="10"/>
      <point x="584" y="22" type="curve" smooth="yes"/>
      <point x="584" y="26"/>
      <point x="582" y="32"/>
      <point x="574" y="40" type="curve" smooth="yes"/>
      <point x="233" y="365" type="line"/>
    </contour>
  </outline>
</glyph>
<glyph name="M" format="1">
  <advance width="794"/>
  <unicode hex="004D"/>
  <outline>
    <contour>
      <point x="195" y="668" type="line" name="hr00" smooth="yes"/>
      <point x="187" y="684"/>
      <point x="173" y="700"/>
      <point x="151" y="700" type="curve" smooth="yes"/>
      <point x="113" y="700" type="line" smooth="yes"/>
      <point x="98" y="700"/>
      <point x="86" y="688"/>
      <point x="86" y="673" type="curve" smooth="yes"/>
      <point x="86" y="27" type="line" smooth="yes"/>
      <point x="86" y="12"/>
      <point x="98" y="0"/>
      <point x="113" y="0" type="curve" smooth="yes"/>
      <point x="154" y="0" type="line" smooth="yes"/>
      <point x="169" y="0"/>
      <point x="181" y="12"/>
      <point x="181" y="27" type="curve" smooth="yes"/>
      <point x="181" y="501" type="line"/>
      <point x="337" y="200" type="line" smooth="yes"/>
      <point x="347" y="180"/>
      <point x="358" y="168"/>
      <point x="378" y="168" type="curve" smooth="yes"/>
      <point x="416" y="168" type="line" smooth="yes"/>
      <point x="436" y="168"/>
      <point x="447" y="180"/>
      <point x="457" y="200" type="curve" smooth="yes"/>
      <point x="613" y="501" type="line"/>
      <point x="613" y="27" type="line" smooth="yes"/>
      <point x="613" y="12"/>
      <point x="625" y="0"/>
      <point x="640" y="0" type="curve" smooth="yes"/>
      <point x="681" y="0" type="line" smooth="yes"/>
      <point x="696" y="0"/>
      <point x="708" y="12"/>
      <point x="708" y="27" type="curve" smooth="yes"/>
      <point x="708" y="673" type="line" smooth="yes"/>
      <point x="708" y="688"/>
      <point x="696" y="700"/>
      <point x="681" y="700" type="curve" smooth="yes"/>
      <point x="643" y="700" type="line" smooth="yes"/>
      <point x="621" y="700"/>
      <point x="607" y="684"/>
      <point x="599" y="668" type="curve" smooth="yes"/>
      <point x="397" y="277" type="line"/>
    </contour>
  </outline>
</glyph>
<glyph name="N" format="1">
  <advance width="694"/>
  <unicode hex="004E"/>
  <outline>
    <contour>
      <point x="581" y="0" type="line" name="hr00"/>
      <point x="596" y="0"/>
      <point x="608" y="12"/>
      <point x="608" y="27" type="curve"/>
      <point x="608" y="673" type="line"/>
      <point x="608" y="688"/>
      <point x="596" y="700"/>
      <point x="581" y="700" type="curve"/>
      <point x="540" y="700" type="line"/>
      <point x="525" y="700"/>
      <point x="513" y="688"/>
      <point x="513" y="673" type="curve"/>
      <point x="513" y="181" type="line"/>
      <point x="188" y="670" type="line"/>
      <point x="179" y="684"/>
      <point x="167" y="700"/>
      <point x="148" y="700" type="curve"/>
      <point x="113" y="700" type="line"/>
      <point x="98" y="700"/>
      <point x="86" y="688"/>
      <point x="86" y="673" type="curve"/>
      <point x="86" y="27" type="line"/>
      <point x="86" y="12"/>
      <point x="98" y="0"/>
      <point x="113" y="0" type="curve"/>
      <point x="154" y="0" type="line"/>
      <point x="169" y="0"/>
      <point x="181" y="12"/>
      <point x="181" y="27" type="curve"/>
      <point x="181" y="519" type="line"/>
      <point x="506" y="30" type="line"/>
      <point x="515" y="16"/>
      <point x="527" y="0"/>
      <point x="546" y="0" type="curve"/>
    </contour>
  </outline>
</glyph>
<glyph name="O" format="1">
  <advance width="672"/>
  <unicode hex="004F"/>
  <outline>
    <contour>
      <point x="60" y="439" type="curve" name="hr00"/>
      <point x="58" y="379"/>
      <point x="58" y="321"/>
      <point x="60" y="261" type="curve" smooth="yes"/>
      <point x="65" y="111"/>
      <point x="160" y="-10"/>
      <point x="336" y="-10" type="curve" smooth="yes"/>
      <point x="512" y="-10"/>
      <point x="607" y="111"/>
      <point x="612" y="261" type="curve" smooth="yes"/>
      <point x="614" y="321"/>
      <point x="614" y="379"/>
      <point x="612" y="439" type="curve"/>
      <point x="609" y="589"/>
      <point x="512" y="710"/>
      <point x="336" y="710" type="curve" smooth="yes"/>
      <point x="160" y="710"/>
      <point x="63" y="589"/>
    </contour>
    <contour>
      <point x="517" y="434" type="curve" smooth="yes"/>
      <point x="519" y="374"/>
      <point x="519" y="326"/>
      <point x="517" y="266" type="curve" smooth="yes"/>
      <point x="513" y="140"/>
      <point x="439" y="80"/>
      <point x="336" y="80" type="curve" smooth="yes"/>
      <point x="233" y="80"/>
      <point x="159" y="140"/>
      <point x="155" y="266" type="curve" smooth="yes"/>
      <point x="153" y="326"/>
      <point x="153" y="374"/>
      <point x="155" y="434" type="curve" smooth="yes"/>
      <point x="159" y="560"/>
      <point x="233" y="620"/>
      <point x="336" y="620" type="curve" smooth="yes"/>
      <point x="439" y="620"/>
      <point x="513" y="560"/>
    </contour>
  </outline>
</glyph>
<glyph name="P" format="1">
  <advance width="640"/>
  <unicode hex="0050"/>
  <outline>
    <contour>
      <point x="113" y="700" type="line" name="hr00" smooth="yes"/>
      <point x="98" y="700"/>
      <point x="86" y="688"/>
      <point x="86" y="673" type="curve" smooth="yes"/>
      <point x="86" y="27" type="line" smooth="yes"/>
      <point x="86" y="12"/>
      <point x="98" y="0"/>
      <point x="113" y="0" type="curve" smooth="yes"/>
      <point x="154" y="0" type="line" smooth="yes"/>
      <point x="169" y="0"/>
      <point x="181" y="12"/>
      <point x="181" y="27" type="curve" smooth="yes"/>
      <point x="181" y="272" type="line"/>
      <point x="365" y="272" type="line" smooth="yes"/>
      <point x="495" y="272"/>
      <point x="606" y="342"/>
      <point x="606" y="488" type="curve" smooth="yes"/>
      <point x="606" y="634"/>
      <point x="495" y="700"/>
      <point x="365" y="700" type="curve" smooth="yes"/>
    </contour>
    <contour>
      <point x="181" y="610" type="line"/>
      <point x="360" y="610" type="line" smooth="yes"/>
      <point x="456" y="610"/>
      <point x="511" y="573"/>
      <point x="511" y="488" type="curve" smooth="yes"/>
      <point x="511" y="403"/>
      <point x="456" y="362"/>
      <point x="360" y="362" type="curve" smooth="yes"/>
      <point x="181" y="362" type="line"/>
    </contour>
  </outline>
</glyph>
<glyph name="Q" format="1">
  <advance width="672"/>
  <unicode hex="0051"/>
  <outline>
    <contour>
      <point x="60" y="439" type="curve"/>
      <point x="58" y="379"/>
      <point x="58" y="321"/>
      <point x="60" y="261" type="curve" smooth="yes"/>
      <point x="65" y="111"/>
      <point x="160" y="-10"/>
      <point x="336" y="-10" type="curve" smooth="yes"/>
      <point x="384" y="-10"/>
      <point x="426" y="-1"/>
      <point x="461" y="15" type="curve"/>
      <point x="503" y="-42" type="line"/>
      <point x="509" y="-50"/>
      <point x="520" y="-65"/>
      <point x="545" y="-65" type="curve" name="hr01"/>
      <point x="592" y="-65" type="line"/>
      <point x="604" y="-65"/>
      <point x="612" y="-56"/>
      <point x="612" y="-44" type="curve" smooth="yes"/>
      <point x="612" y="-40"/>
      <point x="610" y="-36"/>
      <point x="609" y="-34" type="curve"/>
      <point x="535" y="67" type="line"/>
      <point x="583" y="116"/>
      <point x="609" y="185"/>
      <point x="612" y="261" type="curve" smooth="yes"/>
      <point x="614" y="321"/>
      <point x="614" y="379"/>
      <point x="612" y="439" type="curve"/>
      <point x="609" y="589"/>
      <point x="512" y="710"/>
      <point x="336" y="710" type="curve" smooth="yes"/>
      <point x="160" y="710"/>
      <point x="63" y="589"/>
    </contour>
    <contour>
      <point x="517" y="434" type="curve" smooth="yes"/>
      <point x="519" y="374"/>
      <point x="519" y="326"/>
      <point x="517" y="266" type="curve" smooth="yes"/>
      <point x="513" y="140"/>
      <point x="439" y="80"/>
      <point x="336" y="80" type="curve" smooth="yes"/>
      <point x="233" y="80"/>
      <point x="159" y="140"/>
      <point x="155" y="266" type="curve" smooth="yes"/>
      <point x="153" y="326"/>
      <point x="153" y="374"/>
      <point x="155" y="434" type="curve" smooth="yes"/>
      <point x="159" y="560"/>
      <point x="233" y="620"/>
      <point x="336" y="620" type="curve" smooth="yes"/>
      <point x="439" y="620"/>
      <point x="513" y="560"/>
    </contour>
  </outline>
</glyph>
<glyph name="R" format="1">
  <advance width="651"/>
  <unicode hex="0052"/>
  <outline>
    <contour>
      <point x="113" y="700" type="line" name="hr00" smooth="yes"/>
      <point x="98" y="700"/>
      <point x="86" y="688"/>
      <point x="86" y="673" type="curve" smooth="yes"/>
      <point x="86" y="27" type="line" smooth="yes"/>
      <point x="86" y="12"/>
      <point x="98" y="0"/>
      <point x="113" y="0" type="curve" smooth="yes"/>
      <point x="154" y="0" type="line" smooth="yes"/>
      <point x="169" y="0"/>
      <point x="181" y="12"/>
      <point x="181" y="27" type="curve" smooth="yes"/>
      <point x="181" y="282" type="line"/>
      <point x="353" y="282" type="line"/>
      <point x="498" y="27" type="line" smooth="yes"/>
      <point x="503" y="18"/>
      <point x="514" y="0"/>
      <point x="541" y="0" type="curve" smooth="yes"/>
      <point x="584" y="0" type="line" smooth="yes"/>
      <point x="596" y="0"/>
      <point x="606" y="10"/>
      <point x="606" y="22" type="curve" smooth="yes"/>
      <point x="606" y="27"/>
      <point x="605" y="29"/>
      <point x="603" y="33" type="curve" smooth="yes"/>
      <point x="452" y="296" type="line"/>
      <point x="536" y="322"/>
      <point x="596" y="385"/>
      <point x="596" y="493" type="curve" smooth="yes"/>
      <point x="596" y="639"/>
      <point x="485" y="700"/>
      <point x="355" y="700" type="curve" smooth="yes"/>
    </contour>
    <contour>
      <point x="181" y="610" type="line"/>
      <point x="350" y="610" type="line" smooth="yes"/>
      <point x="446" y="610"/>
      <point x="501" y="578"/>
      <point x="501" y="493" type="curve" smooth="yes"/>
      <point x="501" y="408"/>
      <point x="446" y="372"/>
      <point x="350" y="372" type="curve" smooth="yes"/>
      <point x="181" y="372" type="line"/>
    </contour>
  </outline>
</glyph>
<glyph name="T" format="1">
  <advance width="569"/>
  <unicode hex="0054"/>
  <outline>
    <contour>
      <point x="50" y="700" type="line" name="hr00" smooth="yes"/>
      <point x="35" y="700"/>
      <point x="23" y="688"/>
      <point x="23" y="673" type="curve" smooth="yes"/>
      <point x="23" y="637" type="line" smooth="yes"/>
      <point x="23" y="622"/>
      <point x="35" y="610"/>
      <point x="50" y="610" type="curve" smooth="yes"/>
      <point x="237" y="610" type="line"/>
      <point x="237" y="27" type="line" smooth="yes"/>
      <point x="237" y="12"/>
      <point x="249" y="0"/>
      <point x="264" y="0" type="curve" smooth="yes"/>
      <point x="305" y="0" type="line" smooth="yes"/>
      <point x="320" y="0"/>
      <point x="332" y="12"/>
      <point x="332" y="27" type="curve" smooth="yes"/>
      <point x="332" y="610" type="line"/>
      <point x="519" y="610" type="line" smooth="yes"/>
      <point x="534" y="610"/>
      <point x="546" y="622"/>
      <point x="546" y="637" type="curve" smooth="yes"/>
      <point x="546" y="673" type="line" smooth="yes"/>
      <point x="546" y="688"/>
      <point x="534" y="700"/>
      <point x="519" y="700" type="curve" smooth="yes"/>
    </contour>
  </outline>
</glyph>
<glyph name="U" format="1">
  <advance width="698"/>
  <unicode hex="0055"/>
  <outline>
    <contour>
      <point x="551" y="700" type="line" name="hr00" smooth="yes"/>
      <point x="536" y="700"/>
      <point x="524" y="688"/>
      <point x="524" y="673" type="curve" smooth="yes"/>
      <point x="524" y="268" type="line" smooth="yes"/>
      <point x="524" y="138"/>
      <point x="458" y="75"/>
      <point x="349" y="75" type="curve" smooth="yes"/>
      <point x="240" y="75"/>
      <point x="175" y="138"/>
      <point x="175" y="268" type="curve" smooth="yes"/>
      <point x="175" y="673" type="line" smooth="yes"/>
      <point x="175" y="688"/>
      <point x="163" y="700"/>
      <point x="148" y="700" type="curve" smooth="yes"/>
      <point x="107" y="700" type="line" smooth="yes"/>
      <point x="92" y="700"/>
      <point x="80" y="688"/>
      <point x="80" y="673" type="curve" smooth="yes"/>
      <point x="80" y="273" type="line" smooth="yes"/>
      <point x="80" y="109"/>
      <point x="157" y="-10"/>
      <point x="349" y="-10" type="curve" smooth="yes"/>
      <point x="539" y="-10"/>
      <point x="618" y="109"/>
      <point x="618" y="273" type="curve" smooth="yes"/>
      <point x="618" y="673" type="line" smooth="yes"/>
      <point x="618" y="688"/>
      <point x="606" y="700"/>
      <point x="591" y="700" type="curve" smooth="yes"/>
    </contour>
  </outline>
</glyph>
<glyph name="W" format="1">
  <advance width="792"/>
  <unicode hex="0057"/>
  <outline>
    <contour>
      <point x="413" y="545" type="curve" name="hr00"/>
      <point x="379" y="545" type="line"/>
      <point x="355" y="545"/>
      <point x="347" y="525"/>
      <point x="345" y="516" type="curve"/>
      <point x="235" y="120" type="line"/>
      <point x="133" y="673" type="line"/>
      <point x="129" y="693"/>
      <point x="115" y="700"/>
      <point x="102" y="700" type="curve"/>
      <point x="62" y="700" type="line"/>
      <point x="50" y="700"/>
      <point x="40" y="690"/>
      <point x="40" y="678" type="curve" smooth="yes"/>
      <point x="40" y="677"/>
      <point x="40" y="675"/>
      <point x="41" y="670" type="curve"/>
      <point x="164" y="52" type="line"/>
      <point x="171" y="19"/>
      <point x="181" y="0"/>
      <point x="213" y="0" type="curve"/>
      <point x="253" y="0" type="line"/>
      <point x="284" y="0"/>
      <point x="296" y="22"/>
      <point x="304" y="52" type="curve"/>
      <point x="396" y="386" type="line"/>
      <point x="488" y="52" type="line"/>
      <point x="496" y="22"/>
      <point x="508" y="0"/>
      <point x="539" y="0" type="curve"/>
      <point x="579" y="0" type="line"/>
      <point x="611" y="0"/>
      <point x="621" y="19"/>
      <point x="628" y="52" type="curve"/>
      <point x="751" y="670" type="line"/>
      <point x="752" y="675"/>
      <point x="752" y="677"/>
      <point x="752" y="678" type="curve" smooth="yes"/>
      <point x="752" y="690"/>
      <point x="742" y="700"/>
      <point x="730" y="700" type="curve"/>
      <point x="690" y="700" type="line"/>
      <point x="677" y="700"/>
      <point x="663" y="693"/>
      <point x="659" y="673" type="curve"/>
      <point x="557" y="120" type="line"/>
      <point x="447" y="516" type="line"/>
      <point x="445" y="525"/>
      <point x="437" y="545"/>
    </contour>
  </outline>
</glyph>
<glyph name="X" format="1">
  <advance width="638"/>
  <unicode hex="0058"/>
  <outline>
    <contour>
      <point x="505" y="23" type="line" name="hr00"/>
      <point x="511" y="15"/>
      <point x="520" y="0"/>
      <point x="546" y="0" type="curve"/>
      <point x="593" y="0" type="line"/>
      <point x="605" y="0"/>
      <point x="615" y="10"/>
      <point x="615" y="22" type="curve" smooth="yes"/>
      <point x="615" y="24"/>
      <point x="615" y="28"/>
      <point x="612" y="33" type="curve"/>
      <point x="377" y="355" type="line"/>
      <point x="600" y="667" type="line"/>
      <point x="602" y="671"/>
      <point x="603" y="673"/>
      <point x="603" y="678" type="curve" smooth="yes"/>
      <point x="603" y="690"/>
      <point x="593" y="700"/>
      <point x="581" y="700" type="curve"/>
      <point x="538" y="700" type="line"/>
      <point x="512" y="700"/>
      <point x="501" y="681"/>
      <point x="496" y="674" type="curve"/>
      <point x="322" y="431" type="line"/>
      <point x="144" y="675" type="line"/>
      <point x="139" y="682"/>
      <point x="128" y="700"/>
      <point x="102" y="700" type="curve"/>
      <point x="55" y="700" type="line"/>
      <point x="43" y="700"/>
      <point x="33" y="690"/>
      <point x="33" y="678" type="curve" smooth="yes"/>
      <point x="33" y="673"/>
      <point x="34" y="671"/>
      <point x="36" y="667" type="curve"/>
      <point x="262" y="357" type="line"/>
      <point x="26" y="33" type="line"/>
      <point x="23" y="28"/>
      <point x="23" y="24"/>
      <point x="23" y="22" type="curve" smooth="yes"/>
      <point x="23" y="10"/>
      <point x="33" y="0"/>
      <point x="45" y="0" type="curve"/>
      <point x="88" y="0" type="line"/>
      <point x="114" y="0"/>
      <point x="123" y="15"/>
      <point x="129" y="23" type="curve"/>
      <point x="317" y="281" type="line"/>
    </contour>
  </outline>
</glyph>
<glyph name="Z" format="1">
  <advance width="598"/>
  <unicode hex="005A"/>
  <outline>
    <contour>
      <point x="163" y="90" type="line" name="hr00"/>
      <point x="536" y="604" type="line" smooth="yes"/>
      <point x="543" y="613"/>
      <point x="549" y="623"/>
      <point x="549" y="637" type="curve" smooth="yes"/>
      <point x="549" y="673" type="line" smooth="yes"/>
      <point x="549" y="688"/>
      <point x="537" y="700"/>
      <point x="522" y="700" type="curve" smooth="yes"/>
      <point x="76" y="700" type="line" smooth="yes"/>
      <point x="61" y="700"/>
      <point x="49" y="688"/>
      <point x="49" y="673" type="curve" smooth="yes"/>
      <point x="49" y="637" type="line" smooth="yes"/>
      <point x="49" y="622"/>
      <point x="61" y="610"/>
      <point x="76" y="610" type="curve" smooth="yes"/>
      <point x="425" y="610" type="line"/>
      <point x="54" y="98" type="line" smooth="yes"/>
      <point x="50" y="92"/>
      <point x="39" y="80"/>
      <point x="39" y="63" type="curve" smooth="yes"/>
      <point x="39" y="27" type="line" smooth="yes"/>
      <point x="39" y="12"/>
      <point x="51" y="0"/>
      <point x="66" y="0" type="curve" smooth="yes"/>
      <point x="532" y="0" type="line" smooth="yes"/>
      <point x="547" y="0"/>
      <point x="559" y="12"/>
      <point x="559" y="27" type="curve" smooth="yes"/>
      <point x="559" y="63" type="line" smooth="yes"/>
      <point x="559" y="78"/>
      <point x="547" y="90"/>
      <point x="532" y="90" type="curve" smooth="yes"/>
    </contour>
  </outline>
</glyph>
<glyph name="bracketleft" format="1">
  <advance width="345"/>
  <unicode hex="005B"/>
  <outline>
    <contour>
      <point x="292" y="-159" type="line" smooth="yes"/>
      <point x="307" y="-159"/>
      <point x="319" y="-147"/>
      <point x="319" y="-132" type="curve" smooth="yes"/>
      <point x="319" y="-100" type="line" smooth="yes"/>
      <point x="319" y="-85"/>
      <point x="307" y="-73"/>
      <point x="292" y="-73" type="curve" smooth="yes"/>
      <point x="163" y="-73" type="line" name="hr01"/>
      <point x="163" y="690" type="line"/>
      <point x="292" y="690" type="line" smooth="yes"/>
      <point x="307" y="690"/>
      <point x="319" y="702"/>
      <point x="319" y="717" type="curve" name="hr02" smooth="yes"/>
      <point x="319" y="749" type="line" smooth="yes"/>
      <point x="319" y="764"/>
      <point x="307" y="776"/>
      <point x="292" y="776" type="curve" smooth="yes"/>
      <point x="99" y="776" type="line" smooth="yes"/>
      <point x="84" y="776"/>
      <point x="72" y="764"/>
      <point x="72" y="749" type="curve" smooth="yes"/>
      <point x="72" y="-132" type="line" smooth="yes"/>
      <point x="72" y="-147"/>
      <point x="84" y="-159"/>
      <point x="99" y="-159" type="curve" smooth="yes"/>
    </contour>
  </outline>
</glyph>
<glyph name="bracketright" format="1">
  <advance width="345"/>
  <unicode hex="005D"/>
  <outline>
    <contour>
      <point x="246" y="-159" type="line" smooth="yes"/>
      <point x="261" y="-159"/>
      <point x="273" y="-147"/>
      <point x="273" y="-132" type="curve" smooth="yes"/>
      <point x="273" y="749" type="line" smooth="yes"/>
      <point x="273" y="764"/>
      <point x="261" y="776"/>
      <point x="246" y="776" type="curve" smooth="yes"/>
      <point x="53" y="776" type="line" smooth="yes"/>
      <point x="38" y="776"/>
      <point x="26" y="764"/>
      <point x="26" y="749" type="curve" smooth="yes"/>
      <point x="26" y="717" type="line" smooth="yes"/>
      <point x="26" y="702"/>
      <point x="38" y="690"/>
      <point x="53" y="690" type="curve" smooth="yes"/>
      <point x="182" y="690" type="line" name="hr01"/>
      <point x="182" y="-73" type="line"/>
      <point x="53" y="-73" type="line" smooth="yes"/>
      <point x="38" y="-73"/>
      <point x="26" y="-85"/>
      <point x="26" y="-100" type="curve" name="hr02" smooth="yes"/>
      <point x="26" y="-132" type="line" smooth="yes"/>
      <point x="26" y="-147"/>
      <point x="38" y="-159"/>
      <point x="53" y="-159" type="curve" smooth="yes"/>
    </contour>
  </outline>
</glyph>
<glyph name="underscore" format="1">
  <advance width="747"/>
  <unicode hex="005F"/>
  <outline>
    <contour>
      <point x="661" y="-43" type="line" name="hr00" smooth="yes"/>
      <point x="676" y="-43"/>
      <point x="688" y="-31"/>
      <point x="688" y="-16" type="curve" smooth="yes"/>
      <point x="688" y="16" type="line" smooth="yes"/>
      <point x="688" y="31"/>
      <point x="676" y="43"/>
      <point x="661" y="43" type="curve" smooth="yes"/>
      <point x="86" y="43" type="line" smooth="yes"/>
      <point x="71" y="43"/>
      <point x="59" y="31"/>
      <point x="59" y="16" type="curve" smooth="yes"/>
      <point x="59" y="-16" type="line" smooth="yes"/>
      <point x="59" y="-31"/>
      <point x="71" y="-43"/>
      <point x="86" y="-43" type="curve" smooth="yes"/>
    </contour>
  </outline>
</glyph>
<glyph name="grave" format="1">
  <advance width="331"/>
  <unicode hex="0060"/>
  <outline>
    <contour>
      <point x="195" y="716" type="line" name="hr00" smooth="yes"/>
      <point x="180" y="733"/>
      <point x="173" y="735"/>
      <point x="158" y="735" type="curve" smooth="yes"/>
      <point x="84" y="735" type="line" smooth="yes"/>
      <point x="72" y="735"/>
      <point x="65" y="727"/>
      <point x="65" y="715" type="curve" smooth="yes"/>
      <point x="65" y="710"/>
      <point x="67" y="706"/>
      <point x="70" y="703" type="curve" smooth="yes"/>
      <point x="181" y="612" type="line" smooth="yes"/>
      <point x="192" y="603"/>
      <point x="202" y="595"/>
      <point x="223" y="595" type="curve" smooth="yes"/>
      <point x="260" y="595" type="line" smooth="yes"/>
      <point x="270" y="595"/>
      <point x="276" y="601"/>
      <point x="276" y="611" type="curve" smooth="yes"/>
      <point x="276" y="616"/>
      <point x="274" y="621"/>
      <point x="271" y="624" type="curve" smooth="yes"/>
    </contour>
  </outline>
</glyph>
<glyph name="a" format="1">
  <advance width="546"/>
  <unicode hex="0061"/>
  <outline>
    <contour>
      <point x="38" y="131" type="curve" smooth="yes"/>
      <point x="38" y="51"/>
      <point x="107" y="-10"/>
      <point x="212" y="-10" type="curve" smooth="yes"/>
      <point x="274" y="-10"/>
      <point x="361" y="17"/>
      <point x="384" y="68" type="curve"/>
      <point x="384" y="27" type="line" smooth="yes"/>
      <point x="384" y="12"/>
      <point x="396" y="0"/>
      <point x="411" y="0" type="curve" name="hr01" smooth="yes"/>
      <point x="448" y="0" type="line" smooth="yes"/>
      <point x="463" y="0"/>
      <point x="475" y="12"/>
      <point x="475" y="27" type="curve" smooth="yes"/>
      <point x="475" y="332" type="line" smooth="yes"/>
      <point x="475" y="460"/>
      <point x="388" y="530"/>
      <point x="267" y="530" type="curve" smooth="yes"/>
      <point x="162" y="530"/>
      <point x="78" y="463"/>
      <point x="73" y="403" type="curve" smooth="yes"/>
      <point x="72" y="388"/>
      <point x="85" y="376"/>
      <point x="100" y="376" type="curve" smooth="yes"/>
      <point x="130" y="376" type="line" smooth="yes"/>
      <point x="146" y="376"/>
      <point x="154" y="379"/>
      <point x="162" y="390" type="curve" smooth="yes"/>
      <point x="184" y="420"/>
      <point x="208" y="444"/>
      <point x="267" y="444" type="curve" name="hr02" smooth="yes"/>
      <point x="333" y="444"/>
      <point x="384" y="410"/>
      <point x="384" y="342" type="curve" smooth="yes"/>
      <point x="384" y="329" type="line"/>
      <point x="243" y="306" type="line" smooth="yes"/>
      <point x="130" y="288"/>
      <point x="38" y="238"/>
    </contour>
    <contour>
      <point x="222" y="76" type="curve" smooth="yes"/>
      <point x="153" y="76"/>
      <point x="129" y="113"/>
      <point x="129" y="141" type="curve" smooth="yes"/>
      <point x="129" y="188"/>
      <point x="183" y="217"/>
      <point x="266" y="230" type="curve" smooth="yes"/>
      <point x="384" y="249" type="line"/>
      <point x="384" y="224" type="line" smooth="yes"/>
      <point x="384" y="137"/>
      <point x="319" y="76"/>
    </contour>
  </outline>
</glyph>
<glyph name="e" format="1">
  <advance width="557"/>
  <unicode hex="0065"/>
  <outline>
    <contour>
      <point x="51" y="310" type="curve" smooth="yes"/>
      <point x="48" y="280"/>
      <point x="48" y="248"/>
      <point x="51" y="218" type="curve" smooth="yes"/>
      <point x="63" y="88"/>
      <point x="148" y="-10"/>
      <point x="280" y="-10" type="curve" smooth="yes"/>
      <point x="422" y="-10"/>
      <point x="489" y="65"/>
      <point x="496" y="113" type="curve" smooth="yes"/>
      <point x="498" y="128"/>
      <point x="484" y="140"/>
      <point x="469" y="140" type="curve" smooth="yes"/>
      <point x="439" y="140" type="line" smooth="yes"/>
      <point x="423" y="140"/>
      <point x="417" y="136"/>
      <point x="407" y="126" type="curve" smooth="yes"/>
      <point x="384" y="101"/>
      <point x="354" y="76"/>
      <point x="280" y="76" type="curve" name="hr01" smooth="yes"/>
      <point x="201" y="76"/>
      <point x="143" y="127"/>
      <point x="140" y="217" type="curve" smooth="yes"/>
      <point x="140" y="219"/>
      <point x="140" y="220"/>
      <point x="140" y="223" type="curve"/>
      <point x="484" y="223" type="line" smooth="yes"/>
      <point x="499" y="223"/>
      <point x="511" y="235"/>
      <point x="511" y="250" type="curve" smooth="yes"/>
      <point x="511" y="277" type="line" smooth="yes"/>
      <point x="511" y="432"/>
      <point x="423" y="530"/>
      <point x="280" y="530" type="curve" smooth="yes"/>
      <point x="147" y="530"/>
      <point x="63" y="432"/>
    </contour>
    <contour>
      <point x="140" y="310" type="curve"/>
      <point x="142" y="391"/>
      <point x="204" y="444"/>
      <point x="280" y="444" type="curve" smooth="yes"/>
      <point x="365" y="444"/>
      <point x="421" y="391"/>
      <point x="421" y="310" type="curve" smooth="yes"/>
      <point x="421" y="307" type="line"/>
      <point x="140" y="307" type="line"/>
      <point x="140" y="308"/>
      <point x="140" y="309"/>
    </contour>
  </outline>
</glyph>
<glyph name="g" format="1">
  <advance width="598"/>
  <unicode hex="0067"/>
  <outline>
    <contour>
      <point x="50" y="293" type="curve" smooth="yes"/>
      <point x="49" y="273"/>
      <point x="49" y="247"/>
      <point x="50" y="227" type="curve" smooth="yes"/>
      <point x="57" y="81"/>
      <point x="152" y="-10"/>
      <point x="277" y="-10" type="curve" smooth="yes"/>
      <point x="358" y="-10"/>
      <point x="405" y="22"/>
      <point x="432" y="58" type="curve"/>
      <point x="432" y="-5" type="line" smooth="yes"/>
      <point x="432" y="-102"/>
      <point x="366" y="-134"/>
      <point x="277" y="-134" type="curve" smooth="yes"/>
      <point x="181" y="-134"/>
      <point x="156" y="-87"/>
      <point x="149" y="-71" type="curve" smooth="yes"/>
      <point x="140" y="-50"/>
      <point x="131" y="-44"/>
      <point x="116" y="-44" type="curve" name="hr01" smooth="yes"/>
      <point x="86" y="-44" type="line" smooth="yes"/>
      <point x="71" y="-44"/>
      <point x="58" y="-56"/>
      <point x="59" y="-71" type="curve" smooth="yes"/>
      <point x="62" y="-134"/>
      <point x="127" y="-220"/>
      <point x="287" y="-220" type="curve" smooth="yes"/>
      <point x="445" y="-220"/>
      <point x="523" y="-131"/>
      <point x="523" y="7" type="curve" smooth="yes"/>
      <point x="523" y="493" type="line" smooth="yes"/>
      <point x="523" y="508"/>
      <point x="511" y="520"/>
      <point x="496" y="520" type="curve" smooth="yes"/>
      <point x="459" y="520" type="line" smooth="yes"/>
      <point x="444" y="520"/>
      <point x="432" y="508"/>
      <point x="432" y="493" type="curve" smooth="yes"/>
      <point x="432" y="462" type="line"/>
      <point x="407" y="495"/>
      <point x="359" y="530"/>
      <point x="277" y="530" type="curve" name="hr02" smooth="yes"/>
      <point x="152" y="530"/>
      <point x="57" y="440"/>
    </contour>
    <contour>
      <point x="432" y="296" type="curve" smooth="yes"/>
      <point x="433" y="276"/>
      <point x="433" y="244"/>
      <point x="432" y="224" type="curve" smooth="yes"/>
      <point x="428" y="131"/>
      <point x="371" y="76"/>
      <point x="287" y="76" type="curve" smooth="yes"/>
      <point x="200" y="76"/>
      <point x="146" y="136"/>
      <point x="141" y="232" type="curve" smooth="yes"/>
      <point x="140" y="252"/>
      <point x="140" y="268"/>
      <point x="141" y="288" type="curve" smooth="yes"/>
      <point x="146" y="384"/>
      <point x="200" y="444"/>
      <point x="287" y="444" type="curve" smooth="yes"/>
      <point x="371" y="444"/>
      <point x="428" y="390"/>
    </contour>
  </outline>
</glyph>
<glyph name="i" format="1">
  <advance width="241"/>
  <unicode hex="0069"/>
  <outline>
    <contour>
      <point x="166" y="493" type="line" name="hr00" smooth="yes"/>
      <point x="166" y="508"/>
      <point x="154" y="520"/>
      <point x="139" y="520" type="curve" smooth="yes"/>
      <point x="102" y="520" type="line" smooth="yes"/>
      <point x="87" y="520"/>
      <point x="75" y="508"/>
      <point x="75" y="493" type="curve" smooth="yes"/>
      <point x="75" y="27" type="line" smooth="yes"/>
      <point x="75" y="12"/>
      <point x="87" y="0"/>
      <point x="102" y="0" type="curve" smooth="yes"/>
      <point x="139" y="0" type="line" smooth="yes"/>
      <point x="154" y="0"/>
      <point x="166" y="12"/>
      <point x="166" y="27" type="curve" smooth="yes"/>
    </contour>
    <contour>
      <point x="176" y="683" type="line" smooth="yes"/>
      <point x="176" y="698"/>
      <point x="164" y="710"/>
      <point x="149" y="710" type="curve" smooth="yes"/>
      <point x="92" y="710" type="line" smooth="yes"/>
      <point x="77" y="710"/>
      <point x="65" y="698"/>
      <point x="65" y="683" type="curve" smooth="yes"/>
      <point x="65" y="626" type="line" smooth="yes"/>
      <point x="65" y="611"/>
      <point x="77" y="599"/>
      <point x="92" y="599" type="curve" smooth="yes"/>
      <point x="149" y="599" type="line" smooth="yes"/>
      <point x="164" y="599"/>
      <point x="176" y="611"/>
      <point x="176" y="626" type="curve" smooth="yes"/>
    </contour>
  </outline>
</glyph>
<glyph name="j" format="1">
  <advance width="250"/>
  <unicode hex="006A"/>
  <outline>
    <contour>
      <point x="84" y="-15" type="line" smooth="yes"/>
      <point x="84" y="-66"/>
      <point x="70" y="-104"/>
      <point x="0" y="-104" type="curve" smooth="yes"/>
      <point x="-9" y="-104" type="line" smooth="yes"/>
      <point x="-24" y="-104"/>
      <point x="-36" y="-116"/>
      <point x="-36" y="-131" type="curve" name="hr01" smooth="yes"/>
      <point x="-36" y="-163" type="line" smooth="yes"/>
      <point x="-36" y="-178"/>
      <point x="-24" y="-190"/>
      <point x="-9" y="-190" type="curve" smooth="yes"/>
      <point x="10" y="-190" type="line" smooth="yes"/>
      <point x="125" y="-190"/>
      <point x="175" y="-128"/>
      <point x="175" y="-15" type="curve" smooth="yes"/>
      <point x="175" y="493" type="line" smooth="yes"/>
      <point x="175" y="508"/>
      <point x="163" y="520"/>
      <point x="148" y="520" type="curve" smooth="yes"/>
      <point x="111" y="520" type="line" smooth="yes"/>
      <point x="96" y="520"/>
      <point x="84" y="508"/>
      <point x="84" y="493" type="curve" name="hr02" smooth="yes"/>
    </contour>
    <contour>
      <point x="185" y="683" type="line" smooth="yes"/>
      <point x="185" y="698"/>
      <point x="173" y="710"/>
      <point x="158" y="710" type="curve" smooth="yes"/>
      <point x="101" y="710" type="line" smooth="yes"/>
      <point x="86" y="710"/>
      <point x="74" y="698"/>
      <point x="74" y="683" type="curve" smooth="yes"/>
      <point x="74" y="626" type="line" smooth="yes"/>
      <point x="74" y="611"/>
      <point x="86" y="599"/>
      <point x="101" y="599" type="curve" smooth="yes"/>
      <point x="158" y="599" type="line" smooth="yes"/>
      <point x="173" y="599"/>
      <point x="185" y="611"/>
      <point x="185" y="626" type="curve" smooth="yes"/>
    </contour>
  </outline>
</glyph>
<glyph name="k" format="1">
  <advance width="511"/>
  <unicode hex="006B"/>
  <outline>
    <contour>
      <point x="386" y="17" type="line" name="hr00"/>
      <point x="393" y="11"/>
      <point x="407" y="0"/>
      <point x="427" y="0" type="curve"/>
      <point x="474" y="0" type="line"/>
      <point x="487" y="0"/>
      <point x="498" y="11"/>
      <point x="498" y="24" type="curve" smooth="yes"/>
      <point x="498" y="30"/>
      <point x="496" y="35"/>
      <point x="488" y="43" type="curve"/>
      <point x="222" y="288" type="line"/>
      <point x="463" y="476" type="line"/>
      <point x="473" y="484"/>
      <point x="474" y="490"/>
      <point x="474" y="496" type="curve" smooth="yes"/>
      <point x="474" y="509"/>
      <point x="463" y="520"/>
      <point x="450" y="520" type="curve"/>
      <point x="400" y="520" type="line"/>
      <point x="382" y="520"/>
      <point x="369" y="509"/>
      <point x="361" y="503" type="curve"/>
      <point x="166" y="352" type="line"/>
      <point x="166" y="683" type="line"/>
      <point x="166" y="698"/>
      <point x="154" y="710"/>
      <point x="139" y="710" type="curve"/>
      <point x="102" y="710" type="line"/>
      <point x="87" y="710"/>
      <point x="75" y="698"/>
      <point x="75" y="683" type="curve"/>
      <point x="75" y="27" type="line"/>
      <point x="75" y="12"/>
      <point x="87" y="0"/>
      <point x="102" y="0" type="curve"/>
      <point x="139" y="0" type="line"/>
      <point x="154" y="0"/>
      <point x="166" y="12"/>
      <point x="166" y="27" type="curve"/>
      <point x="166" y="220" type="line"/>
    </contour>
  </outline>
</glyph>
<glyph name="l" format="1">
  <advance width="241"/>
  <unicode hex="006C"/>
  <outline>
    <contour>
      <point x="166" y="683" type="line" name="hr00" smooth="yes"/>
      <point x="166" y="698"/>
      <point x="154" y="710"/>
      <point x="139" y="710" type="curve" smooth="yes"/>
      <point x="102" y="710" type="line" smooth="yes"/>
      <point x="87" y="710"/>
      <point x="75" y="698"/>
      <point x="75" y="683" type="curve" smooth="yes"/>
      <point x="75" y="27" type="line" smooth="yes"/>
      <point x="75" y="12"/>
      <point x="87" y="0"/>
      <point x="102" y="0" type="curve" smooth="yes"/>
      <point x="139" y="0" type="line" smooth="yes"/>
      <point x="154" y="0"/>
      <point x="166" y="12"/>
      <point x="166" y="27" type="curve" smooth="yes"/>
    </contour>
  </outline>
</glyph>
<glyph name="m" format="1">
  <advance width="890"/>
  <unicode hex="006D"/>
  <outline>
    <contour>
      <point x="166" y="493" type="line" smooth="yes"/>
      <point x="166" y="508"/>
      <point x="154" y="520"/>
      <point x="139" y="520" type="curve" smooth="yes"/>
      <point x="102" y="520" type="line" smooth="yes"/>
      <point x="87" y="520"/>
      <point x="75" y="508"/>
      <point x="75" y="493" type="curve" smooth="yes"/>
      <point x="75" y="27" type="line" smooth="yes"/>
      <point x="75" y="12"/>
      <point x="87" y="0"/>
      <point x="102" y="0" type="curve" smooth="yes"/>
      <point x="139" y="0" type="line" smooth="yes"/>
      <point x="154" y="0"/>
      <point x="166" y="12"/>
      <point x="166" y="27" type="curve" smooth="yes"/>
      <point x="166" y="301" type="line"/>
      <point x="166" y="398"/>
      <point x="214" y="444"/>
      <point x="284" y="444" type="curve" name="hr01" smooth="yes"/>
      <point x="361" y="444"/>
      <point x="402" y="396"/>
      <point x="402" y="294" type="curve" smooth="yes"/>
      <point x="402" y="27" type="line" smooth="yes"/>
      <point x="402" y="12"/>
      <point x="414" y="0"/>
      <point x="429" y="0" type="curve" smooth="yes"/>
      <point x="466" y="0" type="line" smooth="yes"/>
      <point x="481" y="0"/>
      <point x="493" y="12"/>
      <point x="493" y="27" type="curve" smooth="yes"/>
      <point x="493" y="301" type="line"/>
      <point x="493" y="398"/>
      <point x="541" y="444"/>
      <point x="611" y="444" type="curve" smooth="yes"/>
      <point x="688" y="444"/>
      <point x="729" y="396"/>
      <point x="729" y="294" type="curve" smooth="yes"/>
      <point x="729" y="27" type="line" smooth="yes"/>
      <point x="729" y="12"/>
      <point x="741" y="0"/>
      <point x="756" y="0" type="curve" smooth="yes"/>
      <point x="793" y="0" type="line" smooth="yes"/>
      <point x="808" y="0"/>
      <point x="820" y="12"/>
      <point x="820" y="27" type="curve" smooth="yes"/>
      <point x="820" y="304" type="line" smooth="yes"/>
      <point x="820" y="444"/>
      <point x="762" y="530"/>
      <point x="627" y="530" type="curve" smooth="yes"/>
      <point x="540" y="530"/>
      <point x="498" y="492"/>
      <point x="464" y="443" type="curve"/>
      <point x="434" y="499"/>
      <point x="381" y="530"/>
      <point x="300" y="530" type="curve" smooth="yes"/>
      <point x="226" y="530"/>
      <point x="191" y="495"/>
      <point x="166" y="462" type="curve"/>
    </contour>
  </outline>
</glyph>
<glyph name="n" format="1">
  <advance width="607"/>
  <unicode hex="006E"/>
  <outline>
    <contour>
      <point x="537" y="306" type="line" smooth="yes"/>
      <point x="537" y="446"/>
      <point x="447" y="530"/>
      <point x="321" y="530" type="curve" smooth="yes"/>
      <point x="240" y="530"/>
      <point x="191" y="495"/>
      <point x="166" y="462" type="curve"/>
      <point x="166" y="493" type="line" smooth="yes"/>
      <point x="166" y="508"/>
      <point x="154" y="520"/>
      <point x="139" y="520" type="curve" name="hr01" smooth="yes"/>
      <point x="102" y="520" type="line" smooth="yes"/>
      <point x="87" y="520"/>
      <point x="75" y="508"/>
      <point x="75" y="493" type="curve" smooth="yes"/>
      <point x="75" y="27" type="line" smooth="yes"/>
      <point x="75" y="12"/>
      <point x="87" y="0"/>
      <point x="102" y="0" type="curve" smooth="yes"/>
      <point x="139" y="0" type="line" smooth="yes"/>
      <point x="154" y="0"/>
      <point x="166" y="12"/>
      <point x="166" y="27" type="curve" smooth="yes"/>
      <point x="166" y="291" type="line" smooth="yes"/>
      <point x="166" y="393"/>
      <point x="222" y="444"/>
      <point x="306" y="444" type="curve" name="hr02" smooth="yes"/>
      <point x="393" y="444"/>
      <point x="446" y="393"/>
      <point x="446" y="291" type="curve" smooth="yes"/>
      <point x="446" y="27" type="line" smooth="yes"/>
      <point x="446" y="12"/>
      <point x="458" y="0"/>
      <point x="473" y="0" type="curve" smooth="yes"/>
      <point x="510" y="0" type="line" smooth="yes"/>
      <point x="525" y="0"/>
      <point x="537" y="12"/>
      <point x="537" y="27" type="curve" smooth="yes"/>
    </contour>
  </outline>
</glyph>
<glyph name="o" format="1">
  <advance width="577"/>
  <unicode hex="006F"/>
  <outline>
    <contour>
      <point x="288" y="530" type="curve" name="hr00" smooth="yes"/>
      <point x="145" y="530"/>
      <point x="62" y="439"/>
      <point x="51" y="307" type="curve" smooth="yes"/>
      <point x="49" y="284"/>
      <point x="49" y="234"/>
      <point x="51" y="213" type="curve" smooth="yes"/>
      <point x="63" y="81"/>
      <point x="145" y="-10"/>
      <point x="288" y="-10" type="curve" smooth="yes"/>
      <point x="431" y="-10"/>
      <point x="513" y="81"/>
      <point x="525" y="213" type="curve" smooth="yes"/>
      <point x="527" y="234"/>
      <point x="527" y="284"/>
      <point x="525" y="307" type="curve" smooth="yes"/>
      <point x="514" y="439"/>
      <point x="431" y="530"/>
    </contour>
    <contour>
      <point x="434" y="218" type="curve" smooth="yes"/>
      <point x="426" y="137"/>
      <point x="381" y="76"/>
      <point x="288" y="76" type="curve" smooth="yes"/>
      <point x="195" y="76"/>
      <point x="149" y="137"/>
      <point x="142" y="218" type="curve" smooth="yes"/>
      <point x="140" y="240"/>
      <point x="140" y="278"/>
      <point x="142" y="302" type="curve" smooth="yes"/>
      <point x="149" y="383"/>
      <point x="195" y="444"/>
      <point x="288" y="444" type="curve" smooth="yes"/>
      <point x="381" y="444"/>
      <point x="427" y="383"/>
      <point x="434" y="302" type="curve" smooth="yes"/>
      <point x="436" y="278"/>
      <point x="436" y="240"/>
    </contour>
  </outline>
</glyph>
<glyph name="p" format="1">
  <advance width="598"/>
  <unicode hex="0070"/>
  <outline>
    <contour>
      <point x="321" y="-10" type="curve" smooth="yes"/>
      <point x="446" y="-10"/>
      <point x="541" y="80"/>
      <point x="548" y="227" type="curve" smooth="yes"/>
      <point x="549" y="247"/>
      <point x="549" y="272"/>
      <point x="548" y="292" type="curve" smooth="yes"/>
      <point x="541" y="439"/>
      <point x="446" y="530"/>
      <point x="321" y="530" type="curve" smooth="yes"/>
      <point x="240" y="530"/>
      <point x="193" y="498"/>
      <point x="166" y="462" type="curve"/>
      <point x="166" y="493" type="line" smooth="yes"/>
      <point x="166" y="508"/>
      <point x="154" y="520"/>
      <point x="139" y="520" type="curve" name="hr01" smooth="yes"/>
      <point x="102" y="520" type="line" smooth="yes"/>
      <point x="87" y="520"/>
      <point x="75" y="508"/>
      <point x="75" y="493" type="curve" smooth="yes"/>
      <point x="75" y="-163" type="line" smooth="yes"/>
      <point x="75" y="-178"/>
      <point x="87" y="-190"/>
      <point x="102" y="-190" type="curve" smooth="yes"/>
      <point x="139" y="-190" type="line" smooth="yes"/>
      <point x="154" y="-190"/>
      <point x="166" y="-178"/>
      <point x="166" y="-163" type="curve" smooth="yes"/>
      <point x="166" y="58" type="line"/>
      <point x="191" y="25"/>
      <point x="239" y="-10"/>
    </contour>
    <contour>
      <point x="166" y="303" type="curve" smooth="yes"/>
      <point x="170" y="389"/>
      <point x="229" y="444"/>
      <point x="311" y="444" type="curve" name="hr02" smooth="yes"/>
      <point x="398" y="444"/>
      <point x="452" y="384"/>
      <point x="457" y="288" type="curve" smooth="yes"/>
      <point x="458" y="268"/>
      <point x="458" y="252"/>
      <point x="457" y="232" type="curve" smooth="yes"/>
      <point x="452" y="136"/>
      <point x="398" y="76"/>
      <point x="311" y="76" type="curve" smooth="yes"/>
      <point x="227" y="76"/>
      <point x="170" y="130"/>
      <point x="166" y="224" type="curve" smooth="yes"/>
      <point x="165" y="244"/>
      <point x="165" y="283"/>
    </contour>
  </outline>
</glyph>
<glyph name="q" format="1">
  <advance width="598"/>
  <unicode hex="0071"/>
  <outline>
    <contour>
      <point x="277" y="-10" type="curve" smooth="yes"/>
      <point x="359" y="-10"/>
      <point x="407" y="25"/>
      <point x="432" y="58" type="curve"/>
      <point x="432" y="-163" type="line" smooth="yes"/>
      <point x="432" y="-178"/>
      <point x="444" y="-190"/>
      <point x="459" y="-190" type="curve" smooth="yes"/>
      <point x="496" y="-190" type="line" smooth="yes"/>
      <point x="511" y="-190"/>
      <point x="523" y="-178"/>
      <point x="523" y="-163" type="curve" smooth="yes"/>
      <point x="523" y="493" type="line" smooth="yes"/>
      <point x="523" y="508"/>
      <point x="511" y="520"/>
      <point x="496" y="520" type="curve" smooth="yes"/>
      <point x="459" y="520" type="line" smooth="yes"/>
      <point x="444" y="520"/>
      <point x="432" y="508"/>
      <point x="432" y="493" type="curve" smooth="yes"/>
      <point x="432" y="462" type="line"/>
      <point x="405" y="498"/>
      <point x="358" y="530"/>
      <point x="277" y="530" type="curve" name="hr01" smooth="yes"/>
      <point x="152" y="530"/>
      <point x="57" y="439"/>
      <point x="50" y="292" type="curve" smooth="yes"/>
      <point x="49" y="272"/>
      <point x="49" y="247"/>
      <point x="50" y="227" type="curve" smooth="yes"/>
      <point x="57" y="80"/>
      <point x="152" y="-10"/>
    </contour>
    <contour>
      <point x="432" y="303" type="curve" smooth="yes"/>
      <point x="433" y="283"/>
      <point x="433" y="244"/>
      <point x="432" y="224" type="curve" smooth="yes"/>
      <point x="428" y="130"/>
      <point x="371" y="76"/>
      <point x="287" y="76" type="curve" smooth="yes"/>
      <point x="200" y="76"/>
      <point x="146" y="136"/>
      <point x="141" y="232" type="curve" smooth="yes"/>
      <point x="140" y="252"/>
      <point x="140" y="268"/>
      <point x="141" y="288" type="curve" smooth="yes"/>
      <point x="146" y="384"/>
      <point x="200" y="444"/>
      <point x="287" y="444" type="curve" smooth="yes"/>
      <point x="369" y="444"/>
      <point x="428" y="389"/>
    </contour>
  </outline>
</glyph>
<glyph name="r" format="1">
  <advance width="378"/>
  <unicode hex="0072"/>
  <outline>
    <contour>
      <point x="287" y="520" type="line" name="hr00" smooth="yes"/>
      <point x="227" y="520"/>
      <point x="192" y="502"/>
      <point x="166" y="462" type="curve"/>
      <point x="166" y="493" type="line" smooth="yes"/>
      <point x="166" y="508"/>
      <point x="154" y="520"/>
      <point x="139" y="520" type="curve" smooth="yes"/>
      <point x="102" y="520" type="line" smooth="yes"/>
      <point x="87" y="520"/>
      <point x="75" y="508"/>
      <point x="75" y="493" type="curve" smooth="yes"/>
      <point x="75" y="27" type="line" smooth="yes"/>
      <point x="75" y="12"/>
      <point x="87" y="0"/>
      <point x="102" y="0" type="curve" smooth="yes"/>
      <point x="139" y="0" type="line" smooth="yes"/>
      <point x="154" y="0"/>
      <point x="166" y="12"/>
      <point x="166" y="27" type="curve" smooth="yes"/>
      <point x="166" y="319" type="line" smooth="yes"/>
      <point x="166" y="394"/>
      <point x="206" y="434"/>
      <point x="281" y="434" type="curve" smooth="yes"/>
      <point x="339" y="434" type="line" smooth="yes"/>
      <point x="354" y="434"/>
      <point x="366" y="446"/>
      <point x="366" y="461" type="curve" smooth="yes"/>
      <point x="366" y="493" type="line" smooth="yes"/>
      <point x="366" y="508"/>
      <point x="354" y="520"/>
      <point x="339" y="520" type="curve" smooth="yes"/>
    </contour>
  </outline>
</glyph>
<glyph name="s" format="1">
  <advance width="506"/>
  <unicode hex="0073"/>
  <outline>
    <contour>
      <point x="371" y="144" type="curve" smooth="yes"/>
      <point x="371" y="104"/>
      <point x="313" y="76"/>
      <point x="253" y="76" type="curve" smooth="yes"/>
      <point x="193" y="76"/>
      <point x="157" y="93"/>
      <point x="136" y="122" type="curve" smooth="yes"/>
      <point x="127" y="135"/>
      <point x="115" y="135"/>
      <point x="107" y="135" type="curve" name="hr01" smooth="yes"/>
      <point x="71" y="135" type="line" smooth="yes"/>
      <point x="55" y="135"/>
      <point x="43" y="123"/>
      <point x="44" y="108" type="curve" smooth="yes"/>
      <point x="47" y="61"/>
      <point x="123" y="-10"/>
      <point x="253" y="-10" type="curve" smooth="yes"/>
      <point x="383" y="-10"/>
      <point x="462" y="64"/>
      <point x="462" y="144" type="curve" smooth="yes"/>
      <point x="462" y="214"/>
      <point x="423" y="270"/>
      <point x="300" y="297" type="curve" smooth="yes"/>
      <point x="183" y="323"/>
      <point x="145" y="330"/>
      <point x="145" y="380" type="curve" smooth="yes"/>
      <point x="145" y="420"/>
      <point x="187" y="444"/>
      <point x="248" y="444" type="curve" smooth="yes"/>
      <point x="308" y="444"/>
      <point x="340" y="426"/>
      <point x="357" y="404" type="curve" smooth="yes"/>
      <point x="366" y="392"/>
      <point x="379" y="390"/>
      <point x="387" y="390" type="curve" name="hr02" smooth="yes"/>
      <point x="420" y="390" type="line" smooth="yes"/>
      <point x="435" y="390"/>
      <point x="448" y="402"/>
      <point x="447" y="417" type="curve" smooth="yes"/>
      <point x="444" y="464"/>
      <point x="378" y="530"/>
      <point x="248" y="530" type="curve" smooth="yes"/>
      <point x="118" y="530"/>
      <point x="54" y="460"/>
      <point x="54" y="380" type="curve" smooth="yes"/>
      <point x="54" y="310"/>
      <point x="92" y="254"/>
      <point x="200" y="231" type="curve" smooth="yes"/>
      <point x="316" y="206"/>
      <point x="371" y="194"/>
    </contour>
  </outline>
</glyph>
<glyph name="t" format="1">
  <advance width="400"/>
  <unicode hex="0074"/>
  <outline>
    <contour>
      <point x="211" y="434" type="line"/>
      <point x="338" y="434" type="line" smooth="yes"/>
      <point x="353" y="434"/>
      <point x="365" y="446"/>
      <point x="365" y="461" type="curve" name="hr01" smooth="yes"/>
      <point x="365" y="493" type="line" smooth="yes"/>
      <point x="365" y="508"/>
      <point x="353" y="520"/>
      <point x="338" y="520" type="curve" smooth="yes"/>
      <point x="211" y="520" type="line" name="hr02"/>
      <point x="211" y="683" type="line" smooth="yes"/>
      <point x="211" y="698"/>
      <point x="199" y="710"/>
      <point x="184" y="710" type="curve" smooth="yes"/>
      <point x="147" y="710" type="line" smooth="yes"/>
      <point x="132" y="710"/>
      <point x="120" y="698"/>
      <point x="120" y="683" type="curve" smooth="yes"/>
      <point x="120" y="520" type="line"/>
      <point x="46" y="520" type="line" smooth="yes"/>
      <point x="31" y="520"/>
      <point x="19" y="508"/>
      <point x="19" y="493" type="curve" smooth="yes"/>
      <point x="19" y="461" type="line" smooth="yes"/>
      <point x="19" y="446"/>
      <point x="31" y="434"/>
      <point x="46" y="434" type="curve" smooth="yes"/>
      <point x="120" y="434" type="line"/>
      <point x="120" y="175" type="line" smooth="yes"/>
      <point x="120" y="62"/>
      <point x="170" y="0"/>
      <point x="285" y="0" type="curve" smooth="yes"/>
      <point x="348" y="0" type="line" smooth="yes"/>
      <point x="363" y="0"/>
      <point x="375" y="12"/>
      <point x="375" y="27" type="curve" smooth="yes"/>
      <point x="375" y="59" type="line" smooth="yes"/>
      <point x="375" y="74"/>
      <point x="363" y="86"/>
      <point x="348" y="86" type="curve" smooth="yes"/>
      <point x="295" y="86" type="line" smooth="yes"/>
      <point x="225" y="86"/>
      <point x="211" y="124"/>
      <point x="211" y="175" type="curve" smooth="yes"/>
    </contour>
  </outline>
</glyph>
<glyph name="v" format="1">
  <advance width="560"/>
  <unicode hex="0076"/>
  <outline>
    <contour>
      <point x="262" y="0" type="line" name="hr00" smooth="yes"/>
      <point x="245" y="0"/>
      <point x="236" y="13"/>
      <point x="231" y="25" type="curve" smooth="yes"/>
      <point x="32" y="489" type="line" smooth="yes"/>
      <point x="31" y="492"/>
      <point x="31" y="494"/>
      <point x="31" y="496" type="curve" smooth="yes"/>
      <point x="31" y="509"/>
      <point x="42" y="520"/>
      <point x="55" y="520" type="curve" smooth="yes"/>
      <point x="92" y="520" type="line" smooth="yes"/>
      <point x="112" y="520"/>
      <point x="121" y="507"/>
      <point x="125" y="496" type="curve" smooth="yes"/>
      <point x="280" y="133" type="line"/>
      <point x="435" y="496" type="line" smooth="yes"/>
      <point x="439" y="507"/>
      <point x="448" y="520"/>
      <point x="464" y="520" type="curve" smooth="yes"/>
      <point x="505" y="520" type="line" smooth="yes"/>
      <point x="518" y="520"/>
      <point x="529" y="509"/>
      <point x="529" y="496" type="curve" smooth="yes"/>
      <point x="529" y="494"/>
      <point x="529" y="492"/>
      <point x="528" y="489" type="curve" smooth="yes"/>
      <point x="329" y="25" type="line" smooth="yes"/>
      <point x="324" y="13"/>
      <point x="316" y="0"/>
      <point x="299" y="0" type="curve" smooth="yes"/>
    </contour>
  </outline>
</glyph>
<glyph name="w" format="1">
  <advance width="804"/>
  <unicode hex="0077"/>
  <outline>
    <contour>
      <point x="444" y="496" type="line" name="hr00" smooth="yes"/>
      <point x="440" y="507"/>
      <point x="433" y="520"/>
      <point x="413" y="520" type="curve" smooth="yes"/>
      <point x="391" y="520" type="line" smooth="yes"/>
      <point x="371" y="520"/>
      <point x="364" y="507"/>
      <point x="360" y="496" type="curve" smooth="yes"/>
      <point x="240" y="162" type="line"/>
      <point x="128" y="496" type="line" smooth="yes"/>
      <point x="124" y="507"/>
      <point x="114" y="520"/>
      <point x="94" y="520" type="curve" smooth="yes"/>
      <point x="61" y="520" type="line" smooth="yes"/>
      <point x="48" y="520"/>
      <point x="37" y="509"/>
      <point x="37" y="496" type="curve" smooth="yes"/>
      <point x="37" y="494"/>
      <point x="37" y="492"/>
      <point x="38" y="488" type="curve" smooth="yes"/>
      <point x="191" y="28" type="line" smooth="yes"/>
      <point x="196" y="12"/>
      <point x="204" y="0"/>
      <point x="221" y="0" type="curve" smooth="yes"/>
      <point x="252" y="0" type="line" smooth="yes"/>
      <point x="269" y="0"/>
      <point x="277" y="13"/>
      <point x="283" y="28" type="curve" smooth="yes"/>
      <point x="402" y="360" type="line"/>
      <point x="521" y="28" type="line" smooth="yes"/>
      <point x="527" y="13"/>
      <point x="535" y="0"/>
      <point x="552" y="0" type="curve" smooth="yes"/>
      <point x="583" y="0" type="line" smooth="yes"/>
      <point x="600" y="0"/>
      <point x="608" y="12"/>
      <point x="613" y="28" type="curve" smooth="yes"/>
      <point x="766" y="488" type="line" smooth="yes"/>
      <point x="767" y="492"/>
      <point x="767" y="494"/>
      <point x="767" y="496" type="curve" smooth="yes"/>
      <point x="767" y="509"/>
      <point x="756" y="520"/>
      <point x="743" y="520" type="curve" smooth="yes"/>
      <point x="710" y="520" type="line" smooth="yes"/>
      <point x="690" y="520"/>
      <point x="680" y="507"/>
      <point x="676" y="496" type="curve" smooth="yes"/>
      <point x="564" y="162" type="line"/>
    </contour>
  </outline>
</glyph>
<glyph name="x" format="1">
  <advance width="548"/>
  <unicode hex="0078"/>
  <outline>
    <contour>
      <point x="413" y="19" type="line" name="hr00" smooth="yes"/>
      <point x="418" y="13"/>
      <point x="428" y="0"/>
      <point x="445" y="0" type="curve" smooth="yes"/>
      <point x="493" y="0" type="line" smooth="yes"/>
      <point x="506" y="0"/>
      <point x="517" y="11"/>
      <point x="517" y="23" type="curve" smooth="yes"/>
      <point x="517" y="30"/>
      <point x="515" y="34"/>
      <point x="513" y="37" type="curve" smooth="yes"/>
      <point x="332" y="264" type="line"/>
      <point x="506" y="483" type="line" smooth="yes"/>
      <point x="508" y="486"/>
      <point x="510" y="490"/>
      <point x="510" y="497" type="curve" smooth="yes"/>
      <point x="510" y="509"/>
      <point x="499" y="520"/>
      <point x="486" y="520" type="curve" smooth="yes"/>
      <point x="440" y="520" type="line" smooth="yes"/>
      <point x="423" y="520"/>
      <point x="413" y="507"/>
      <point x="408" y="501" type="curve" smooth="yes"/>
      <point x="276" y="334" type="line"/>
      <point x="143" y="501" type="line" smooth="yes"/>
      <point x="138" y="507"/>
      <point x="128" y="520"/>
      <point x="111" y="520" type="curve" smooth="yes"/>
      <point x="63" y="520" type="line" smooth="yes"/>
      <point x="50" y="520"/>
      <point x="39" y="509"/>
      <point x="39" y="497" type="curve" smooth="yes"/>
      <point x="39" y="490"/>
      <point x="41" y="486"/>
      <point x="43" y="483" type="curve" smooth="yes"/>
      <point x="216" y="266" type="line"/>
      <point x="33" y="37" type="line" smooth="yes"/>
      <point x="31" y="34"/>
      <point x="29" y="30"/>
      <point x="29" y="23" type="curve" smooth="yes"/>
      <point x="29" y="11"/>
      <point x="40" y="0"/>
      <point x="53" y="0" type="curve" smooth="yes"/>
      <point x="99" y="0" type="line" smooth="yes"/>
      <point x="116" y="0"/>
      <point x="126" y="13"/>
      <point x="131" y="19" type="curve" smooth="yes"/>
      <point x="272" y="196" type="line"/>
    </contour>
  </outline>
</glyph>
<glyph name="z" format="1">
  <advance width="511"/>
  <unicode hex="007A"/>
  <outline>
    <contour>
      <point x="163" y="86" type="line" name="hr00"/>
      <point x="440" y="425" type="line"/>
      <point x="447" y="435"/>
      <point x="454" y="442"/>
      <point x="454" y="454" type="curve" smooth="yes"/>
      <point x="454" y="493" type="line" smooth="yes"/>
      <point x="454" y="508"/>
      <point x="442" y="520"/>
      <point x="427" y="520" type="curve" smooth="yes"/>
      <point x="79" y="520" type="line" smooth="yes"/>
      <point x="64" y="520"/>
      <point x="52" y="508"/>
      <point x="52" y="493" type="curve" smooth="yes"/>
      <point x="52" y="461" type="line" smooth="yes"/>
      <point x="52" y="446"/>
      <point x="64" y="434"/>
      <point x="79" y="434" type="curve" smooth="yes"/>
      <point x="331" y="434" type="line"/>
      <point x="56" y="95" type="line" smooth="yes"/>
      <point x="47" y="84"/>
      <point x="42" y="76"/>
      <point x="42" y="66" type="curve" smooth="yes"/>
      <point x="42" y="27" type="line" smooth="yes"/>
      <point x="42" y="12"/>
      <point x="54" y="0"/>
      <point x="69" y="0" type="curve" smooth="yes"/>
      <point x="447" y="0" type="line" smooth="yes"/>
      <point x="462" y="0"/>
      <point x="474" y="12"/>
      <point x="474" y="27" type="curve" smooth="yes"/>
      <point x="474" y="59" type="line" smooth="yes"/>
      <point x="474" y="74"/>
      <point x="462" y="86"/>
      <point x="447" y="86" type="curve" smooth="yes"/>
    </contour>
  </outline>
</glyph>
<glyph name="bar" format="1">
  <advance width="237"/>
  <unicode hex="007C"/>
  <outline>
    <contour>
      <point x="164" y="869" type="line" name="hr00" smooth="yes"/>
      <point x="164" y="884"/>
      <point x="152" y="896"/>
      <point x="137" y="896" type="curve" smooth="yes"/>
      <point x="100" y="896" type="line" smooth="yes"/>
      <point x="85" y="896"/>
      <point x="73" y="884"/>
      <point x="73" y="869" type="curve" smooth="yes"/>
      <point x="73" y="-181" type="line" smooth="yes"/>
      <point x="73" y="-196"/>
      <point x="85" y="-208"/>
      <point x="100" y="-208" type="curve" smooth="yes"/>
      <point x="137" y="-208" type="line" smooth="yes"/>
      <point x="152" y="-208"/>
      <point x="164" y="-196"/>
      <point x="164" y="-181" type="curve" smooth="yes"/>
    </contour>
  </outline>
</glyph>
<glyph name="asciitilde" format="1">
  <advance width="561"/>
  <unicode hex="007E"/>
  <outline>
    <contour>
      <point x="176" y="361" type="curve" smooth="yes"/>
      <point x="108" y="361"/>
      <point x="71" y="328"/>
      <point x="71" y="294" type="curve" smooth="yes"/>
      <point x="71" y="270" type="line" smooth="yes"/>
      <point x="71" y="255"/>
      <point x="74" y="243"/>
      <point x="93" y="243" type="curve"/>
      <point x="102" y="244"/>
      <point x="108" y="248"/>
      <point x="113" y="252" type="curve" smooth="yes"/>
      <point x="123" y="261"/>
      <point x="144" y="275"/>
      <point x="175" y="275" type="curve" smooth="yes"/>
      <point x="268" y="275"/>
      <point x="282" y="239"/>
      <point x="381" y="239" type="curve" name="hr01" smooth="yes"/>
      <point x="449" y="239"/>
      <point x="491" y="272"/>
      <point x="491" y="306" type="curve" smooth="yes"/>
      <point x="491" y="330" type="line" smooth="yes"/>
      <point x="491" y="345"/>
      <point x="488" y="357"/>
      <point x="469" y="357" type="curve"/>
      <point x="460" y="356"/>
      <point x="454" y="352"/>
      <point x="449" y="348" type="curve" smooth="yes"/>
      <point x="439" y="339"/>
      <point x="413" y="325"/>
      <point x="382" y="325" type="curve" smooth="yes"/>
      <point x="289" y="325"/>
      <point x="275" y="361"/>
    </contour>
  </outline>
</glyph>
<glyph name="cent" format="1">
  <advance width="562"/>
  <unicode hex="00A2"/>
  <outline>
    <contour>
      <point x="146" y="225" type="curve" name="hr00" smooth="yes"/>
      <point x="144" y="246"/>
      <point x="144" y="272"/>
      <point x="146" y="295" type="curve" smooth="yes"/>
      <point x="155" y="401"/>
      <point x="222" y="444"/>
      <point x="289" y="444" type="curve" smooth="yes"/>
      <point x="352" y="444"/>
      <point x="399" y="421"/>
      <point x="424" y="366" type="curve" smooth="yes"/>
      <point x="433" y="345"/>
      <point x="442" y="339"/>
      <point x="457" y="339" type="curve"/>
      <point x="487" y="339" type="line"/>
      <point x="502" y="339"/>
      <point x="515" y="351"/>
      <point x="514" y="366" type="curve" smooth="yes"/>
      <point x="511" y="423"/>
      <point x="449" y="511"/>
      <point x="329" y="527" type="curve"/>
      <point x="329" y="583" type="line"/>
      <point x="329" y="598"/>
      <point x="317" y="610"/>
      <point x="302" y="610" type="curve"/>
      <point x="266" y="610" type="line"/>
      <point x="251" y="610"/>
      <point x="239" y="598"/>
      <point x="239" y="583" type="curve"/>
      <point x="239" y="526" type="line"/>
      <point x="124" y="505"/>
      <point x="64" y="412"/>
      <point x="55" y="300" type="curve" smooth="yes"/>
      <point x="53" y="277"/>
      <point x="54" y="241"/>
      <point x="55" y="220" type="curve" smooth="yes"/>
      <point x="60" y="107"/>
      <point x="123" y="14"/>
      <point x="239" y="-6" type="curve"/>
      <point x="239" y="-73" type="line"/>
      <point x="239" y="-88"/>
      <point x="251" y="-100"/>
      <point x="266" y="-100" type="curve"/>
      <point x="302" y="-100" type="line"/>
      <point x="317" y="-100"/>
      <point x="329" y="-88"/>
      <point x="329" y="-73" type="curve"/>
      <point x="329" y="-7" type="line"/>
      <point x="449" y="8"/>
      <point x="511" y="97"/>
      <point x="514" y="154" type="curve" smooth="yes"/>
      <point x="515" y="169"/>
      <point x="502" y="181"/>
      <point x="487" y="181" type="curve"/>
      <point x="457" y="181" type="line"/>
      <point x="442" y="181"/>
      <point x="433" y="175"/>
      <point x="424" y="154" type="curve" smooth="yes"/>
      <point x="399" y="99"/>
      <point x="352" y="76"/>
      <point x="289" y="76" type="curve" smooth="yes"/>
      <point x="222" y="76"/>
      <point x="156" y="119"/>
    </contour>
  </outline>
</glyph>
<glyph name="sterling" format="1">
  <advance width="678"/>
  <unicode hex="00A3"/>
  <outline>
    <contour>
      <point x="227" y="434" type="curve" smooth="yes"/>
      <point x="227" y="545"/>
      <point x="272" y="620"/>
      <point x="373" y="620" type="curve" smooth="yes"/>
      <point x="472" y="620"/>
      <point x="507" y="551"/>
      <point x="523" y="484" type="curve" smooth="yes"/>
      <point x="526" y="470"/>
      <point x="538" y="462"/>
      <point x="549" y="462" type="curve" name="hr01" smooth="yes"/>
      <point x="595" y="462" type="line" smooth="yes"/>
      <point x="607" y="462"/>
      <point x="617" y="472"/>
      <point x="617" y="484" type="curve" smooth="yes"/>
      <point x="614" y="571"/>
      <point x="555" y="710"/>
      <point x="373" y="710" type="curve" smooth="yes"/>
      <point x="215" y="710"/>
      <point x="132" y="595"/>
      <point x="132" y="434" type="curve" smooth="yes"/>
      <point x="132" y="415"/>
      <point x="133" y="397"/>
      <point x="135" y="380" type="curve"/>
      <point x="68" y="380" type="line" smooth="yes"/>
      <point x="55" y="380"/>
      <point x="46" y="371"/>
      <point x="46" y="358" type="curve" smooth="yes"/>
      <point x="46" y="332" type="line" smooth="yes"/>
      <point x="46" y="319"/>
      <point x="55" y="310"/>
      <point x="68" y="310" type="curve" smooth="yes"/>
      <point x="148" y="310" type="line"/>
      <point x="156" y="269"/>
      <point x="165" y="229"/>
      <point x="166" y="187" type="curve"/>
      <point x="83" y="168"/>
      <point x="50" y="96"/>
      <point x="48" y="22" type="curve" smooth="yes"/>
      <point x="48" y="10"/>
      <point x="58" y="0"/>
      <point x="70" y="0" type="curve" smooth="yes"/>
      <point x="116" y="0" type="line" smooth="yes"/>
      <point x="127" y="0"/>
      <point x="140" y="8"/>
      <point x="142" y="22" type="curve" smooth="yes"/>
      <point x="147" y="68"/>
      <point x="166" y="104"/>
      <point x="213" y="104" type="curve" smooth="yes"/>
      <point x="290" y="104"/>
      <point x="342" y="-11"/>
      <point x="463" y="-11" type="curve" name="hr02" smooth="yes"/>
      <point x="580" y="-11"/>
      <point x="625" y="74"/>
      <point x="628" y="161" type="curve" smooth="yes"/>
      <point x="628" y="173"/>
      <point x="618" y="183"/>
      <point x="606" y="183" type="curve" smooth="yes"/>
      <point x="560" y="183" type="line" smooth="yes"/>
      <point x="549" y="183"/>
      <point x="536" y="175"/>
      <point x="534" y="161" type="curve" smooth="yes"/>
      <point x="529" y="115"/>
      <point x="510" y="78"/>
      <point x="463" y="78" type="curve" name="hr03" smooth="yes"/>
      <point x="395" y="78"/>
      <point x="349" y="162"/>
      <point x="261" y="186" type="curve"/>
      <point x="260" y="228"/>
      <point x="252" y="269"/>
      <point x="243" y="310" type="curve"/>
      <point x="431" y="310" type="line" smooth="yes"/>
      <point x="444" y="310"/>
      <point x="453" y="319"/>
      <point x="453" y="332" type="curve" smooth="yes"/>
      <point x="453" y="358" type="line" smooth="yes"/>
      <point x="453" y="371"/>
      <point x="444" y="380"/>
      <point x="431" y="380" type="curve" smooth="yes"/>
      <point x="231" y="380" type="line"/>
      <point x="228" y="398"/>
      <point x="227" y="416"/>
    </contour>
  </outline>
</glyph>
<glyph name="section" format="1">
  <advance width="568"/>
  <unicode hex="00A7"/>
  <outline>
    <contour>
      <point x="526" y="247" type="curve" smooth="yes"/>
      <point x="526" y="319"/>
      <point x="501" y="378"/>
      <point x="365" y="427" type="curve" smooth="yes"/>
      <point x="210" y="483"/>
      <point x="186" y="509"/>
      <point x="186" y="545" type="curve" smooth="yes"/>
      <point x="186" y="595"/>
      <point x="232" y="624"/>
      <point x="292" y="624" type="curve" smooth="yes"/>
      <point x="362" y="624"/>
      <point x="388" y="593"/>
      <point x="414" y="559" type="curve" smooth="yes"/>
      <point x="421" y="549"/>
      <point x="433" y="548"/>
      <point x="441" y="548" type="curve" name="hr01" smooth="yes"/>
      <point x="472" y="548" type="line" smooth="yes"/>
      <point x="488" y="548"/>
      <point x="500" y="560"/>
      <point x="499" y="575" type="curve" smooth="yes"/>
      <point x="496" y="626"/>
      <point x="431" y="710"/>
      <point x="292" y="710" type="curve" smooth="yes"/>
      <point x="162" y="710"/>
      <point x="95" y="626"/>
      <point x="95" y="545" type="curve" smooth="yes"/>
      <point x="95" y="513"/>
      <point x="101" y="487"/>
      <point x="116" y="464" type="curve"/>
      <point x="67" y="434"/>
      <point x="42" y="389"/>
      <point x="42" y="323" type="curve" name="hr02" smooth="yes"/>
      <point x="42" y="251"/>
      <point x="67" y="192"/>
      <point x="203" y="143" type="curve" smooth="yes"/>
      <point x="358" y="87"/>
      <point x="382" y="61"/>
      <point x="382" y="25" type="curve" smooth="yes"/>
      <point x="382" y="-25"/>
      <point x="336" y="-54"/>
      <point x="276" y="-54" type="curve" smooth="yes"/>
      <point x="206" y="-54"/>
      <point x="182" y="-23"/>
      <point x="156" y="11" type="curve" smooth="yes"/>
      <point x="149" y="21"/>
      <point x="137" y="22"/>
      <point x="129" y="22" type="curve" name="hr03" smooth="yes"/>
      <point x="96" y="22" type="line" smooth="yes"/>
      <point x="80" y="22"/>
      <point x="68" y="10"/>
      <point x="69" y="-5" type="curve" smooth="yes"/>
      <point x="72" y="-56"/>
      <point x="137" y="-140"/>
      <point x="276" y="-140" type="curve" smooth="yes"/>
      <point x="406" y="-140"/>
      <point x="473" y="-56"/>
      <point x="473" y="25" type="curve" smooth="yes"/>
      <point x="473" y="56"/>
      <point x="466" y="83"/>
      <point x="451" y="105" type="curve"/>
      <point x="500" y="136"/>
      <point x="526" y="180"/>
    </contour>
    <contour>
      <point x="133" y="324" type="curve" smooth="yes"/>
      <point x="133" y="361"/>
      <point x="158" y="386"/>
      <point x="190" y="404" type="curve"/>
      <point x="213" y="392"/>
      <point x="241" y="380"/>
      <point x="275" y="369" type="curve" smooth="yes"/>
      <point x="409" y="324"/>
      <point x="435" y="293"/>
      <point x="435" y="246" type="curve" smooth="yes"/>
      <point x="435" y="208"/>
      <point x="410" y="183"/>
      <point x="378" y="166" type="curve"/>
      <point x="354" y="178"/>
      <point x="326" y="189"/>
      <point x="293" y="201" type="curve"/>
      <point x="159" y="246"/>
      <point x="133" y="277"/>
    </contour>
  </outline>
</glyph>
<glyph name="dieresis" format="1">
  <advance width="422"/>
  <unicode hex="00A8"/>
  <outline>
    <contour>
      <point x="176" y="684" type="line" name="hr00" smooth="yes"/>
      <point x="176" y="699"/>
      <point x="164" y="711"/>
      <point x="149" y="711" type="curve" smooth="yes"/>
      <point x="92" y="711" type="line" smooth="yes"/>
      <point x="77" y="711"/>
      <point x="65" y="699"/>
      <point x="65" y="684" type="curve" smooth="yes"/>
      <point x="65" y="627" type="line" smooth="yes"/>
      <point x="65" y="612"/>
      <point x="77" y="600"/>
      <point x="92" y="600" type="curve" smooth="yes"/>
      <point x="149" y="600" type="line" smooth="yes"/>
      <point x="164" y="600"/>
      <point x="176" y="612"/>
      <point x="176" y="627" type="curve" smooth="yes"/>
    </contour>
    <contour>
      <point x="357" y="684" type="line" smooth="yes"/>
      <point x="357" y="699"/>
      <point x="345" y="711"/>
      <point x="330" y="711" type="curve" smooth="yes"/>
      <point x="273" y="711" type="line" smooth="yes"/>
      <point x="258" y="711"/>
      <point x="246" y="699"/>
      <point x="246" y="684" type="curve" smooth="yes"/>
      <point x="246" y="627" type="line" smooth="yes"/>
      <point x="246" y="612"/>
      <point x="258" y="600"/>
      <point x="273" y="600" type="curve" smooth="yes"/>
      <point x="330" y="600" type="line" smooth="yes"/>
      <point x="345" y="600"/>
      <point x="357" y="612"/>
      <point x="357" y="627" type="curve" smooth="yes"/>
    </contour>
  </outline>
</glyph>
<glyph name="copyright" format="1">
  <advance width="822"/>
  <unicode hex="00A9"/>
  <outline>
    <contour>
      <point x="330" y="385" type="curve" smooth="yes"/>
      <point x="332" y="426"/>
      <point x="348" y="465"/>
      <point x="411" y="465" type="curve" smooth="yes"/>
      <point x="445" y="465"/>
      <point x="470" y="455"/>
      <point x="488" y="426" type="curve" smooth="yes"/>
      <point x="494" y="417"/>
      <point x="497" y="405"/>
      <point x="511" y="405" type="curve" name="hr01" smooth="yes"/>
      <point x="554" y="405" type="line" smooth="yes"/>
      <point x="567" y="405"/>
      <point x="576" y="414"/>
      <point x="576" y="427" type="curve" smooth="yes"/>
      <point x="576" y="474"/>
      <point x="521" y="544"/>
      <point x="411" y="544" type="curve" smooth="yes"/>
      <point x="307" y="544"/>
      <point x="249" y="480"/>
      <point x="246" y="385" type="curve" smooth="yes"/>
      <point x="245" y="365"/>
      <point x="245" y="337"/>
      <point x="246" y="317" type="curve" smooth="yes"/>
      <point x="249" y="222"/>
      <point x="307" y="158"/>
      <point x="411" y="158" type="curve" smooth="yes"/>
      <point x="521" y="158"/>
      <point x="576" y="228"/>
      <point x="576" y="275" type="curve" smooth="yes"/>
      <point x="576" y="288"/>
      <point x="567" y="297"/>
      <point x="554" y="297" type="curve" smooth="yes"/>
      <point x="511" y="297" type="line" smooth="yes"/>
      <point x="497" y="297"/>
      <point x="494" y="285"/>
      <point x="488" y="276" type="curve" smooth="yes"/>
      <point x="470" y="247"/>
      <point x="445" y="237"/>
      <point x="411" y="237" type="curve" name="hr02" smooth="yes"/>
      <point x="348" y="237"/>
      <point x="332" y="276"/>
      <point x="330" y="317" type="curve" smooth="yes"/>
      <point x="329" y="337"/>
      <point x="329" y="365"/>
    </contour>
    <contour>
      <point x="51" y="350" type="curve" smooth="yes"/>
      <point x="51" y="151"/>
      <point x="212" y="-10"/>
      <point x="411" y="-10" type="curve" smooth="yes"/>
      <point x="610" y="-10"/>
      <point x="771" y="151"/>
      <point x="771" y="350" type="curve" smooth="yes"/>
      <point x="771" y="549"/>
      <point x="610" y="710"/>
      <point x="411" y="710" type="curve" smooth="yes"/>
      <point x="212" y="710"/>
      <point x="51" y="549"/>
    </contour>
    <contour>
      <point x="126" y="350" type="curve" smooth="yes"/>
      <point x="126" y="510"/>
      <point x="251" y="640"/>
      <point x="411" y="640" type="curve" smooth="yes"/>
      <point x="571" y="640"/>
      <point x="696" y="510"/>
      <point x="696" y="350" type="curve" smooth="yes"/>
      <point x="696" y="190"/>
      <point x="571" y="60"/>
      <point x="411" y="60" type="curve" smooth="yes"/>
      <point x="251" y="60"/>
      <point x="126" y="190"/>
    </contour>
  </outline>
</glyph>
<glyph name="ordfeminine" format="1">
  <advance width="365"/>
  <unicode hex="00AA"/>
  <outline>
    <contour>
      <point x="158" y="489" type="curve" smooth="yes"/>
      <point x="140" y="489"/>
      <point x="129" y="496"/>
      <point x="129" y="511" type="curve" smooth="yes"/>
      <point x="129" y="525"/>
      <point x="136" y="541"/>
      <point x="183" y="548" type="curve" smooth="yes"/>
      <point x="228" y="555" type="line"/>
      <point x="228" y="523"/>
      <point x="205" y="489"/>
    </contour>
    <contour>
      <point x="250" y="434" type="curve"/>
      <point x="278" y="434" type="line" smooth="yes"/>
      <point x="291" y="434"/>
      <point x="300" y="443"/>
      <point x="300" y="456" type="curve" smooth="yes"/>
      <point x="300" y="603" type="line" smooth="yes"/>
      <point x="300" y="667"/>
      <point x="260" y="705"/>
      <point x="187" y="705" type="curve" smooth="yes"/>
      <point x="113" y="705"/>
      <point x="72" y="661"/>
      <point x="70" y="641" type="curve" smooth="yes"/>
      <point x="69" y="628"/>
      <point x="79" y="624"/>
      <point x="92" y="624" type="curve" smooth="yes"/>
      <point x="123" y="624" type="line" smooth="yes"/>
      <point x="145" y="624"/>
      <point x="148" y="644"/>
      <point x="183" y="644" type="curve" name="hr01" smooth="yes"/>
      <point x="224" y="644"/>
      <point x="228" y="621"/>
      <point x="228" y="611" type="curve"/>
      <point x="167" y="602" type="line" smooth="yes"/>
      <point x="105" y="593"/>
      <point x="49" y="561"/>
      <point x="49" y="508" type="curve" smooth="yes"/>
      <point x="49" y="469"/>
      <point x="86" y="429"/>
      <point x="144" y="429" type="curve" smooth="yes"/>
      <point x="180" y="429"/>
      <point x="217" y="444"/>
      <point x="228" y="463" type="curve"/>
      <point x="228" y="456" type="line" smooth="yes"/>
      <point x="228" y="443"/>
      <point x="237" y="434"/>
    </contour>
  </outline>
</glyph>
<glyph name="logicalnot" format="1">
  <advance width="582"/>
  <unicode hex="00AC"/>
  <outline>
    <contour>
      <point x="416" y="164" type="line" smooth="yes"/>
      <point x="416" y="149"/>
      <point x="428" y="137"/>
      <point x="443" y="137" type="curve" smooth="yes"/>
      <point x="480" y="137" type="line" smooth="yes"/>
      <point x="495" y="137"/>
      <point x="507" y="149"/>
      <point x="507" y="164" type="curve" smooth="yes"/>
      <point x="507" y="323" type="line" smooth="yes"/>
      <point x="507" y="338"/>
      <point x="495" y="350"/>
      <point x="480" y="350" type="curve" smooth="yes"/>
      <point x="95" y="350" type="line" smooth="yes"/>
      <point x="80" y="350"/>
      <point x="68" y="338"/>
      <point x="68" y="323" type="curve" smooth="yes"/>
      <point x="68" y="291" type="line" smooth="yes"/>
      <point x="68" y="276"/>
      <point x="80" y="264"/>
      <point x="95" y="264" type="curve" name="hr01" smooth="yes"/>
      <point x="416" y="264" type="line"/>
    </contour>
  </outline>
</glyph>
<glyph name="registered" format="1">
  <advance width="822"/>
  <unicode hex="00AE"/>
  <outline>
    <contour>
      <point x="331" y="168" type="line" smooth="yes"/>
      <point x="344" y="168"/>
      <point x="353" y="177"/>
      <point x="353" y="190" type="curve" smooth="yes"/>
      <point x="353" y="292" type="line" name="hr01"/>
      <point x="421" y="292" type="line"/>
      <point x="481" y="187" type="line" smooth="yes"/>
      <point x="488" y="175"/>
      <point x="496" y="168"/>
      <point x="510" y="168" type="curve" name="hr02" smooth="yes"/>
      <point x="551" y="168" type="line" smooth="yes"/>
      <point x="566" y="168"/>
      <point x="573" y="179"/>
      <point x="573" y="190" type="curve" smooth="yes"/>
      <point x="573" y="196"/>
      <point x="571" y="201"/>
      <point x="569" y="204" type="curve" smooth="yes"/>
      <point x="509" y="307" type="line"/>
      <point x="553" y="327"/>
      <point x="568" y="367"/>
      <point x="568" y="413" type="curve" smooth="yes"/>
      <point x="568" y="479"/>
      <point x="536" y="534"/>
      <point x="430" y="534" type="curve" smooth="yes"/>
      <point x="291" y="534" type="line" smooth="yes"/>
      <point x="278" y="534"/>
      <point x="269" y="525"/>
      <point x="269" y="512" type="curve" smooth="yes"/>
      <point x="269" y="190" type="line" smooth="yes"/>
      <point x="269" y="177"/>
      <point x="278" y="168"/>
      <point x="291" y="168" type="curve" smooth="yes"/>
    </contour>
    <contour>
      <point x="353" y="455" type="line"/>
      <point x="430" y="455" type="line" smooth="yes"/>
      <point x="467" y="455"/>
      <point x="484" y="443"/>
      <point x="484" y="413" type="curve" smooth="yes"/>
      <point x="484" y="383"/>
      <point x="467" y="371"/>
      <point x="430" y="371" type="curve" smooth="yes"/>
      <point x="353" y="371" type="line"/>
    </contour>
    <contour>
      <point x="51" y="350" type="curve" smooth="yes"/>
      <point x="51" y="151"/>
      <point x="212" y="-10"/>
      <point x="411" y="-10" type="curve" smooth="yes"/>
      <point x="610" y="-10"/>
      <point x="771" y="151"/>
      <point x="771" y="350" type="curve" smooth="yes"/>
      <point x="771" y="549"/>
      <point x="610" y="710"/>
      <point x="411" y="710" type="curve" smooth="yes"/>
      <point x="212" y="710"/>
      <point x="51" y="549"/>
    </contour>
    <contour>
      <point x="126" y="350" type="curve" smooth="yes"/>
      <point x="126" y="510"/>
      <point x="251" y="640"/>
      <point x="411" y="640" type="curve" smooth="yes"/>
      <point x="571" y="640"/>
      <point x="696" y="510"/>
      <point x="696" y="350" type="curve" smooth="yes"/>
      <point x="696" y="190"/>
      <point x="571" y="60"/>
      <point x="411" y="60" type="curve" smooth="yes"/>
      <point x="251" y="60"/>
      <point x="126" y="190"/>
    </contour>
  </outline>
</glyph>
<glyph name="degree" format="1">
  <advance width="392"/>
  <unicode hex="00B0"/>
  <outline>
    <contour>
      <point x="120" y="565" type="curve" name="hr00" smooth="yes"/>
      <point x="120" y="610"/>
      <point x="151" y="641"/>
      <point x="196" y="641" type="curve" smooth="yes"/>
      <point x="241" y="641"/>
      <point x="272" y="610"/>
      <point x="272" y="565" type="curve" smooth="yes"/>
      <point x="272" y="520"/>
      <point x="241" y="489"/>
      <point x="196" y="489" type="curve" smooth="yes"/>
      <point x="151" y="489"/>
      <point x="120" y="520"/>
    </contour>
    <contour>
      <point x="45" y="565" type="curve" smooth="yes"/>
      <point x="45" y="482"/>
      <point x="113" y="419"/>
      <point x="196" y="419" type="curve" smooth="yes"/>
      <point x="279" y="419"/>
      <point x="347" y="482"/>
      <point x="347" y="565" type="curve" smooth="yes"/>
      <point x="347" y="648"/>
      <point x="279" y="711"/>
      <point x="196" y="711" type="curve" smooth="yes"/>
      <point x="113" y="711"/>
      <point x="45" y="648"/>
    </contour>
  </outline>
</glyph>
<glyph name="plusminus" format="1">
  <advance width="546"/>
  <unicode hex="00B1"/>
  <outline>
    <contour>
      <point x="445" y="0" type="line" name="hr00" smooth="yes"/>
      <point x="460" y="0"/>
      <point x="472" y="12"/>
      <point x="472" y="27" type="curve" smooth="yes"/>
      <point x="472" y="59" type="line" smooth="yes"/>
      <point x="472" y="74"/>
      <point x="460" y="86"/>
      <point x="445" y="86" type="curve" smooth="yes"/>
      <point x="101" y="86" type="line" smooth="yes"/>
      <point x="86" y="86"/>
      <point x="74" y="74"/>
      <point x="74" y="59" type="curve" smooth="yes"/>
      <point x="74" y="27" type="line" smooth="yes"/>
      <point x="74" y="12"/>
      <point x="86" y="0"/>
      <point x="101" y="0" type="curve" smooth="yes"/>
    </contour>
    <contour>
      <point x="465" y="359" type="line" smooth="yes"/>
      <point x="480" y="359"/>
      <point x="492" y="371"/>
      <point x="492" y="386" type="curve" smooth="yes"/>
      <point x="492" y="417" type="line" smooth="yes"/>
      <point x="492" y="432"/>
      <point x="480" y="444"/>
      <point x="465" y="444" type="curve" smooth="yes"/>
      <point x="318" y="444" type="line"/>
      <point x="318" y="590" type="line" smooth="yes"/>
      <point x="318" y="605"/>
      <point x="306" y="617"/>
      <point x="291" y="617" type="curve" smooth="yes"/>
      <point x="254" y="617" type="line" smooth="yes"/>
      <point x="239" y="617"/>
      <point x="227" y="605"/>
      <point x="227" y="590" type="curve" smooth="yes"/>
      <point x="227" y="444" type="line"/>
      <point x="81" y="444" type="line" smooth="yes"/>
      <point x="66" y="444"/>
      <point x="54" y="432"/>
      <point x="54" y="417" type="curve" smooth="yes"/>
      <point x="54" y="386" type="line" smooth="yes"/>
      <point x="54" y="371"/>
      <point x="66" y="359"/>
      <point x="81" y="359" type="curve" smooth="yes"/>
      <point x="227" y="359" type="line"/>
      <point x="227" y="210" type="line" smooth="yes"/>
      <point x="227" y="195"/>
      <point x="239" y="183"/>
      <point x="254" y="183" type="curve" smooth="yes"/>
      <point x="291" y="183" type="line" smooth="yes"/>
      <point x="306" y="183"/>
      <point x="318" y="195"/>
      <point x="318" y="210" type="curve" smooth="yes"/>
      <point x="318" y="359" type="line"/>
    </contour>
  </outline>
</glyph>
<glyph name="paragraph" format="1">
  <advance width="547"/>
  <unicode hex="00B6"/>
  <outline>
    <contour>
      <point x="29" y="518" type="curve" name="hr00" smooth="yes"/>
      <point x="29" y="418"/>
      <point x="111" y="336"/>
      <point x="211" y="336" type="curve"/>
      <point x="211" y="-73" type="line" smooth="yes"/>
      <point x="211" y="-88"/>
      <point x="223" y="-100"/>
      <point x="238" y="-100" type="curve" smooth="yes"/>
      <point x="275" y="-100" type="line" smooth="yes"/>
      <point x="290" y="-100"/>
      <point x="302" y="-88"/>
      <point x="302" y="-73" type="curve" smooth="yes"/>
      <point x="302" y="614" type="line"/>
      <point x="381" y="614" type="line"/>
      <point x="381" y="-73" type="line" smooth="yes"/>
      <point x="381" y="-88"/>
      <point x="393" y="-100"/>
      <point x="408" y="-100" type="curve" smooth="yes"/>
      <point x="445" y="-100" type="line" smooth="yes"/>
      <point x="460" y="-100"/>
      <point x="472" y="-88"/>
      <point x="472" y="-73" type="curve" smooth="yes"/>
      <point x="472" y="673" type="line" smooth="yes"/>
      <point x="472" y="688"/>
      <point x="460" y="700"/>
      <point x="445" y="700" type="curve" smooth="yes"/>
      <point x="211" y="700" type="line" smooth="yes"/>
      <point x="111" y="700"/>
      <point x="29" y="618"/>
    </contour>
  </outline>
</glyph>
<glyph name="cedilla" format="1">
  <advance width="311"/>
  <unicode hex="00B8"/>
  <outline>
    <contour>
      <point x="114" y="27" type="line"/>
      <point x="79" y="-53" type="line" smooth="yes"/>
      <point x="75" y="-63"/>
      <point x="70" y="-75"/>
      <point x="77" y="-83" type="curve" smooth="yes"/>
      <point x="94" y="-101" type="line" smooth="yes"/>
      <point x="109" y="-117"/>
      <point x="116" y="-99"/>
      <point x="148" y="-99" type="curve" smooth="yes"/>
      <point x="177" y="-99"/>
      <point x="191" y="-110"/>
      <point x="191" y="-134" type="curve" smooth="yes"/>
      <point x="191" y="-159"/>
      <point x="176" y="-169"/>
      <point x="148" y="-169" type="curve" smooth="yes"/>
      <point x="112" y="-169"/>
      <point x="106" y="-137"/>
      <point x="85" y="-156" type="curve" smooth="yes"/>
      <point x="71" y="-169" type="line" smooth="yes"/>
      <point x="52" y="-187"/>
      <point x="101" y="-220"/>
      <point x="148" y="-220" type="curve" smooth="yes"/>
      <point x="218" y="-220"/>
      <point x="247" y="-180"/>
      <point x="247" y="-132" type="curve" smooth="yes"/>
      <point x="247" y="-84"/>
      <point x="215" y="-48"/>
      <point x="171" y="-48" type="curve" smooth="yes"/>
      <point x="156" y="-48"/>
      <point x="144" y="-51"/>
      <point x="136" y="-56" type="curve"/>
      <point x="175" y="27" type="line" name="hr01"/>
    </contour>
  </outline>
</glyph>
<glyph name="ordmasculine" format="1">
  <advance width="356"/>
  <unicode hex="00BA"/>
  <outline>
    <contour>
      <point x="303" y="540" type="curve" name="hr00" smooth="yes"/>
      <point x="304" y="550"/>
      <point x="304" y="584"/>
      <point x="303" y="594" type="curve" smooth="yes"/>
      <point x="299" y="669"/>
      <point x="241" y="705"/>
      <point x="178" y="705" type="curve" smooth="yes"/>
      <point x="115" y="705"/>
      <point x="57" y="669"/>
      <point x="53" y="594" type="curve" smooth="yes"/>
      <point x="52" y="584"/>
      <point x="52" y="550"/>
      <point x="53" y="540" type="curve" smooth="yes"/>
      <point x="57" y="465"/>
      <point x="109" y="429"/>
      <point x="178" y="429" type="curve" smooth="yes"/>
      <point x="247" y="429"/>
      <point x="299" y="465"/>
    </contour>
    <contour>
      <point x="129" y="545" type="curve" smooth="yes"/>
      <point x="128" y="555"/>
      <point x="128" y="579"/>
      <point x="129" y="589" type="curve" smooth="yes"/>
      <point x="131" y="624"/>
      <point x="151" y="641"/>
      <point x="178" y="641" type="curve" smooth="yes"/>
      <point x="205" y="641"/>
      <point x="225" y="624"/>
      <point x="227" y="589" type="curve" smooth="yes"/>
      <point x="228" y="579"/>
      <point x="228" y="555"/>
      <point x="227" y="545" type="curve" smooth="yes"/>
      <point x="225" y="507"/>
      <point x="205" y="493"/>
      <point x="178" y="493" type="curve" smooth="yes"/>
      <point x="151" y="493"/>
      <point x="131" y="507"/>
    </contour>
  </outline>
</glyph>
<glyph name="guillemotright" format="1">
  <advance width="594"/>
  <unicode hex="00BB"/>
  <outline>
    <contour>
      <point x="302" y="357" type="line" name="hr00" smooth="yes"/>
      <point x="302" y="369"/>
      <point x="296" y="378"/>
      <point x="288" y="385" type="curve" smooth="yes"/>
      <point x="91" y="576" type="line" smooth="yes"/>
      <point x="85" y="581"/>
      <point x="78" y="581"/>
      <point x="77" y="581" type="curve" smooth="yes"/>
      <point x="65" y="581"/>
      <point x="55" y="571"/>
      <point x="55" y="559" type="curve" smooth="yes"/>
      <point x="55" y="513" type="line" smooth="yes"/>
      <point x="55" y="490"/>
      <point x="60" y="481"/>
      <point x="73" y="468" type="curve" smooth="yes"/>
      <point x="218" y="329" type="line"/>
      <point x="73" y="190" type="line" smooth="yes"/>
      <point x="60" y="177"/>
      <point x="55" y="168"/>
      <point x="55" y="145" type="curve" smooth="yes"/>
      <point x="55" y="99" type="line" smooth="yes"/>
      <point x="55" y="87"/>
      <point x="65" y="77"/>
      <point x="77" y="77" type="curve" smooth="yes"/>
      <point x="78" y="77"/>
      <point x="85" y="77"/>
      <point x="91" y="82" type="curve" smooth="yes"/>
      <point x="288" y="273" type="line" smooth="yes"/>
      <point x="296" y="280"/>
      <point x="302" y="289"/>
      <point x="302" y="301" type="curve" smooth="yes"/>
    </contour>
    <contour>
      <point x="549" y="357" type="line" smooth="yes"/>
      <point x="549" y="369"/>
      <point x="543" y="378"/>
      <point x="535" y="385" type="curve" smooth="yes"/>
      <point x="338" y="576" type="line" smooth="yes"/>
      <point x="332" y="581"/>
      <point x="325" y="581"/>
      <point x="324" y="581" type="curve" smooth="yes"/>
      <point x="312" y="581"/>
      <point x="302" y="571"/>
      <point x="302" y="559" type="curve" smooth="yes"/>
      <point x="302" y="513" type="line" smooth="yes"/>
      <point x="302" y="490"/>
      <point x="307" y="481"/>
      <point x="320" y="468" type="curve" smooth="yes"/>
      <point x="465" y="329" type="line"/>
      <point x="320" y="190" type="line" smooth="yes"/>
      <point x="307" y="177"/>
      <point x="302" y="168"/>
      <point x="302" y="145" type="curve" smooth="yes"/>
      <point x="302" y="99" type="line" smooth="yes"/>
      <point x="302" y="87"/>
      <point x="312" y="77"/>
      <point x="324" y="77" type="curve" smooth="yes"/>
      <point x="325" y="77"/>
      <point x="332" y="77"/>
      <point x="338" y="82" type="curve" smooth="yes"/>
      <point x="535" y="273" type="line" smooth="yes"/>
      <point x="543" y="280"/>
      <point x="549" y="289"/>
      <point x="549" y="301" type="curve" smooth="yes"/>
    </contour>
  </outline>
</glyph>
<glyph name="AE" format="1">
  <advance width="959"/>
  <unicode hex="00C6"/>
  <outline>
    <contour>
      <point x="548" y="90" type="line" name="hr00"/>
      <point x="548" y="309" type="line"/>
      <point x="854" y="309" type="line"/>
      <point x="869" y="309"/>
      <point x="881" y="321"/>
      <point x="881" y="336" type="curve"/>
      <point x="881" y="372" type="line"/>
      <point x="881" y="387"/>
      <point x="869" y="399"/>
      <point x="854" y="399" type="curve"/>
      <point x="548" y="399" type="line"/>
      <point x="548" y="610" type="line"/>
      <point x="876" y="610" type="line"/>
      <point x="891" y="610"/>
      <point x="903" y="622"/>
      <point x="903" y="637" type="curve"/>
      <point x="903" y="673" type="line"/>
      <point x="903" y="688"/>
      <point x="891" y="700"/>
      <point x="876" y="700" type="curve"/>
      <point x="424" y="700" type="line"/>
      <point x="397" y="700"/>
      <point x="387" y="681"/>
      <point x="379" y="667" type="curve"/>
      <point x="5" y="34" type="line"/>
      <point x="2" y="29"/>
      <point x="1" y="24"/>
      <point x="1" y="22" type="curve" smooth="yes"/>
      <point x="1" y="10"/>
      <point x="11" y="0"/>
      <point x="23" y="0" type="curve"/>
      <point x="68" y="0" type="line"/>
      <point x="90" y="0"/>
      <point x="101" y="15"/>
      <point x="107" y="25" type="curve"/>
      <point x="185" y="158" type="line"/>
      <point x="453" y="158" type="line"/>
      <point x="453" y="27" type="line"/>
      <point x="453" y="12"/>
      <point x="465" y="0"/>
      <point x="480" y="0" type="curve"/>
      <point x="884" y="0" type="line"/>
      <point x="899" y="0"/>
      <point x="911" y="12"/>
      <point x="911" y="27" type="curve"/>
      <point x="911" y="63" type="line"/>
      <point x="911" y="78"/>
      <point x="899" y="90"/>
      <point x="884" y="90" type="curve"/>
    </contour>
    <contour>
      <point x="239" y="248" type="line"/>
      <point x="453" y="610" type="line"/>
      <point x="453" y="248" type="line"/>
    </contour>
  </outline>
</glyph>
<glyph name="Ccedilla" format="1">
  <advance width="667"/>
  <unicode hex="00C7"/>
  <outline>
    <contour>
      <point x="155" y="434" type="curve" smooth="yes"/>
      <point x="159" y="545"/>
      <point x="223" y="620"/>
      <point x="342" y="620" type="curve" smooth="yes"/>
      <point x="471" y="620"/>
      <point x="512" y="551"/>
      <point x="528" y="484" type="curve" smooth="yes"/>
      <point x="531" y="470"/>
      <point x="543" y="462"/>
      <point x="554" y="462" type="curve" name="hr01"/>
      <point x="600" y="462" type="line"/>
      <point x="612" y="462"/>
      <point x="622" y="472"/>
      <point x="622" y="484" type="curve" smooth="yes"/>
      <point x="619" y="571"/>
      <point x="542" y="710"/>
      <point x="342" y="710" type="curve" smooth="yes"/>
      <point x="170" y="710"/>
      <point x="65" y="595"/>
      <point x="60" y="439" type="curve" smooth="yes"/>
      <point x="58" y="379"/>
      <point x="58" y="321"/>
      <point x="60" y="261" type="curve" smooth="yes"/>
      <point x="64" y="121"/>
      <point x="149" y="15"/>
      <point x="289" y="-6" type="curve"/>
      <point x="269" y="-53" type="line"/>
      <point x="265" y="-63"/>
      <point x="260" y="-75"/>
      <point x="267" y="-83" type="curve"/>
      <point x="284" y="-101" type="line"/>
      <point x="299" y="-117"/>
      <point x="306" y="-99"/>
      <point x="338" y="-99" type="curve" smooth="yes"/>
      <point x="367" y="-99"/>
      <point x="381" y="-110"/>
      <point x="381" y="-134" type="curve" smooth="yes"/>
      <point x="381" y="-159"/>
      <point x="366" y="-169"/>
      <point x="338" y="-169" type="curve" smooth="yes"/>
      <point x="302" y="-169"/>
      <point x="296" y="-137"/>
      <point x="275" y="-156" type="curve"/>
      <point x="261" y="-169" type="line"/>
      <point x="242" y="-187"/>
      <point x="291" y="-220"/>
      <point x="338" y="-220" type="curve" smooth="yes"/>
      <point x="408" y="-220"/>
      <point x="437" y="-180"/>
      <point x="437" y="-132" type="curve" smooth="yes"/>
      <point x="437" y="-84"/>
      <point x="405" y="-48"/>
      <point x="361" y="-48" type="curve" smooth="yes"/>
      <point x="346" y="-48"/>
      <point x="334" y="-51"/>
      <point x="326" y="-56" type="curve"/>
      <point x="347" y="-10" type="line"/>
      <point x="543" y="-7"/>
      <point x="619" y="130"/>
      <point x="622" y="216" type="curve" smooth="yes"/>
      <point x="622" y="228"/>
      <point x="612" y="238"/>
      <point x="600" y="238" type="curve"/>
      <point x="554" y="238" type="line"/>
      <point x="543" y="238"/>
      <point x="531" y="230"/>
      <point x="528" y="216" type="curve" smooth="yes"/>
      <point x="512" y="149"/>
      <point x="471" y="80"/>
      <point x="342" y="80" type="curve" name="hr02" smooth="yes"/>
      <point x="223" y="80"/>
      <point x="159" y="155"/>
      <point x="155" y="266" type="curve" smooth="yes"/>
      <point x="153" y="325"/>
      <point x="153" y="374"/>
    </contour>
  </outline>
</glyph>
<glyph name="multiply" format="1">
  <advance width="555"/>
  <unicode hex="00D7"/>
  <outline>
    <contour>
      <point x="67" y="186" type="line"/>
      <point x="56" y="176"/>
      <point x="56" y="159"/>
      <point x="67" y="148" type="curve"/>
      <point x="93" y="122" type="line"/>
      <point x="104" y="111"/>
      <point x="121" y="111"/>
      <point x="131" y="122" type="curve"/>
      <point x="277" y="268" type="line"/>
      <point x="424" y="122" type="line"/>
      <point x="434" y="111"/>
      <point x="451" y="111"/>
      <point x="462" y="122" type="curve"/>
      <point x="488" y="148" type="line"/>
      <point x="499" y="159"/>
      <point x="499" y="176"/>
      <point x="488" y="186" type="curve"/>
      <point x="341" y="332" type="line"/>
      <point x="488" y="479" type="line"/>
      <point x="499" y="489"/>
      <point x="499" y="506"/>
      <point x="488" y="517" type="curve"/>
      <point x="462" y="543" type="line"/>
      <point x="451" y="554"/>
      <point x="434" y="554"/>
      <point x="424" y="543" type="curve"/>
      <point x="277" y="396" type="line"/>
      <point x="131" y="543" type="line"/>
      <point x="121" y="554"/>
      <point x="104" y="554"/>
      <point x="93" y="543" type="curve"/>
      <point x="67" y="517" type="line"/>
      <point x="56" y="506"/>
      <point x="56" y="489"/>
      <point x="67" y="479" type="curve"/>
      <point x="213" y="332" type="line"/>
    </contour>
  </outline>
</glyph>
<glyph name="Oslash" format="1">
  <advance width="689"/>
  <unicode hex="00D8"/>
  <outline>
    <contour>
      <point x="69" y="434" type="curve" name="hr00"/>
      <point x="67" y="379"/>
      <point x="67" y="335"/>
      <point x="68" y="283" type="curve"/>
      <point x="30" y="268" type="line" smooth="yes"/>
      <point x="14" y="262"/>
      <point x="8" y="253"/>
      <point x="8" y="235" type="curve" smooth="yes"/>
      <point x="8" y="207" type="line" smooth="yes"/>
      <point x="8" y="195"/>
      <point x="17" y="186"/>
      <point x="29" y="186" type="curve" smooth="yes"/>
      <point x="31" y="186"/>
      <point x="35" y="187"/>
      <point x="40" y="189" type="curve" smooth="yes"/>
      <point x="76" y="203" type="line"/>
      <point x="102" y="79"/>
      <point x="193" y="-10"/>
      <point x="345" y="-10" type="curve" smooth="yes"/>
      <point x="521" y="-10"/>
      <point x="616" y="111"/>
      <point x="621" y="266" type="curve" smooth="yes"/>
      <point x="623" y="320"/>
      <point x="623" y="364"/>
      <point x="621" y="417" type="curve"/>
      <point x="658" y="431" type="line" smooth="yes"/>
      <point x="674" y="437"/>
      <point x="680" y="446"/>
      <point x="680" y="464" type="curve" smooth="yes"/>
      <point x="680" y="492" type="line" smooth="yes"/>
      <point x="680" y="504"/>
      <point x="671" y="513"/>
      <point x="659" y="513" type="curve" smooth="yes"/>
      <point x="657" y="513"/>
      <point x="653" y="512"/>
      <point x="648" y="510" type="curve" smooth="yes"/>
      <point x="614" y="497" type="line"/>
      <point x="589" y="620"/>
      <point x="496" y="710"/>
      <point x="345" y="710" type="curve" smooth="yes"/>
      <point x="169" y="710"/>
      <point x="72" y="589"/>
    </contour>
    <contour>
      <point x="164" y="434" type="curve"/>
      <point x="168" y="560"/>
      <point x="242" y="620"/>
      <point x="345" y="620" type="curve" smooth="yes"/>
      <point x="440" y="620"/>
      <point x="510" y="568"/>
      <point x="524" y="461" type="curve"/>
      <point x="162" y="320" type="line"/>
      <point x="162" y="357"/>
      <point x="162" y="393"/>
    </contour>
    <contour>
      <point x="526" y="266" type="curve" smooth="yes"/>
      <point x="522" y="140"/>
      <point x="448" y="80"/>
      <point x="345" y="80" type="curve" smooth="yes"/>
      <point x="250" y="80"/>
      <point x="179" y="131"/>
      <point x="166" y="238" type="curve"/>
      <point x="527" y="380" type="line"/>
      <point x="528" y="342"/>
      <point x="527" y="307"/>
    </contour>
  </outline>
</glyph>
<glyph name="Thorn" format="1">
  <advance width="644"/>
  <unicode hex="00DE"/>
  <outline>
    <contour>
      <point x="181" y="673" type="line" name="hr00"/>
      <point x="181" y="688"/>
      <point x="169" y="700"/>
      <point x="154" y="700" type="curve"/>
      <point x="113" y="700" type="line"/>
      <point x="98" y="700"/>
      <point x="86" y="688"/>
      <point x="86" y="673" type="curve"/>
      <point x="86" y="27" type="line"/>
      <point x="86" y="12"/>
      <point x="98" y="0"/>
      <point x="113" y="0" type="curve"/>
      <point x="154" y="0" type="line"/>
      <point x="169" y="0"/>
      <point x="181" y="12"/>
      <point x="181" y="27" type="curve"/>
      <point x="181" y="134" type="line"/>
      <point x="365" y="134" type="line"/>
      <point x="495" y="134"/>
      <point x="606" y="204"/>
      <point x="606" y="350" type="curve" smooth="yes"/>
      <point x="606" y="496"/>
      <point x="495" y="562"/>
      <point x="365" y="562" type="curve"/>
      <point x="181" y="562" type="line"/>
    </contour>
    <contour>
      <point x="181" y="472" type="line"/>
      <point x="360" y="472" type="line"/>
      <point x="456" y="472"/>
      <point x="511" y="435"/>
      <point x="511" y="350" type="curve" smooth="yes"/>
      <point x="511" y="265"/>
      <point x="456" y="224"/>
      <point x="360" y="224" type="curve"/>
      <point x="181" y="224" type="line"/>
    </contour>
  </outline>
</glyph>
<glyph name="germandbls" format="1">
  <advance width="586"/>
  <unicode hex="00DF"/>
  <outline>
    <contour>
      <point x="253" y="86" type="line" smooth="yes"/>
      <point x="238" y="86"/>
      <point x="226" y="74"/>
      <point x="226" y="59" type="curve" smooth="yes"/>
      <point x="226" y="27" type="line" smooth="yes"/>
      <point x="226" y="12"/>
      <point x="238" y="0"/>
      <point x="253" y="0" type="curve" smooth="yes"/>
      <point x="307" y="0" type="line" smooth="yes"/>
      <point x="479" y="0"/>
      <point x="537" y="93"/>
      <point x="537" y="214" type="curve" smooth="yes"/>
      <point x="537" y="285"/>
      <point x="509" y="339"/>
      <point x="447" y="381" type="curve"/>
      <point x="480" y="409"/>
      <point x="511" y="455"/>
      <point x="511" y="525" type="curve" name="hr01" smooth="yes"/>
      <point x="511" y="620"/>
      <point x="423" y="710"/>
      <point x="293" y="710" type="curve" smooth="yes"/>
      <point x="163" y="710"/>
      <point x="75" y="615"/>
      <point x="75" y="481" type="curve" smooth="yes"/>
      <point x="75" y="27" type="line" smooth="yes"/>
      <point x="75" y="12"/>
      <point x="87" y="0"/>
      <point x="102" y="0" type="curve" smooth="yes"/>
      <point x="139" y="0" type="line" smooth="yes"/>
      <point x="154" y="0"/>
      <point x="166" y="12"/>
      <point x="166" y="27" type="curve" smooth="yes"/>
      <point x="166" y="471" type="line" smooth="yes"/>
      <point x="166" y="573"/>
      <point x="213" y="624"/>
      <point x="293" y="624" type="curve" smooth="yes"/>
      <point x="373" y="624"/>
      <point x="420" y="580"/>
      <point x="420" y="520" type="curve" smooth="yes"/>
      <point x="420" y="465"/>
      <point x="388" y="418"/>
      <point x="298" y="418" type="curve" smooth="yes"/>
      <point x="248" y="418" type="line" smooth="yes"/>
      <point x="235" y="418"/>
      <point x="226" y="409"/>
      <point x="226" y="396" type="curve" smooth="yes"/>
      <point x="226" y="354" type="line" smooth="yes"/>
      <point x="226" y="341"/>
      <point x="235" y="332"/>
      <point x="248" y="332" type="curve" smooth="yes"/>
      <point x="303" y="332" type="line" smooth="yes"/>
      <point x="411" y="332"/>
      <point x="446" y="277"/>
      <point x="446" y="209" type="curve" name="hr02" smooth="yes"/>
      <point x="446" y="138"/>
      <point x="411" y="86"/>
      <point x="303" y="86" type="curve" smooth="yes"/>
    </contour>
  </outline>
</glyph>
<glyph name="ccedilla" format="1">
  <advance width="555"/>
  <unicode hex="00E7"/>
  <outline>
    <contour>
      <point x="142" y="225" type="curve" smooth="yes"/>
      <point x="140" y="246"/>
      <point x="140" y="272"/>
      <point x="142" y="295" type="curve" smooth="yes"/>
      <point x="151" y="401"/>
      <point x="218" y="444"/>
      <point x="285" y="444" type="curve" smooth="yes"/>
      <point x="348" y="444"/>
      <point x="395" y="421"/>
      <point x="420" y="366" type="curve" smooth="yes"/>
      <point x="429" y="345"/>
      <point x="438" y="339"/>
      <point x="453" y="339" type="curve" name="hr01"/>
      <point x="483" y="339" type="line"/>
      <point x="498" y="339"/>
      <point x="511" y="351"/>
      <point x="510" y="366" type="curve" smooth="yes"/>
      <point x="507" y="429"/>
      <point x="432" y="530"/>
      <point x="285" y="530" type="curve" smooth="yes"/>
      <point x="138" y="530"/>
      <point x="62" y="428"/>
      <point x="51" y="300" type="curve" smooth="yes"/>
      <point x="49" y="277"/>
      <point x="50" y="241"/>
      <point x="51" y="220" type="curve" smooth="yes"/>
      <point x="56" y="107"/>
      <point x="119" y="14"/>
      <point x="234" y="-6" type="curve"/>
      <point x="214" y="-53" type="line"/>
      <point x="210" y="-63"/>
      <point x="205" y="-75"/>
      <point x="212" y="-83" type="curve"/>
      <point x="229" y="-101" type="line"/>
      <point x="244" y="-117"/>
      <point x="251" y="-99"/>
      <point x="283" y="-99" type="curve" smooth="yes"/>
      <point x="312" y="-99"/>
      <point x="326" y="-110"/>
      <point x="326" y="-134" type="curve" smooth="yes"/>
      <point x="326" y="-159"/>
      <point x="311" y="-169"/>
      <point x="283" y="-169" type="curve" smooth="yes"/>
      <point x="247" y="-169"/>
      <point x="241" y="-137"/>
      <point x="220" y="-156" type="curve"/>
      <point x="206" y="-169" type="line"/>
      <point x="187" y="-187"/>
      <point x="236" y="-220"/>
      <point x="283" y="-220" type="curve" smooth="yes"/>
      <point x="353" y="-220"/>
      <point x="382" y="-180"/>
      <point x="382" y="-132" type="curve" smooth="yes"/>
      <point x="382" y="-84"/>
      <point x="350" y="-48"/>
      <point x="306" y="-48" type="curve" smooth="yes"/>
      <point x="291" y="-48"/>
      <point x="279" y="-51"/>
      <point x="271" y="-56" type="curve"/>
      <point x="292" y="-10" type="line"/>
      <point x="434" y="-6"/>
      <point x="507" y="92"/>
      <point x="510" y="154" type="curve" smooth="yes"/>
      <point x="511" y="169"/>
      <point x="498" y="181"/>
      <point x="483" y="181" type="curve"/>
      <point x="453" y="181" type="line"/>
      <point x="438" y="181"/>
      <point x="429" y="175"/>
      <point x="420" y="154" type="curve" smooth="yes"/>
      <point x="395" y="99"/>
      <point x="348" y="76"/>
      <point x="285" y="76" type="curve" name="hr02" smooth="yes"/>
      <point x="218" y="76"/>
      <point x="152" y="119"/>
    </contour>
  </outline>
</glyph>
<glyph name="eth" format="1">
  <advance width="559"/>
  <unicode hex="00F0"/>
  <outline>
    <contour>
      <point x="276" y="470" type="curve" name="hr00" smooth="yes"/>
      <point x="143" y="470"/>
      <point x="47" y="382"/>
      <point x="47" y="230" type="curve" smooth="yes"/>
      <point x="47" y="88"/>
      <point x="143" y="-10"/>
      <point x="276" y="-10" type="curve" smooth="yes"/>
      <point x="409" y="-10"/>
      <point x="505" y="88"/>
      <point x="505" y="230" type="curve" smooth="yes"/>
      <point x="505" y="400"/>
      <point x="472" y="496"/>
      <point x="412" y="574" type="curve"/>
      <point x="468" y="596" type="line"/>
      <point x="484" y="602"/>
      <point x="490" y="611"/>
      <point x="490" y="629" type="curve"/>
      <point x="490" y="657" type="line"/>
      <point x="490" y="669"/>
      <point x="481" y="678"/>
      <point x="469" y="678" type="curve" smooth="yes"/>
      <point x="467" y="678"/>
      <point x="463" y="677"/>
      <point x="458" y="675" type="curve"/>
      <point x="357" y="635" type="line"/>
      <point x="340" y="652"/>
      <point x="321" y="669"/>
      <point x="301" y="687" type="curve" smooth="yes"/>
      <point x="291" y="695"/>
      <point x="281" y="700"/>
      <point x="265" y="700" type="curve"/>
      <point x="213" y="700" type="line"/>
      <point x="201" y="700"/>
      <point x="193" y="692"/>
      <point x="193" y="680" type="curve" smooth="yes"/>
      <point x="193" y="675"/>
      <point x="196" y="669"/>
      <point x="210" y="658" type="curve" smooth="yes"/>
      <point x="233" y="639"/>
      <point x="254" y="620"/>
      <point x="274" y="602" type="curve"/>
      <point x="229" y="585" type="line"/>
      <point x="213" y="579"/>
      <point x="207" y="570"/>
      <point x="207" y="552" type="curve"/>
      <point x="207" y="524" type="line"/>
      <point x="207" y="512"/>
      <point x="216" y="503"/>
      <point x="228" y="503" type="curve" smooth="yes"/>
      <point x="230" y="503"/>
      <point x="234" y="504"/>
      <point x="239" y="506" type="curve"/>
      <point x="330" y="542" type="line"/>
      <point x="354" y="512"/>
      <point x="372" y="481"/>
      <point x="385" y="446" type="curve"/>
      <point x="353" y="461"/>
      <point x="316" y="470"/>
    </contour>
    <contour>
      <point x="276" y="384" type="curve" smooth="yes"/>
      <point x="369" y="384"/>
      <point x="414" y="321"/>
      <point x="414" y="230" type="curve" smooth="yes"/>
      <point x="414" y="139"/>
      <point x="369" y="76"/>
      <point x="276" y="76" type="curve" smooth="yes"/>
      <point x="183" y="76"/>
      <point x="138" y="139"/>
      <point x="138" y="230" type="curve" smooth="yes"/>
      <point x="138" y="321"/>
      <point x="183" y="384"/>
    </contour>
  </outline>
</glyph>
<glyph name="divide" format="1">
  <advance width="535"/>
  <unicode hex="00F7"/>
  <outline>
    <contour>
      <point x="234" y="536" type="line" name="hr00" smooth="yes"/>
      <point x="219" y="536"/>
      <point x="207" y="524"/>
      <point x="207" y="509" type="curve" smooth="yes"/>
      <point x="207" y="442" type="line" smooth="yes"/>
      <point x="207" y="427"/>
      <point x="219" y="415"/>
      <point x="234" y="415" type="curve" smooth="yes"/>
      <point x="301" y="415" type="line" smooth="yes"/>
      <point x="316" y="415"/>
      <point x="328" y="427"/>
      <point x="328" y="442" type="curve" smooth="yes"/>
      <point x="328" y="509" type="line" smooth="yes"/>
      <point x="328" y="524"/>
      <point x="316" y="536"/>
      <point x="301" y="536" type="curve" smooth="yes"/>
    </contour>
    <contour>
      <point x="234" y="186" type="line" smooth="yes"/>
      <point x="219" y="186"/>
      <point x="207" y="174"/>
      <point x="207" y="159" type="curve" smooth="yes"/>
      <point x="207" y="92" type="line" smooth="yes"/>
      <point x="207" y="77"/>
      <point x="219" y="65"/>
      <point x="234" y="65" type="curve" smooth="yes"/>
      <point x="301" y="65" type="line" smooth="yes"/>
      <point x="316" y="65"/>
      <point x="328" y="77"/>
      <point x="328" y="92" type="curve" smooth="yes"/>
      <point x="328" y="159" type="line" smooth="yes"/>
      <point x="328" y="174"/>
      <point x="316" y="186"/>
      <point x="301" y="186" type="curve" smooth="yes"/>
    </contour>
    <contour>
      <point x="455" y="257" type="line" smooth="yes"/>
      <point x="470" y="257"/>
      <point x="482" y="269"/>
      <point x="482" y="284" type="curve" smooth="yes"/>
      <point x="482" y="316" type="line" smooth="yes"/>
      <point x="482" y="331"/>
      <point x="470" y="343"/>
      <point x="455" y="343" type="curve" smooth="yes"/>
      <point x="80" y="343" type="line" smooth="yes"/>
      <point x="65" y="343"/>
      <point x="53" y="331"/>
      <point x="53" y="316" type="curve" smooth="yes"/>
      <point x="53" y="284" type="line" smooth="yes"/>
      <point x="53" y="269"/>
      <point x="65" y="257"/>
      <point x="80" y="257" type="curve" smooth="yes"/>
    </contour>
  </outline>
</glyph>
<glyph name="oslash" format="1">
  <advance width="607"/>
  <unicode hex="00F8"/>
  <outline>
    <contour>
      <point x="304" y="530" type="curve" name="hr00" smooth="yes"/>
      <point x="161" y="530"/>
      <point x="78" y="439"/>
      <point x="67" y="307" type="curve" smooth="yes"/>
      <point x="65" y="284"/>
      <point x="65" y="234"/>
      <point x="67" y="213" type="curve"/>
      <point x="67" y="209" type="line"/>
      <point x="34" y="196" type="line"/>
      <point x="18" y="190"/>
      <point x="12" y="181"/>
      <point x="12" y="163" type="curve"/>
      <point x="12" y="135" type="line"/>
      <point x="12" y="123"/>
      <point x="21" y="114"/>
      <point x="33" y="114" type="curve" smooth="yes"/>
      <point x="35" y="114"/>
      <point x="39" y="115"/>
      <point x="44" y="117" type="curve"/>
      <point x="84" y="133" type="line"/>
      <point x="117" y="45"/>
      <point x="192" y="-10"/>
      <point x="304" y="-10" type="curve" smooth="yes"/>
      <point x="447" y="-10"/>
      <point x="529" y="81"/>
      <point x="541" y="213" type="curve" smooth="yes"/>
      <point x="543" y="234"/>
      <point x="543" y="284"/>
      <point x="541" y="307" type="curve"/>
      <point x="541" y="308"/>
      <point x="540" y="310"/>
      <point x="540" y="311" type="curve"/>
      <point x="573" y="324" type="line"/>
      <point x="589" y="330"/>
      <point x="595" y="339"/>
      <point x="595" y="357" type="curve"/>
      <point x="595" y="385" type="line"/>
      <point x="595" y="397"/>
      <point x="586" y="406"/>
      <point x="574" y="406" type="curve" smooth="yes"/>
      <point x="572" y="406"/>
      <point x="568" y="405"/>
      <point x="563" y="403" type="curve"/>
      <point x="523" y="387" type="line"/>
      <point x="490" y="474"/>
      <point x="415" y="530"/>
    </contour>
    <contour>
      <point x="450" y="218" type="curve" smooth="yes"/>
      <point x="442" y="137"/>
      <point x="397" y="76"/>
      <point x="304" y="76" type="curve" smooth="yes"/>
      <point x="232" y="76"/>
      <point x="188" y="112"/>
      <point x="169" y="166" type="curve"/>
      <point x="451" y="276" type="line"/>
      <point x="452" y="256"/>
      <point x="451" y="233"/>
    </contour>
    <contour>
      <point x="158" y="302" type="curve" smooth="yes"/>
      <point x="165" y="383"/>
      <point x="211" y="444"/>
      <point x="304" y="444" type="curve" smooth="yes"/>
      <point x="375" y="444"/>
      <point x="419" y="408"/>
      <point x="439" y="354" type="curve"/>
      <point x="156" y="244" type="line"/>
      <point x="156" y="263"/>
      <point x="156" y="286"/>
    </contour>
  </outline>
</glyph>
<glyph name="aogonek" format="1">
  <advance width="546"/>
  <unicode hex="0105"/>
  <outline>
    <contour>
      <point x="38" y="131" type="curve" smooth="yes"/>
      <point x="38" y="51"/>
      <point x="107" y="-10"/>
      <point x="212" y="-10" type="curve" smooth="yes"/>
      <point x="274" y="-10"/>
      <point x="361" y="17"/>
      <point x="384" y="68" type="curve"/>
      <point x="384" y="30" type="line"/>
      <point x="355" y="11"/>
      <point x="312" y="-27"/>
      <point x="312" y="-84" type="curve" name="hr01" smooth="yes"/>
      <point x="312" y="-169"/>
      <point x="361" y="-220"/>
      <point x="442" y="-220" type="curve" smooth="yes"/>
      <point x="452" y="-220" type="line" smooth="yes"/>
      <point x="465" y="-220"/>
      <point x="474" y="-211"/>
      <point x="474" y="-198" type="curve" smooth="yes"/>
      <point x="474" y="-170" type="line" smooth="yes"/>
      <point x="474" y="-157"/>
      <point x="465" y="-148"/>
      <point x="452" y="-148" type="curve" smooth="yes"/>
      <point x="446" y="-148" type="line" smooth="yes"/>
      <point x="412" y="-148"/>
      <point x="393" y="-125"/>
      <point x="393" y="-84" type="curve" smooth="yes"/>
      <point x="393" y="-36"/>
      <point x="438" y="-24"/>
      <point x="466" y="0" type="curve" smooth="yes"/>
      <point x="472" y="5"/>
      <point x="475" y="10"/>
      <point x="475" y="20" type="curve" name="hr02" smooth="yes"/>
      <point x="475" y="332" type="line" smooth="yes"/>
      <point x="475" y="460"/>
      <point x="388" y="530"/>
      <point x="267" y="530" type="curve" smooth="yes"/>
      <point x="162" y="530"/>
      <point x="78" y="463"/>
      <point x="73" y="403" type="curve" smooth="yes"/>
      <point x="72" y="388"/>
      <point x="85" y="376"/>
      <point x="100" y="376" type="curve" smooth="yes"/>
      <point x="130" y="376" type="line" smooth="yes"/>
      <point x="146" y="376"/>
      <point x="154" y="379"/>
      <point x="162" y="390" type="curve" smooth="yes"/>
      <point x="184" y="420"/>
      <point x="208" y="444"/>
      <point x="267" y="444" type="curve" name="hr03" smooth="yes"/>
      <point x="333" y="444"/>
      <point x="384" y="410"/>
      <point x="384" y="342" type="curve" smooth="yes"/>
      <point x="384" y="329" type="line"/>
      <point x="243" y="306" type="line" smooth="yes"/>
      <point x="130" y="288"/>
      <point x="38" y="238"/>
    </contour>
    <contour>
      <point x="222" y="76" type="curve" smooth="yes"/>
      <point x="153" y="76"/>
      <point x="129" y="113"/>
      <point x="129" y="141" type="curve" smooth="yes"/>
      <point x="129" y="188"/>
      <point x="183" y="217"/>
      <point x="266" y="230" type="curve" smooth="yes"/>
      <point x="384" y="249" type="line"/>
      <point x="384" y="224" type="line" smooth="yes"/>
      <point x="384" y="137"/>
      <point x="319" y="76"/>
    </contour>
  </outline>
</glyph>
<glyph name="Dcroat" format="1">
  <advance width="702"/>
  <unicode hex="0110"/>
  <outline>
    <contour>
      <point x="643" y="429" type="curve" name="hr00" smooth="yes"/>
      <point x="640" y="598"/>
      <point x="522" y="700"/>
      <point x="356" y="700" type="curve" smooth="yes"/>
      <point x="127" y="700" type="line" smooth="yes"/>
      <point x="112" y="700"/>
      <point x="100" y="688"/>
      <point x="100" y="673" type="curve" smooth="yes"/>
      <point x="100" y="397" type="line"/>
      <point x="42" y="397" type="line" smooth="yes"/>
      <point x="27" y="397"/>
      <point x="15" y="385"/>
      <point x="15" y="370" type="curve" smooth="yes"/>
      <point x="15" y="339" type="line" smooth="yes"/>
      <point x="15" y="324"/>
      <point x="27" y="312"/>
      <point x="42" y="312" type="curve" smooth="yes"/>
      <point x="100" y="312" type="line"/>
      <point x="100" y="27" type="line" smooth="yes"/>
      <point x="100" y="12"/>
      <point x="112" y="0"/>
      <point x="127" y="0" type="curve" smooth="yes"/>
      <point x="362" y="0" type="line" smooth="yes"/>
      <point x="527" y="0"/>
      <point x="640" y="102"/>
      <point x="643" y="271" type="curve" smooth="yes"/>
      <point x="644" y="331"/>
      <point x="644" y="369"/>
    </contour>
    <contour>
      <point x="548" y="424" type="curve" smooth="yes"/>
      <point x="549" y="364"/>
      <point x="549" y="336"/>
      <point x="548" y="276" type="curve" smooth="yes"/>
      <point x="546" y="180"/>
      <point x="501" y="90"/>
      <point x="357" y="90" type="curve" smooth="yes"/>
      <point x="195" y="90" type="line"/>
      <point x="195" y="312" type="line"/>
      <point x="330" y="312" type="line" smooth="yes"/>
      <point x="345" y="312"/>
      <point x="357" y="324"/>
      <point x="357" y="339" type="curve" smooth="yes"/>
      <point x="357" y="370" type="line" smooth="yes"/>
      <point x="357" y="385"/>
      <point x="345" y="397"/>
      <point x="330" y="397" type="curve" smooth="yes"/>
      <point x="195" y="397" type="line"/>
      <point x="195" y="610" type="line"/>
      <point x="352" y="610" type="line" smooth="yes"/>
      <point x="496" y="610"/>
      <point x="546" y="520"/>
    </contour>
  </outline>
</glyph>
<glyph name="dcroat" format="1">
  <advance width="598"/>
  <unicode hex="0111"/>
  <outline>
    <contour>
      <point x="277" y="530" type="curve" smooth="yes"/>
      <point x="152" y="530"/>
      <point x="57" y="440"/>
      <point x="50" y="293" type="curve" smooth="yes"/>
      <point x="49" y="273"/>
      <point x="49" y="248"/>
      <point x="50" y="228" type="curve" smooth="yes"/>
      <point x="57" y="81"/>
      <point x="152" y="-10"/>
      <point x="277" y="-10" type="curve" smooth="yes"/>
      <point x="358" y="-10"/>
      <point x="405" y="22"/>
      <point x="432" y="58" type="curve"/>
      <point x="432" y="27" type="line" smooth="yes"/>
      <point x="432" y="12"/>
      <point x="444" y="0"/>
      <point x="459" y="0" type="curve" name="hr01" smooth="yes"/>
      <point x="496" y="0" type="line" smooth="yes"/>
      <point x="511" y="0"/>
      <point x="523" y="12"/>
      <point x="523" y="27" type="curve" smooth="yes"/>
      <point x="523" y="565" type="line"/>
      <point x="581" y="565" type="line" smooth="yes"/>
      <point x="594" y="565"/>
      <point x="603" y="574"/>
      <point x="603" y="587" type="curve" smooth="yes"/>
      <point x="603" y="613" type="line" smooth="yes"/>
      <point x="603" y="626"/>
      <point x="594" y="635"/>
      <point x="581" y="635" type="curve" smooth="yes"/>
      <point x="523" y="635" type="line"/>
      <point x="523" y="683" type="line" smooth="yes"/>
      <point x="523" y="698"/>
      <point x="511" y="710"/>
      <point x="496" y="710" type="curve" smooth="yes"/>
      <point x="459" y="710" type="line" smooth="yes"/>
      <point x="444" y="710"/>
      <point x="432" y="698"/>
      <point x="432" y="683" type="curve" smooth="yes"/>
      <point x="432" y="635" type="line"/>
      <point x="374" y="635" type="line" smooth="yes"/>
      <point x="361" y="635"/>
      <point x="352" y="626"/>
      <point x="352" y="613" type="curve" smooth="yes"/>
      <point x="352" y="587" type="line" smooth="yes"/>
      <point x="352" y="574"/>
      <point x="361" y="565"/>
      <point x="374" y="565" type="curve" smooth="yes"/>
      <point x="432" y="565" type="line"/>
      <point x="432" y="462" type="line"/>
      <point x="407" y="495"/>
      <point x="359" y="530"/>
    </contour>
    <contour>
      <point x="432" y="217" type="curve" smooth="yes"/>
      <point x="428" y="131"/>
      <point x="369" y="76"/>
      <point x="287" y="76" type="curve" name="hr02" smooth="yes"/>
      <point x="200" y="76"/>
      <point x="146" y="136"/>
      <point x="141" y="232" type="curve" smooth="yes"/>
      <point x="140" y="252"/>
      <point x="140" y="268"/>
      <point x="141" y="288" type="curve" smooth="yes"/>
      <point x="146" y="384"/>
      <point x="200" y="444"/>
      <point x="287" y="444" type="curve" smooth="yes"/>
      <point x="371" y="444"/>
      <point x="428" y="390"/>
      <point x="432" y="296" type="curve" smooth="yes"/>
      <point x="433" y="276"/>
      <point x="433" y="237"/>
    </contour>
  </outline>
</glyph>
<glyph name="Eogonek" format="1">
  <advance width="592"/>
  <unicode hex="0118"/>
  <outline>
    <contour>
      <point x="522" y="-220" type="line" smooth="yes"/>
      <point x="535" y="-220"/>
      <point x="544" y="-211"/>
      <point x="544" y="-198" type="curve" smooth="yes"/>
      <point x="544" y="-170" type="line" smooth="yes"/>
      <point x="544" y="-157"/>
      <point x="535" y="-148"/>
      <point x="522" y="-148" type="curve" smooth="yes"/>
      <point x="507" y="-148" type="line" smooth="yes"/>
      <point x="463" y="-148"/>
      <point x="441" y="-125"/>
      <point x="441" y="-74" type="curve" name="hr01" smooth="yes"/>
      <point x="441" y="-23"/>
      <point x="463" y="0"/>
      <point x="507" y="0" type="curve" smooth="yes"/>
      <point x="517" y="0" type="line" smooth="yes"/>
      <point x="532" y="0"/>
      <point x="544" y="12"/>
      <point x="544" y="27" type="curve" name="hr02" smooth="yes"/>
      <point x="544" y="63" type="line" smooth="yes"/>
      <point x="544" y="78"/>
      <point x="532" y="90"/>
      <point x="517" y="90" type="curve" smooth="yes"/>
      <point x="181" y="90" type="line"/>
      <point x="181" y="309" type="line"/>
      <point x="487" y="309" type="line" smooth="yes"/>
      <point x="502" y="309"/>
      <point x="514" y="321"/>
      <point x="514" y="336" type="curve" smooth="yes"/>
      <point x="514" y="372" type="line" smooth="yes"/>
      <point x="514" y="387"/>
      <point x="502" y="399"/>
      <point x="487" y="399" type="curve" smooth="yes"/>
      <point x="181" y="399" type="line"/>
      <point x="181" y="610" type="line"/>
      <point x="509" y="610" type="line" smooth="yes"/>
      <point x="524" y="610"/>
      <point x="536" y="622"/>
      <point x="536" y="637" type="curve" smooth="yes"/>
      <point x="536" y="673" type="line" smooth="yes"/>
      <point x="536" y="688"/>
      <point x="524" y="700"/>
      <point x="509" y="700" type="curve" smooth="yes"/>
      <point x="113" y="700" type="line" smooth="yes"/>
      <point x="98" y="700"/>
      <point x="86" y="688"/>
      <point x="86" y="673" type="curve" smooth="yes"/>
      <point x="86" y="27" type="line" smooth="yes"/>
      <point x="86" y="12"/>
      <point x="98" y="0"/>
      <point x="113" y="0" type="curve" smooth="yes"/>
      <point x="375" y="0" type="line"/>
      <point x="365" y="-20"/>
      <point x="360" y="-45"/>
      <point x="360" y="-74" type="curve" smooth="yes"/>
      <point x="360" y="-169"/>
      <point x="422" y="-220"/>
      <point x="503" y="-220" type="curve" smooth="yes"/>
    </contour>
  </outline>
</glyph>
<glyph name="Hbar" format="1">
  <advance width="728"/>
  <unicode hex="0126"/>
  <outline>
    <contour>
      <point x="567" y="700" type="line" name="hr00" smooth="yes"/>
      <point x="552" y="700"/>
      <point x="540" y="688"/>
      <point x="540" y="673" type="curve" smooth="yes"/>
      <point x="540" y="594" type="line"/>
      <point x="188" y="594" type="line"/>
      <point x="188" y="673" type="line" smooth="yes"/>
      <point x="188" y="688"/>
      <point x="176" y="700"/>
      <point x="161" y="700" type="curve" smooth="yes"/>
      <point x="120" y="700" type="line" smooth="yes"/>
      <point x="105" y="700"/>
      <point x="93" y="688"/>
      <point x="93" y="673" type="curve" smooth="yes"/>
      <point x="93" y="594" type="line"/>
      <point x="50" y="594" type="line" smooth="yes"/>
      <point x="35" y="594"/>
      <point x="23" y="582"/>
      <point x="23" y="567" type="curve" smooth="yes"/>
      <point x="23" y="531" type="line" smooth="yes"/>
      <point x="23" y="516"/>
      <point x="35" y="504"/>
      <point x="50" y="504" type="curve" smooth="yes"/>
      <point x="93" y="504" type="line"/>
      <point x="93" y="27" type="line" smooth="yes"/>
      <point x="93" y="11"/>
      <point x="105" y="0"/>
      <point x="120" y="0" type="curve" smooth="yes"/>
      <point x="161" y="0" type="line" smooth="yes"/>
      <point x="176" y="0"/>
      <point x="188" y="12"/>
      <point x="188" y="27" type="curve" smooth="yes"/>
      <point x="188" y="309" type="line"/>
      <point x="540" y="309" type="line"/>
      <point x="540" y="27" type="line" smooth="yes"/>
      <point x="540" y="12"/>
      <point x="552" y="0"/>
      <point x="567" y="0" type="curve" smooth="yes"/>
      <point x="608" y="0" type="line" smooth="yes"/>
      <point x="623" y="0"/>
      <point x="635" y="12"/>
      <point x="635" y="27" type="curve" smooth="yes"/>
      <point x="635" y="504" type="line"/>
      <point x="678" y="504" type="line" smooth="yes"/>
      <point x="693" y="504"/>
      <point x="705" y="516"/>
      <point x="705" y="531" type="curve" smooth="yes"/>
      <point x="705" y="567" type="line" smooth="yes"/>
      <point x="705" y="582"/>
      <point x="693" y="594"/>
      <point x="678" y="594" type="curve" smooth="yes"/>
      <point x="635" y="594" type="line"/>
      <point x="635" y="673" type="line" smooth="yes"/>
      <point x="635" y="688"/>
      <point x="623" y="700"/>
      <point x="608" y="700" type="curve" smooth="yes"/>
    </contour>
    <contour>
      <point x="188" y="399" type="line"/>
      <point x="188" y="504" type="line"/>
      <point x="540" y="504" type="line"/>
      <point x="540" y="399" type="line"/>
    </contour>
  </outline>
</glyph>
<glyph name="Iogonek" format="1">
  <advance width="285"/>
  <unicode hex="012E"/>
  <outline>
    <contour>
      <point x="172" y="0" type="line" name="hr00"/>
      <point x="187" y="0"/>
      <point x="199" y="12"/>
      <point x="199" y="27" type="curve"/>
      <point x="199" y="673" type="line"/>
      <point x="199" y="688"/>
      <point x="187" y="700"/>
      <point x="172" y="700" type="curve"/>
      <point x="131" y="700" type="line"/>
      <point x="116" y="700"/>
      <point x="104" y="688"/>
      <point x="104" y="673" type="curve"/>
      <point x="104" y="63" type="line"/>
      <point x="51" y="45"/>
      <point x="15" y="-1"/>
      <point x="15" y="-74" type="curve" smooth="yes"/>
      <point x="15" y="-169"/>
      <point x="77" y="-220"/>
      <point x="158" y="-220" type="curve"/>
      <point x="177" y="-220" type="line"/>
      <point x="190" y="-220"/>
      <point x="199" y="-211"/>
      <point x="199" y="-198" type="curve"/>
      <point x="199" y="-170" type="line"/>
      <point x="199" y="-157"/>
      <point x="190" y="-148"/>
      <point x="177" y="-148" type="curve"/>
      <point x="162" y="-148" type="line"/>
      <point x="118" y="-148"/>
      <point x="96" y="-125"/>
      <point x="96" y="-74" type="curve" smooth="yes"/>
      <point x="96" y="-25"/>
      <point x="116" y="-2"/>
      <point x="155" y="0" type="curve"/>
    </contour>
  </outline>
</glyph>
<glyph name="iogonek" format="1">
  <advance width="268"/>
  <unicode hex="012F"/>
  <outline>
    <contour>
      <point x="193" y="493" type="line"/>
      <point x="193" y="508"/>
      <point x="181" y="520"/>
      <point x="166" y="520" type="curve"/>
      <point x="129" y="520" type="line"/>
      <point x="114" y="520"/>
      <point x="102" y="508"/>
      <point x="102" y="493" type="curve"/>
      <point x="102" y="65" type="line"/>
      <point x="47" y="48"/>
      <point x="9" y="0"/>
      <point x="9" y="-74" type="curve" smooth="yes"/>
      <point x="9" y="-169"/>
      <point x="71" y="-220"/>
      <point x="152" y="-220" type="curve"/>
      <point x="171" y="-220" type="line"/>
      <point x="184" y="-220"/>
      <point x="193" y="-211"/>
      <point x="193" y="-198" type="curve"/>
      <point x="193" y="-170" type="line"/>
      <point x="193" y="-157"/>
      <point x="184" y="-148"/>
      <point x="171" y="-148" type="curve"/>
      <point x="156" y="-148" type="line"/>
      <point x="112" y="-148"/>
      <point x="90" y="-125"/>
      <point x="90" y="-74" type="curve" smooth="yes"/>
      <point x="90" y="-25"/>
      <point x="110" y="-2"/>
      <point x="149" y="0" type="curve"/>
      <point x="166" y="0" type="line"/>
      <point x="181" y="0"/>
      <point x="193" y="12"/>
      <point x="193" y="27" type="curve"/>
    </contour>
    <contour>
      <point x="200" y="683" type="line" smooth="yes"/>
      <point x="200" y="698"/>
      <point x="188" y="710"/>
      <point x="173" y="710" type="curve" smooth="yes"/>
      <point x="116" y="710" type="line" smooth="yes"/>
      <point x="101" y="710"/>
      <point x="89" y="698"/>
      <point x="89" y="683" type="curve" name="hr01" smooth="yes"/>
      <point x="89" y="626" type="line" smooth="yes"/>
      <point x="89" y="611"/>
      <point x="101" y="599"/>
      <point x="116" y="599" type="curve" smooth="yes"/>
      <point x="173" y="599" type="line" smooth="yes"/>
      <point x="188" y="599"/>
      <point x="200" y="611"/>
      <point x="200" y="626" type="curve" smooth="yes"/>
    </contour>
  </outline>
</glyph>
<glyph name="dotlessi" format="1">
  <advance width="241"/>
  <unicode hex="0131"/>
  <outline>
    <contour>
      <point x="166" y="493" type="line" name="hr00" smooth="yes"/>
      <point x="166" y="508"/>
      <point x="154" y="520"/>
      <point x="139" y="520" type="curve" smooth="yes"/>
      <point x="102" y="520" type="line" smooth="yes"/>
      <point x="87" y="520"/>
      <point x="75" y="508"/>
      <point x="75" y="493" type="curve" smooth="yes"/>
      <point x="75" y="27" type="line" smooth="yes"/>
      <point x="75" y="12"/>
      <point x="87" y="0"/>
      <point x="102" y="0" type="curve" smooth="yes"/>
      <point x="139" y="0" type="line" smooth="yes"/>
      <point x="154" y="0"/>
      <point x="166" y="12"/>
      <point x="166" y="27" type="curve" smooth="yes"/>
    </contour>
  </outline>
</glyph>
<glyph name="kgreenlandic" format="1">
  <advance width="512"/>
  <unicode hex="0138"/>
  <outline>
    <contour>
      <point x="166" y="493" type="line" name="hr00"/>
      <point x="166" y="508"/>
      <point x="154" y="520"/>
      <point x="139" y="520" type="curve"/>
      <point x="102" y="520" type="line"/>
      <point x="87" y="520"/>
      <point x="75" y="508"/>
      <point x="75" y="493" type="curve"/>
      <point x="75" y="27" type="line"/>
      <point x="75" y="12"/>
      <point x="87" y="0"/>
      <point x="102" y="0" type="curve"/>
      <point x="139" y="0" type="line"/>
      <point x="154" y="0"/>
      <point x="166" y="12"/>
      <point x="166" y="27" type="curve"/>
      <point x="166" y="195" type="line"/>
      <point x="381" y="17" type="line"/>
      <point x="388" y="11"/>
      <point x="402" y="0"/>
      <point x="422" y="0" type="curve"/>
      <point x="475" y="0" type="line"/>
      <point x="488" y="0"/>
      <point x="499" y="11"/>
      <point x="499" y="24" type="curve" smooth="yes"/>
      <point x="499" y="30"/>
      <point x="495" y="38"/>
      <point x="489" y="43" type="curve"/>
      <point x="222" y="264" type="line"/>
      <point x="464" y="476" type="line"/>
      <point x="474" y="484"/>
      <point x="475" y="490"/>
      <point x="475" y="496" type="curve" smooth="yes"/>
      <point x="475" y="509"/>
      <point x="464" y="520"/>
      <point x="451" y="520" type="curve"/>
      <point x="408" y="520" type="line"/>
      <point x="390" y="520"/>
      <point x="377" y="510"/>
      <point x="369" y="503" type="curve"/>
      <point x="166" y="327" type="line"/>
    </contour>
  </outline>
</glyph>
<glyph name="Lslash" format="1">
  <advance width="579"/>
  <unicode hex="0141"/>
  <outline>
    <contour>
      <point x="194" y="90" type="line"/>
      <point x="194" y="306" type="line"/>
      <point x="356" y="370" type="line" smooth="yes"/>
      <point x="372" y="376"/>
      <point x="378" y="385"/>
      <point x="378" y="403" type="curve" smooth="yes"/>
      <point x="378" y="431" type="line" smooth="yes"/>
      <point x="378" y="443"/>
      <point x="369" y="452"/>
      <point x="357" y="452" type="curve" smooth="yes"/>
      <point x="355" y="452"/>
      <point x="351" y="451"/>
      <point x="346" y="449" type="curve" smooth="yes"/>
      <point x="194" y="389" type="line"/>
      <point x="194" y="673" type="line" smooth="yes"/>
      <point x="194" y="688"/>
      <point x="182" y="700"/>
      <point x="167" y="700" type="curve" smooth="yes"/>
      <point x="126" y="700" type="line" smooth="yes"/>
      <point x="111" y="700"/>
      <point x="99" y="688"/>
      <point x="99" y="673" type="curve" name="hr01" smooth="yes"/>
      <point x="99" y="352" type="line"/>
      <point x="41" y="330" type="line" smooth="yes"/>
      <point x="25" y="324"/>
      <point x="19" y="315"/>
      <point x="19" y="297" type="curve" name="hr02" smooth="yes"/>
      <point x="19" y="269" type="line" smooth="yes"/>
      <point x="19" y="257"/>
      <point x="28" y="248"/>
      <point x="40" y="248" type="curve" smooth="yes"/>
      <point x="42" y="248"/>
      <point x="46" y="249"/>
      <point x="51" y="251" type="curve" smooth="yes"/>
      <point x="99" y="269" type="line" name="hr03"/>
      <point x="99" y="27" type="line" smooth="yes"/>
      <point x="99" y="12"/>
      <point x="111" y="0"/>
      <point x="126" y="0" type="curve" smooth="yes"/>
      <point x="533" y="0" type="line" smooth="yes"/>
      <point x="548" y="0"/>
      <point x="560" y="12"/>
      <point x="560" y="27" type="curve" smooth="yes"/>
      <point x="560" y="63" type="line" smooth="yes"/>
      <point x="560" y="78"/>
      <point x="548" y="90"/>
      <point x="533" y="90" type="curve" smooth="yes"/>
    </contour>
  </outline>
</glyph>
<glyph name="lslash" format="1">
  <advance width="259"/>
  <unicode hex="0142"/>
  <outline>
    <contour>
      <point x="175" y="683" type="line"/>
      <point x="175" y="698"/>
      <point x="163" y="710"/>
      <point x="148" y="710" type="curve"/>
      <point x="111" y="710" type="line"/>
      <point x="96" y="710"/>
      <point x="84" y="698"/>
      <point x="84" y="683" type="curve"/>
      <point x="84" y="380" type="line"/>
      <point x="46" y="365" type="line"/>
      <point x="30" y="359"/>
      <point x="24" y="350"/>
      <point x="24" y="332" type="curve" name="hr01"/>
      <point x="24" y="304" type="line"/>
      <point x="24" y="292"/>
      <point x="33" y="283"/>
      <point x="45" y="283" type="curve" smooth="yes"/>
      <point x="47" y="283"/>
      <point x="51" y="284"/>
      <point x="56" y="286" type="curve"/>
      <point x="84" y="297" type="line" name="hr02"/>
      <point x="84" y="27" type="line"/>
      <point x="84" y="12"/>
      <point x="96" y="0"/>
      <point x="111" y="0" type="curve"/>
      <point x="148" y="0" type="line"/>
      <point x="163" y="0"/>
      <point x="175" y="12"/>
      <point x="175" y="27" type="curve"/>
      <point x="175" y="333" type="line"/>
      <point x="213" y="348" type="line"/>
      <point x="229" y="354"/>
      <point x="235" y="363"/>
      <point x="235" y="381" type="curve" name="hr03"/>
      <point x="235" y="409" type="line"/>
      <point x="235" y="421"/>
      <point x="226" y="430"/>
      <point x="214" y="430" type="curve" smooth="yes"/>
      <point x="212" y="430"/>
      <point x="208" y="429"/>
      <point x="203" y="427" type="curve"/>
      <point x="175" y="416" type="line" name="hr04"/>
    </contour>
  </outline>
</glyph>
<glyph name="Eng" format="1">
  <advance width="694"/>
  <unicode hex="014A"/>
  <outline>
    <contour>
      <point x="513" y="-46" type="line" smooth="yes"/>
      <point x="513" y="-97"/>
      <point x="499" y="-135"/>
      <point x="429" y="-135" type="curve" smooth="yes"/>
      <point x="420" y="-135" type="line" smooth="yes"/>
      <point x="405" y="-135"/>
      <point x="393" y="-147"/>
      <point x="393" y="-162" type="curve" name="hr01" smooth="yes"/>
      <point x="393" y="-198" type="line" smooth="yes"/>
      <point x="393" y="-213"/>
      <point x="405" y="-225"/>
      <point x="420" y="-225" type="curve" smooth="yes"/>
      <point x="443" y="-225" type="line" smooth="yes"/>
      <point x="558" y="-225"/>
      <point x="608" y="-163"/>
      <point x="608" y="-46" type="curve" smooth="yes"/>
      <point x="608" y="673" type="line" smooth="yes"/>
      <point x="608" y="688"/>
      <point x="596" y="700"/>
      <point x="581" y="700" type="curve" smooth="yes"/>
      <point x="540" y="700" type="line" smooth="yes"/>
      <point x="525" y="700"/>
      <point x="513" y="688"/>
      <point x="513" y="673" type="curve" name="hr02" smooth="yes"/>
      <point x="513" y="181" type="line"/>
      <point x="188" y="670" type="line" smooth="yes"/>
      <point x="179" y="684"/>
      <point x="167" y="700"/>
      <point x="148" y="700" type="curve" smooth="yes"/>
      <point x="113" y="700" type="line" smooth="yes"/>
      <point x="98" y="700"/>
      <point x="86" y="688"/>
      <point x="86" y="673" type="curve" smooth="yes"/>
      <point x="86" y="27" type="line" smooth="yes"/>
      <point x="86" y="12"/>
      <point x="98" y="0"/>
      <point x="113" y="0" type="curve" smooth="yes"/>
      <point x="154" y="0" type="line" smooth="yes"/>
      <point x="169" y="0"/>
      <point x="181" y="12"/>
      <point x="181" y="27" type="curve" smooth="yes"/>
      <point x="181" y="519" type="line"/>
      <point x="513" y="19" type="line"/>
    </contour>
  </outline>
</glyph>
<glyph name="eng" format="1">
  <advance width="607"/>
  <unicode hex="014B"/>
  <outline>
    <contour>
      <point x="537" y="306" type="line"/>
      <point x="537" y="446"/>
      <point x="447" y="530"/>
      <point x="321" y="530" type="curve" smooth="yes"/>
      <point x="240" y="530"/>
      <point x="191" y="495"/>
      <point x="166" y="462" type="curve"/>
      <point x="166" y="493" type="line"/>
      <point x="166" y="508"/>
      <point x="154" y="520"/>
      <point x="139" y="520" type="curve" name="hr01"/>
      <point x="102" y="520" type="line"/>
      <point x="87" y="520"/>
      <point x="75" y="508"/>
      <point x="75" y="493" type="curve"/>
      <point x="75" y="27" type="line"/>
      <point x="75" y="12"/>
      <point x="87" y="0"/>
      <point x="102" y="0" type="curve"/>
      <point x="139" y="0" type="line"/>
      <point x="154" y="0"/>
      <point x="166" y="12"/>
      <point x="166" y="27" type="curve"/>
      <point x="166" y="291" type="line"/>
      <point x="166" y="393"/>
      <point x="222" y="444"/>
      <point x="306" y="444" type="curve" name="hr02" smooth="yes"/>
      <point x="393" y="444"/>
      <point x="446" y="393"/>
      <point x="446" y="291" type="curve"/>
      <point x="446" y="-50" type="line"/>
      <point x="446" y="-101"/>
      <point x="432" y="-139"/>
      <point x="362" y="-139" type="curve"/>
      <point x="353" y="-139" type="line"/>
      <point x="338" y="-139"/>
      <point x="326" y="-151"/>
      <point x="326" y="-166" type="curve" name="hr03"/>
      <point x="326" y="-198" type="line"/>
      <point x="326" y="-213"/>
      <point x="338" y="-225"/>
      <point x="353" y="-225" type="curve"/>
      <point x="372" y="-225" type="line"/>
      <point x="487" y="-225"/>
      <point x="537" y="-163"/>
      <point x="537" y="-50" type="curve"/>
    </contour>
  </outline>
</glyph>
<glyph name="OE" format="1">
  <advance width="920"/>
  <unicode hex="0152"/>
  <outline>
    <contour>
      <point x="509" y="90" type="line" name="hr00"/>
      <point x="509" y="309" type="line"/>
      <point x="815" y="309" type="line"/>
      <point x="830" y="309"/>
      <point x="842" y="321"/>
      <point x="842" y="336" type="curve"/>
      <point x="842" y="372" type="line"/>
      <point x="842" y="387"/>
      <point x="830" y="399"/>
      <point x="815" y="399" type="curve"/>
      <point x="509" y="399" type="line"/>
      <point x="509" y="610" type="line"/>
      <point x="837" y="610" type="line"/>
      <point x="852" y="610"/>
      <point x="864" y="622"/>
      <point x="864" y="637" type="curve"/>
      <point x="864" y="673" type="line"/>
      <point x="864" y="688"/>
      <point x="852" y="700"/>
      <point x="837" y="700" type="curve"/>
      <point x="346" y="700" type="line"/>
      <point x="180" y="700"/>
      <point x="62" y="598"/>
      <point x="59" y="429" type="curve" smooth="yes"/>
      <point x="58" y="369"/>
      <point x="58" y="331"/>
      <point x="59" y="271" type="curve" smooth="yes"/>
      <point x="62" y="102"/>
      <point x="175" y="0"/>
      <point x="340" y="0" type="curve"/>
      <point x="845" y="0" type="line"/>
      <point x="860" y="0"/>
      <point x="872" y="12"/>
      <point x="872" y="27" type="curve"/>
      <point x="872" y="63" type="line"/>
      <point x="872" y="78"/>
      <point x="860" y="90"/>
      <point x="845" y="90" type="curve"/>
    </contour>
    <contour>
      <point x="154" y="424" type="curve" smooth="yes"/>
      <point x="156" y="520"/>
      <point x="206" y="610"/>
      <point x="350" y="610" type="curve"/>
      <point x="414" y="610" type="line"/>
      <point x="414" y="90" type="line"/>
      <point x="345" y="90" type="line"/>
      <point x="201" y="90"/>
      <point x="156" y="180"/>
      <point x="154" y="276" type="curve" smooth="yes"/>
      <point x="153" y="336"/>
      <point x="153" y="364"/>
    </contour>
  </outline>
</glyph>
<glyph name="Scedilla" format="1">
  <advance width="618"/>
  <unicode hex="015E"/>
  <outline>
    <contour>
      <point x="301" y="710" type="curve" smooth="yes"/>
      <point x="142" y="710"/>
      <point x="63" y="616"/>
      <point x="63" y="516" type="curve" smooth="yes"/>
      <point x="63" y="426"/>
      <point x="112" y="361"/>
      <point x="246" y="326" type="curve" smooth="yes"/>
      <point x="392" y="288"/>
      <point x="480" y="264"/>
      <point x="480" y="194" type="curve" smooth="yes"/>
      <point x="480" y="124"/>
      <point x="400" y="80"/>
      <point x="306" y="80" type="curve" smooth="yes"/>
      <point x="197" y="80"/>
      <point x="148" y="140"/>
      <point x="132" y="176" type="curve" smooth="yes"/>
      <point x="124" y="194"/>
      <point x="114" y="198"/>
      <point x="101" y="198" type="curve"/>
      <point x="60" y="198" type="line"/>
      <point x="48" y="198"/>
      <point x="38" y="188"/>
      <point x="38" y="176" type="curve" smooth="yes"/>
      <point x="40" y="102"/>
      <point x="126" y="14"/>
      <point x="251" y="-5" type="curve"/>
      <point x="231" y="-53" type="line"/>
      <point x="227" y="-63"/>
      <point x="222" y="-75"/>
      <point x="229" y="-83" type="curve"/>
      <point x="246" y="-101" type="line"/>
      <point x="261" y="-117"/>
      <point x="268" y="-99"/>
      <point x="300" y="-99" type="curve" smooth="yes"/>
      <point x="329" y="-99"/>
      <point x="343" y="-110"/>
      <point x="343" y="-134" type="curve" smooth="yes"/>
      <point x="343" y="-159"/>
      <point x="328" y="-169"/>
      <point x="300" y="-169" type="curve" smooth="yes"/>
      <point x="264" y="-169"/>
      <point x="258" y="-137"/>
      <point x="237" y="-156" type="curve"/>
      <point x="223" y="-169" type="line"/>
      <point x="204" y="-187"/>
      <point x="253" y="-220"/>
      <point x="300" y="-220" type="curve" smooth="yes"/>
      <point x="370" y="-220"/>
      <point x="399" y="-180"/>
      <point x="399" y="-132" type="curve" smooth="yes"/>
      <point x="399" y="-84"/>
      <point x="367" y="-48"/>
      <point x="323" y="-48" type="curve" smooth="yes"/>
      <point x="308" y="-48"/>
      <point x="296" y="-51"/>
      <point x="288" y="-56" type="curve"/>
      <point x="309" y="-10" type="line"/>
      <point x="469" y="-9"/>
      <point x="575" y="75"/>
      <point x="575" y="194" type="curve" smooth="yes"/>
      <point x="575" y="294"/>
      <point x="517" y="346"/>
      <point x="366" y="386" type="curve" smooth="yes"/>
      <point x="218" y="425"/>
      <point x="158" y="446"/>
      <point x="158" y="516" type="curve" smooth="yes"/>
      <point x="158" y="586"/>
      <point x="227" y="620"/>
      <point x="301" y="620" type="curve" smooth="yes"/>
      <point x="400" y="620"/>
      <point x="448" y="555"/>
      <point x="461" y="529" type="curve" smooth="yes"/>
      <point x="470" y="511"/>
      <point x="477" y="507"/>
      <point x="492" y="507" type="curve" name="hr01"/>
      <point x="533" y="507" type="line"/>
      <point x="545" y="507"/>
      <point x="556" y="517"/>
      <point x="555" y="529" type="curve" smooth="yes"/>
      <point x="552" y="596"/>
      <point x="463" y="710"/>
    </contour>
  </outline>
</glyph>
<glyph name="Tbar" format="1">
  <advance width="579"/>
  <unicode hex="0166"/>
  <outline>
    <contour>
      <point x="55" y="700" type="line" name="hr00" smooth="yes"/>
      <point x="40" y="700"/>
      <point x="28" y="688"/>
      <point x="28" y="673" type="curve" smooth="yes"/>
      <point x="28" y="637" type="line" smooth="yes"/>
      <point x="28" y="622"/>
      <point x="40" y="610"/>
      <point x="55" y="610" type="curve" smooth="yes"/>
      <point x="242" y="610" type="line"/>
      <point x="242" y="413" type="line"/>
      <point x="135" y="413" type="line" smooth="yes"/>
      <point x="120" y="413"/>
      <point x="108" y="401"/>
      <point x="108" y="386" type="curve" smooth="yes"/>
      <point x="108" y="355" type="line" smooth="yes"/>
      <point x="108" y="340"/>
      <point x="120" y="328"/>
      <point x="135" y="328" type="curve" smooth="yes"/>
      <point x="242" y="328" type="line"/>
      <point x="242" y="27" type="line" smooth="yes"/>
      <point x="242" y="12"/>
      <point x="254" y="0"/>
      <point x="269" y="0" type="curve" smooth="yes"/>
      <point x="310" y="0" type="line" smooth="yes"/>
      <point x="325" y="0"/>
      <point x="337" y="12"/>
      <point x="337" y="27" type="curve" smooth="yes"/>
      <point x="337" y="328" type="line"/>
      <point x="444" y="328" type="line" smooth="yes"/>
      <point x="459" y="328"/>
      <point x="471" y="340"/>
      <point x="471" y="355" type="curve" smooth="yes"/>
      <point x="471" y="386" type="line" smooth="yes"/>
      <point x="471" y="401"/>
      <point x="459" y="413"/>
      <point x="444" y="413" type="curve" smooth="yes"/>
      <point x="337" y="413" type="line"/>
      <point x="337" y="610" type="line"/>
      <point x="524" y="610" type="line" smooth="yes"/>
      <point x="539" y="610"/>
      <point x="551" y="622"/>
      <point x="551" y="637" type="curve" smooth="yes"/>
      <point x="551" y="673" type="line" smooth="yes"/>
      <point x="551" y="688"/>
      <point x="539" y="700"/>
      <point x="524" y="700" type="curve" smooth="yes"/>
    </contour>
  </outline>
</glyph>
